<mxfile host="app.diagrams.net" agent="Mozilla/5.0 (Windows NT 10.0; Win64; x64) AppleWebKit/537.36 (KHTML, like Gecko) Chrome/131.0.0.0 Safari/537.36" version="26.0.3" pages="3">
  <diagram name="Page-1" id="_dbiNvgFxBLvJ_iSfBZv">
    <mxGraphModel dx="-434" dy="5992" grid="1" gridSize="10" guides="1" tooltips="1" connect="1" arrows="1" fold="1" page="1" pageScale="1" pageWidth="850" pageHeight="1100" math="0" shadow="0">
      <root>
        <mxCell id="0" />
        <mxCell id="1" parent="0" />
        <mxCell id="9wEVdcjT3JOC04VeA5L2-1" value="" style="shape=ext;double=1;rounded=0;whiteSpace=wrap;html=1;fillColor=light-dark(#FFFFFF,transparent);movable=1;resizable=1;rotatable=1;deletable=1;editable=1;locked=0;connectable=1;" vertex="1" parent="1">
          <mxGeometry x="4340" y="1190" width="2700" height="3370" as="geometry" />
        </mxCell>
        <mxCell id="_S31PFsr-5n91dySAx23-71" value="" style="edgeStyle=orthogonalEdgeStyle;rounded=0;orthogonalLoop=1;jettySize=auto;html=1;" parent="1" source="_S31PFsr-5n91dySAx23-7" target="_S31PFsr-5n91dySAx23-66" edge="1">
          <mxGeometry relative="1" as="geometry" />
        </mxCell>
        <mxCell id="_S31PFsr-5n91dySAx23-7" value="IMPORT FORCAST_INFORMATION" style="rounded=0;whiteSpace=wrap;html=1;gradientColor=default;gradientDirection=west;fillColor=none;" parent="1" vertex="1">
          <mxGeometry x="5425" y="1686" width="175" height="40" as="geometry" />
        </mxCell>
        <mxCell id="_S31PFsr-5n91dySAx23-64" value="" style="edgeStyle=orthogonalEdgeStyle;rounded=0;orthogonalLoop=1;jettySize=auto;html=1;" parent="1" source="_S31PFsr-5n91dySAx23-61" target="_S31PFsr-5n91dySAx23-63" edge="1">
          <mxGeometry relative="1" as="geometry" />
        </mxCell>
        <mxCell id="_S31PFsr-5n91dySAx23-61" value="" style="ellipse;whiteSpace=wrap;html=1;aspect=fixed;" parent="1" vertex="1">
          <mxGeometry x="5653" y="1436" width="40" height="40" as="geometry" />
        </mxCell>
        <mxCell id="_S31PFsr-5n91dySAx23-69" style="edgeStyle=orthogonalEdgeStyle;rounded=0;orthogonalLoop=1;jettySize=auto;html=1;entryX=0.5;entryY=0;entryDx=0;entryDy=0;" parent="1" source="_S31PFsr-5n91dySAx23-63" target="_S31PFsr-5n91dySAx23-7" edge="1">
          <mxGeometry relative="1" as="geometry">
            <Array as="points">
              <mxPoint x="5513" y="1576" />
              <mxPoint x="5513" y="1666" />
            </Array>
          </mxGeometry>
        </mxCell>
        <mxCell id="4_S4OtVxMJpCYMmJXR8L-33" style="edgeStyle=orthogonalEdgeStyle;rounded=0;orthogonalLoop=1;jettySize=auto;html=1;entryX=0.5;entryY=0;entryDx=0;entryDy=0;" parent="1" source="_S31PFsr-5n91dySAx23-63" target="_S31PFsr-5n91dySAx23-65" edge="1">
          <mxGeometry relative="1" as="geometry" />
        </mxCell>
        <mxCell id="_S31PFsr-5n91dySAx23-63" value="IS IT&amp;nbsp;&lt;div&gt;FORCASTED&amp;nbsp;&lt;span style=&quot;background-color: transparent; color: light-dark(rgb(0, 0, 0), rgb(255, 255, 255));&quot;&gt;&amp;nbsp;&lt;/span&gt;&lt;/div&gt;&lt;div&gt;OR&amp;nbsp;&lt;span style=&quot;background-color: transparent; color: light-dark(rgb(0, 0, 0), rgb(255, 255, 255));&quot;&gt;&amp;nbsp;&lt;/span&gt;&lt;/div&gt;&lt;div&gt;CALL OUT ?&lt;/div&gt;" style="rhombus;whiteSpace=wrap;html=1;" parent="1" vertex="1">
          <mxGeometry x="5600" y="1505" width="145" height="142" as="geometry" />
        </mxCell>
        <mxCell id="4_S4OtVxMJpCYMmJXR8L-38" style="edgeStyle=orthogonalEdgeStyle;rounded=0;orthogonalLoop=1;jettySize=auto;html=1;entryX=0;entryY=0.5;entryDx=0;entryDy=0;" parent="1" source="_S31PFsr-5n91dySAx23-65" target="Lakz3S3r7i4BhN5lIzhC-1" edge="1">
          <mxGeometry relative="1" as="geometry">
            <Array as="points">
              <mxPoint x="5958" y="1775" />
              <mxPoint x="5990" y="1775" />
            </Array>
          </mxGeometry>
        </mxCell>
        <mxCell id="_S31PFsr-5n91dySAx23-65" value="IMPORT CALLOUT_INFORMATION" style="rounded=0;whiteSpace=wrap;html=1;gradientColor=default;gradientDirection=west;fillColor=none;" parent="1" vertex="1">
          <mxGeometry x="5870" y="1622.5" width="175" height="40" as="geometry" />
        </mxCell>
        <mxCell id="4_S4OtVxMJpCYMmJXR8L-34" value="" style="edgeStyle=orthogonalEdgeStyle;rounded=0;orthogonalLoop=1;jettySize=auto;html=1;" parent="1" source="_S31PFsr-5n91dySAx23-66" target="4_S4OtVxMJpCYMmJXR8L-31" edge="1">
          <mxGeometry relative="1" as="geometry" />
        </mxCell>
        <mxCell id="4_S4OtVxMJpCYMmJXR8L-43" style="edgeStyle=orthogonalEdgeStyle;rounded=0;orthogonalLoop=1;jettySize=auto;html=1;entryX=0;entryY=0.5;entryDx=0;entryDy=0;" parent="1" source="_S31PFsr-5n91dySAx23-66" target="4_S4OtVxMJpCYMmJXR8L-6" edge="1">
          <mxGeometry relative="1" as="geometry">
            <Array as="points">
              <mxPoint x="5513" y="2014" />
            </Array>
          </mxGeometry>
        </mxCell>
        <mxCell id="_S31PFsr-5n91dySAx23-66" value="DO&amp;nbsp;&lt;div&gt;CALL OUT&amp;nbsp;&lt;/div&gt;&lt;div&gt;EXIST FOR THIS FORCAST ?&amp;nbsp;&lt;/div&gt;" style="rhombus;whiteSpace=wrap;html=1;" parent="1" vertex="1">
          <mxGeometry x="5447.5" y="1767" width="130" height="120" as="geometry" />
        </mxCell>
        <mxCell id="4_S4OtVxMJpCYMmJXR8L-93" value="" style="edgeStyle=orthogonalEdgeStyle;rounded=0;orthogonalLoop=1;jettySize=auto;html=1;" parent="1" source="_S31PFsr-5n91dySAx23-73" target="4_S4OtVxMJpCYMmJXR8L-75" edge="1">
          <mxGeometry relative="1" as="geometry" />
        </mxCell>
        <mxCell id="_S31PFsr-5n91dySAx23-73" value="CREATE SRO DOCUMENT&amp;nbsp;" style="rounded=0;whiteSpace=wrap;html=1;gradientColor=default;gradientDirection=west;fillColor=none;" parent="1" vertex="1">
          <mxGeometry x="5984.75" y="2094" width="175" height="40" as="geometry" />
        </mxCell>
        <mxCell id="Lakz3S3r7i4BhN5lIzhC-8" value="" style="group" parent="1" vertex="1" connectable="0">
          <mxGeometry x="6464" y="1395" width="480" height="1159" as="geometry" />
        </mxCell>
        <mxCell id="4_S4OtVxMJpCYMmJXR8L-3" value="" style="group" parent="Lakz3S3r7i4BhN5lIzhC-8" vertex="1" connectable="0">
          <mxGeometry width="480" height="1159" as="geometry" />
        </mxCell>
        <mxCell id="_S31PFsr-5n91dySAx23-78" value="&lt;ol&gt;&lt;li&gt;&lt;span style=&quot;background-color: transparent; color: light-dark(rgb(0, 0, 0), rgb(255, 255, 255));&quot;&gt;General Information&lt;/span&gt;&lt;/li&gt;&lt;ol&gt;&lt;li&gt;&lt;span style=&quot;background-color: transparent; color: light-dark(rgb(0, 0, 0), rgb(255, 255, 255));&quot;&gt;customer&amp;nbsp;&amp;nbsp;&lt;/span&gt;&lt;/li&gt;&lt;li&gt;&lt;span style=&quot;background-color: transparent; color: light-dark(rgb(0, 0, 0), rgb(255, 255, 255));&quot;&gt;rig_number&amp;nbsp;&amp;nbsp;&lt;/span&gt;&lt;/li&gt;&lt;li&gt;&lt;span style=&quot;background-color: transparent; color: light-dark(rgb(0, 0, 0), rgb(255, 255, 255));&quot;&gt;well_name&amp;nbsp;&amp;nbsp;&lt;/span&gt;&lt;/li&gt;&lt;li&gt;&lt;span style=&quot;background-color: transparent; color: light-dark(rgb(0, 0, 0), rgb(255, 255, 255));&quot;&gt;hole_section&amp;nbsp;&amp;nbsp;&lt;/span&gt;&lt;/li&gt;&lt;li&gt;&lt;span style=&quot;background-color: transparent; color: light-dark(rgb(0, 0, 0), rgb(255, 255, 255));&quot;&gt;well_id&amp;nbsp;&amp;nbsp;&lt;/span&gt;&lt;/li&gt;&lt;li&gt;&lt;span style=&quot;background-color: transparent; color: light-dark(rgb(0, 0, 0), rgb(255, 255, 255));&quot;&gt;field_name&lt;br&gt;&lt;br&gt;&lt;br&gt;&lt;/span&gt;&lt;/li&gt;&lt;/ol&gt;&lt;li&gt;&lt;span style=&quot;background-color: transparent; color: light-dark(rgb(0, 0, 0), rgb(255, 255, 255));&quot;&gt;Type of Service Required&lt;/span&gt;&lt;/li&gt;&lt;ol&gt;&lt;li&gt;&lt;span style=&quot;background-color: transparent; color: light-dark(rgb(0, 0, 0), rgb(255, 255, 255));&quot;&gt;wireline_gyro_survey or memory_gyro_survey&lt;br&gt;&lt;br&gt;&lt;br&gt;&lt;/span&gt;&lt;/li&gt;&lt;/ol&gt;&lt;li&gt;&lt;span style=&quot;background-color: transparent; color: light-dark(rgb(0, 0, 0), rgb(255, 255, 255));&quot;&gt;Well Information&lt;/span&gt;&lt;/li&gt;&lt;ol&gt;&lt;li&gt;&lt;span style=&quot;background-color: transparent; color: light-dark(rgb(0, 0, 0), rgb(255, 255, 255));&quot;&gt;latitude_degrees&amp;nbsp;&amp;nbsp;&lt;/span&gt;&lt;/li&gt;&lt;li&gt;&lt;span style=&quot;background-color: transparent; color: light-dark(rgb(0, 0, 0), rgb(255, 255, 255));&quot;&gt;latitude_minutes&amp;nbsp;&amp;nbsp;&lt;/span&gt;&lt;/li&gt;&lt;li&gt;&lt;span style=&quot;background-color: transparent; color: light-dark(rgb(0, 0, 0), rgb(255, 255, 255));&quot;&gt;latitude_seconds&amp;nbsp;&amp;nbsp;&lt;/span&gt;&lt;/li&gt;&lt;li&gt;&lt;span style=&quot;background-color: transparent; color: light-dark(rgb(0, 0, 0), rgb(255, 255, 255));&quot;&gt;latitude_direction&amp;nbsp;&lt;/span&gt;&lt;/li&gt;&lt;li&gt;&lt;span style=&quot;background-color: transparent; color: light-dark(rgb(0, 0, 0), rgb(255, 255, 255));&quot;&gt;longitude_degrees&amp;nbsp;&amp;nbsp;&lt;/span&gt;&lt;/li&gt;&lt;li&gt;&lt;span style=&quot;background-color: transparent; color: light-dark(rgb(0, 0, 0), rgb(255, 255, 255));&quot;&gt;longitude_minutes&amp;nbsp;&amp;nbsp;&lt;/span&gt;&lt;/li&gt;&lt;li&gt;&lt;span style=&quot;background-color: transparent; color: light-dark(rgb(0, 0, 0), rgb(255, 255, 255));&quot;&gt;longitude_seconds&amp;nbsp;&amp;nbsp;&lt;/span&gt;&lt;/li&gt;&lt;li&gt;&lt;span style=&quot;background-color: transparent; color: light-dark(rgb(0, 0, 0), rgb(255, 255, 255));&quot;&gt;longitude_direction&lt;/span&gt;&lt;/li&gt;&lt;li&gt;&lt;span style=&quot;background-color: transparent; color: light-dark(rgb(0, 0, 0), rgb(255, 255, 255));&quot;&gt;northing_value&amp;nbsp;&amp;nbsp;&lt;/span&gt;&lt;/li&gt;&lt;li&gt;&lt;span style=&quot;background-color: transparent; color: light-dark(rgb(0, 0, 0), rgb(255, 255, 255));&quot;&gt;northing_unit&amp;nbsp;&amp;nbsp;&lt;/span&gt;&lt;/li&gt;&lt;li&gt;&lt;span style=&quot;background-color: transparent; color: light-dark(rgb(0, 0, 0), rgb(255, 255, 255));&quot;&gt;northing_direction&amp;nbsp;&lt;/span&gt;&lt;/li&gt;&lt;li&gt;&lt;span style=&quot;background-color: transparent; color: light-dark(rgb(0, 0, 0), rgb(255, 255, 255));&quot;&gt;easting_value&amp;nbsp;&amp;nbsp;&lt;/span&gt;&lt;/li&gt;&lt;li&gt;&lt;span style=&quot;background-color: transparent; color: light-dark(rgb(0, 0, 0), rgb(255, 255, 255));&quot;&gt;easting_unit&amp;nbsp;&amp;nbsp;&lt;/span&gt;&lt;/li&gt;&lt;li&gt;&lt;span style=&quot;background-color: transparent; color: light-dark(rgb(0, 0, 0), rgb(255, 255, 255));&quot;&gt;easting_direction&amp;nbsp;&amp;nbsp;&lt;/span&gt;&lt;/li&gt;&lt;li&gt;&lt;span style=&quot;background-color: transparent; color: light-dark(rgb(0, 0, 0), rgb(255, 255, 255));&quot;&gt;casing_size&amp;nbsp;&amp;nbsp;&lt;/span&gt;&lt;/li&gt;&lt;li&gt;&lt;span style=&quot;background-color: transparent; color: light-dark(rgb(0, 0, 0), rgb(255, 255, 255));&quot;&gt;casing_unit&lt;/span&gt;&lt;/li&gt;&lt;li&gt;&lt;span style=&quot;background-color: transparent; color: light-dark(rgb(0, 0, 0), rgb(255, 255, 255));&quot;&gt;ground_elevation&amp;nbsp;&amp;nbsp;&lt;/span&gt;&lt;/li&gt;&lt;li&gt;&lt;span style=&quot;background-color: transparent; color: light-dark(rgb(0, 0, 0), rgb(255, 255, 255));&quot;&gt;ground_elevation_unit&amp;nbsp;&amp;nbsp;&lt;/span&gt;&lt;/li&gt;&lt;li&gt;&lt;span style=&quot;background-color: transparent; color: light-dark(rgb(0, 0, 0), rgb(255, 255, 255));&quot;&gt;well_profile&amp;nbsp;&amp;nbsp;&lt;/span&gt;&lt;/li&gt;&lt;li&gt;&lt;span style=&quot;background-color: transparent; color: light-dark(rgb(0, 0, 0), rgb(255, 255, 255));&quot;&gt;drillpipe_size_value&amp;nbsp;&amp;nbsp;&lt;/span&gt;&lt;/li&gt;&lt;li&gt;&lt;span style=&quot;background-color: transparent; color: light-dark(rgb(0, 0, 0), rgb(255, 255, 255));&quot;&gt;drillpipe_size_unit&amp;nbsp;&amp;nbsp;&lt;/span&gt;&lt;/li&gt;&lt;li&gt;&lt;span style=&quot;background-color: transparent; color: light-dark(rgb(0, 0, 0), rgb(255, 255, 255));&quot;&gt;drillpipe_size_direction&amp;nbsp;&amp;nbsp;&lt;/span&gt;&lt;/li&gt;&lt;li&gt;&lt;span style=&quot;background-color: transparent; color: light-dark(rgb(0, 0, 0), rgb(255, 255, 255));&quot;&gt;rig_floor_elevation_value&amp;nbsp;&amp;nbsp;&lt;/span&gt;&lt;/li&gt;&lt;li&gt;&lt;span style=&quot;background-color: transparent; color: light-dark(rgb(0, 0, 0), rgb(255, 255, 255));&quot;&gt;rig_floor_elevation_direction&amp;nbsp;&amp;nbsp;&lt;/span&gt;&lt;/li&gt;&lt;li&gt;&lt;span style=&quot;background-color: transparent; color: light-dark(rgb(0, 0, 0), rgb(255, 255, 255));&quot;&gt;max_down_hole_temp_value&amp;nbsp;&amp;nbsp;&lt;/span&gt;&lt;/li&gt;&lt;li&gt;&lt;span style=&quot;background-color: transparent; color: light-dark(rgb(0, 0, 0), rgb(255, 255, 255));&quot;&gt;max_down_hole_temp_unit&amp;nbsp;&amp;nbsp;&lt;/span&gt;&amp;nbsp;&lt;/li&gt;&lt;li&gt;&lt;span style=&quot;background-color: transparent; color: light-dark(rgb(0, 0, 0), rgb(255, 255, 255));&quot;&gt;minimum_id&amp;nbsp;&amp;nbsp;&lt;/span&gt;&lt;/li&gt;&lt;li&gt;&lt;span style=&quot;background-color: transparent; color: light-dark(rgb(0, 0, 0), rgb(255, 255, 255));&quot;&gt;minimum_id_unit&amp;nbsp;&amp;nbsp;&lt;/span&gt;&lt;/li&gt;&lt;li&gt;&lt;span style=&quot;background-color: transparent; color: light-dark(rgb(0, 0, 0), rgb(255, 255, 255));&quot;&gt;maximum_inclination&amp;nbsp;&amp;nbsp;&lt;/span&gt;&lt;/li&gt;&lt;li&gt;&lt;span style=&quot;background-color: transparent; color: light-dark(rgb(0, 0, 0), rgb(255, 255, 255));&quot;&gt;maximum_inclination_unit&amp;nbsp;&amp;nbsp;&lt;/span&gt;&lt;/li&gt;&lt;li&gt;&lt;span style=&quot;background-color: transparent; color: light-dark(rgb(0, 0, 0), rgb(255, 255, 255));&quot;&gt;h2s_level&lt;br&gt;&lt;br&gt;&lt;br&gt;&lt;/span&gt;&lt;/li&gt;&lt;/ol&gt;&lt;li&gt;&lt;span style=&quot;background-color: transparent; color: light-dark(rgb(0, 0, 0), rgb(255, 255, 255));&quot;&gt;Survey Information&lt;/span&gt;&lt;/li&gt;&lt;ol&gt;&lt;li&gt;&lt;span style=&quot;background-color: transparent; color: light-dark(rgb(0, 0, 0), rgb(255, 255, 255));&quot;&gt;survey_start_depth&amp;nbsp;&amp;nbsp;&lt;/span&gt;&lt;/li&gt;&lt;li&gt;&lt;span style=&quot;background-color: transparent; color: light-dark(rgb(0, 0, 0), rgb(255, 255, 255));&quot;&gt;survey_start_depth_unit&amp;nbsp;&amp;nbsp;&lt;/span&gt;&lt;/li&gt;&lt;li&gt;&lt;span style=&quot;background-color: transparent; color: light-dark(rgb(0, 0, 0), rgb(255, 255, 255));&quot;&gt;survey_end_depth&amp;nbsp;&amp;nbsp;&lt;/span&gt;&lt;/li&gt;&lt;li&gt;&lt;span style=&quot;background-color: transparent; color: light-dark(rgb(0, 0, 0), rgb(255, 255, 255));&quot;&gt;survey_end_depth_unit&amp;nbsp;&amp;nbsp;&lt;/span&gt;&lt;/li&gt;&lt;li&gt;&lt;span style=&quot;background-color: transparent; color: light-dark(rgb(0, 0, 0), rgb(255, 255, 255));&quot;&gt;survey_interval&amp;nbsp;&amp;nbsp;&lt;/span&gt;&lt;/li&gt;&lt;li&gt;&lt;span style=&quot;background-color: transparent; color: light-dark(rgb(0, 0, 0), rgb(255, 255, 255));&quot;&gt;survey_interval_unit&amp;nbsp;&amp;nbsp;&lt;/span&gt;&lt;/li&gt;&lt;li&gt;&lt;span style=&quot;background-color: transparent; color: light-dark(rgb(0, 0, 0), rgb(255, 255, 255));&quot;&gt;[whipstock_orientation_depth,&amp;nbsp;&lt;/span&gt;whipstock_orientation_depth_unit] &lt;br&gt;or &lt;br&gt;[motor_orientation_depth,&amp;nbsp;&lt;span style=&quot;background-color: transparent; color: light-dark(rgb(0, 0, 0), rgb(255, 255, 255));&quot;&gt;motor_orientation_depth_unit]&amp;nbsp;&lt;br&gt;&lt;/span&gt;or &lt;br&gt;[ubho_sub_size,&amp;nbsp;&amp;nbsp;&lt;span style=&quot;background-color: transparent; color: light-dark(rgb(0, 0, 0), rgb(255, 255, 255));&quot;&gt;connection_size,date_required_on_site]&amp;nbsp;&amp;nbsp;&lt;br&gt;&lt;/span&gt;or&amp;nbsp;&lt;br&gt;&lt;span style=&quot;background-color: transparent; color: light-dark(rgb(0, 0, 0), rgb(255, 255, 255));&quot;&gt;[side_entry_sub_size,&amp;nbsp;&lt;/span&gt;&lt;span style=&quot;background-color: transparent; color: light-dark(rgb(0, 0, 0), rgb(255, 255, 255));&quot;&gt;connection_size,&amp;nbsp;&lt;/span&gt;&lt;span style=&quot;background-color: transparent; color: light-dark(rgb(0, 0, 0), rgb(255, 255, 255));&quot;&gt;date_required_on_site]&amp;nbsp;&lt;br&gt;&lt;/span&gt;&lt;span style=&quot;background-color: transparent; color: light-dark(rgb(0, 0, 0), rgb(255, 255, 255));&quot;&gt;or&amp;nbsp;&lt;br&gt;&lt;/span&gt;&lt;span style=&quot;background-color: transparent; color: light-dark(rgb(0, 0, 0), rgb(255, 255, 255));&quot;&gt;[equipment_required_on_site_date, equipment_required_on_site_time]&amp;nbsp;&lt;br&gt;&lt;/span&gt;&lt;span style=&quot;background-color: transparent; color: light-dark(rgb(0, 0, 0), rgb(255, 255, 255));&quot;&gt;or &lt;br&gt;[crew_required_on_site_date,&amp;nbsp;&lt;/span&gt;&lt;span style=&quot;background-color: transparent; color: light-dark(rgb(0, 0, 0), rgb(255, 255, 255));&quot;&gt;crew_required_on_site_time]&amp;nbsp;&lt;br&gt;&lt;/span&gt;&lt;br&gt;&amp;nbsp;&lt;/li&gt;&lt;/ol&gt;&lt;li&gt;&lt;span style=&quot;background-color: transparent; color: light-dark(rgb(0, 0, 0), rgb(255, 255, 255));&quot;&gt;Contact Information &amp;amp; Comments&lt;/span&gt;&lt;/li&gt;&lt;ol&gt;&lt;li&gt;&lt;span style=&quot;background-color: transparent; color: light-dark(rgb(0, 0, 0), rgb(255, 255, 255));&quot;&gt;callout_completed_by&amp;nbsp;&amp;nbsp;&lt;/span&gt;&lt;/li&gt;&lt;li&gt;&lt;span style=&quot;background-color: transparent; color: light-dark(rgb(0, 0, 0), rgb(255, 255, 255));&quot;&gt;designation&amp;nbsp;&amp;nbsp;&lt;/span&gt;&lt;/li&gt;&lt;li&gt;&lt;span style=&quot;background-color: transparent; color: light-dark(rgb(0, 0, 0), rgb(255, 255, 255));&quot;&gt;contact_number&amp;nbsp;&amp;nbsp;&lt;/span&gt;&lt;/li&gt;&lt;li&gt;&lt;span style=&quot;background-color: transparent; color: light-dark(rgb(0, 0, 0), rgb(255, 255, 255));&quot;&gt;comments&amp;nbsp;&lt;/span&gt;&lt;/li&gt;&lt;/ol&gt;&lt;/ol&gt;" style="shape=note;whiteSpace=wrap;html=1;backgroundOutline=1;darkOpacity=0.05;align=left;" parent="4_S4OtVxMJpCYMmJXR8L-3" vertex="1">
          <mxGeometry width="480" height="1159" as="geometry" />
        </mxCell>
        <mxCell id="Lakz3S3r7i4BhN5lIzhC-34" value="&lt;span style=&quot;font-size: 14px;&quot;&gt;&lt;b&gt;CALLOUT_INFORMATION&lt;/b&gt;&lt;/span&gt;" style="text;html=1;align=center;verticalAlign=middle;whiteSpace=wrap;rounded=0;" parent="4_S4OtVxMJpCYMmJXR8L-3" vertex="1">
          <mxGeometry y="4" width="200" height="30" as="geometry" />
        </mxCell>
        <mxCell id="4_S4OtVxMJpCYMmJXR8L-1" value="" style="endArrow=none;dashed=1;html=1;dashPattern=1 3;strokeWidth=2;rounded=0;entryX=0;entryY=0.5;entryDx=0;entryDy=0;exitX=0;exitY=0;exitDx=220;exitDy=155.5;exitPerimeter=0;" parent="1" source="_S31PFsr-5n91dySAx23-79" target="_S31PFsr-5n91dySAx23-7" edge="1">
          <mxGeometry width="50" height="50" relative="1" as="geometry">
            <mxPoint x="5550" y="1814" as="sourcePoint" />
            <mxPoint x="5600" y="1764" as="targetPoint" />
          </mxGeometry>
        </mxCell>
        <mxCell id="4_S4OtVxMJpCYMmJXR8L-2" value="" style="group" parent="1" vertex="1" connectable="0">
          <mxGeometry x="5134" y="1550" width="220" height="281" as="geometry" />
        </mxCell>
        <mxCell id="_S31PFsr-5n91dySAx23-79" value="&lt;ol&gt;&lt;li&gt;&lt;div style=&quot;background-color: transparent; color: light-dark(rgb(0, 0, 0), rgb(255, 255, 255)); display: inline !important;&quot;&gt;client&lt;/div&gt;&lt;/li&gt;&lt;li&gt;customer&lt;/li&gt;&lt;li&gt;cluster&lt;/li&gt;&lt;li&gt;client_tree[we_team]&lt;/li&gt;&lt;li&gt;rig&lt;/li&gt;&lt;li&gt;wellno&lt;/li&gt;&lt;li&gt;earliest_date&lt;/li&gt;&lt;li&gt;latest_date&lt;/li&gt;&lt;li&gt;expected_job_days&lt;/li&gt;&lt;li&gt;type_of_services&lt;/li&gt;&lt;li&gt;well_section&lt;/li&gt;&lt;li&gt;estimated_depth&lt;/li&gt;&lt;li&gt;dhT_expected&lt;/li&gt;&lt;li&gt;expected_revenue&lt;/li&gt;&lt;li&gt;confidence&lt;/li&gt;&lt;/ol&gt;" style="shape=note;whiteSpace=wrap;html=1;backgroundOutline=1;darkOpacity=0.05;align=left;size=18;" parent="4_S4OtVxMJpCYMmJXR8L-2" vertex="1">
          <mxGeometry width="220" height="281" as="geometry" />
        </mxCell>
        <mxCell id="Lakz3S3r7i4BhN5lIzhC-6" value="&lt;b&gt;&lt;font style=&quot;font-size: 14px;&quot;&gt;FORCAST INFORMATION&lt;/font&gt;&lt;/b&gt;" style="text;html=1;align=center;verticalAlign=middle;whiteSpace=wrap;rounded=0;" parent="4_S4OtVxMJpCYMmJXR8L-2" vertex="1">
          <mxGeometry width="200" height="30" as="geometry" />
        </mxCell>
        <mxCell id="4_S4OtVxMJpCYMmJXR8L-4" value="" style="endArrow=none;dashed=1;html=1;dashPattern=1 3;strokeWidth=2;rounded=0;exitX=1;exitY=0;exitDx=0;exitDy=0;entryX=0.01;entryY=0.145;entryDx=0;entryDy=0;entryPerimeter=0;" parent="1" source="_S31PFsr-5n91dySAx23-65" target="_S31PFsr-5n91dySAx23-78" edge="1">
          <mxGeometry width="50" height="50" relative="1" as="geometry">
            <mxPoint x="5950" y="1514" as="sourcePoint" />
            <mxPoint x="6000" y="1464" as="targetPoint" />
            <Array as="points">
              <mxPoint x="6110" y="1595" />
              <mxPoint x="6410" y="1595" />
            </Array>
          </mxGeometry>
        </mxCell>
        <mxCell id="4_S4OtVxMJpCYMmJXR8L-84" style="edgeStyle=orthogonalEdgeStyle;rounded=0;orthogonalLoop=1;jettySize=auto;html=1;entryX=0;entryY=0.5;entryDx=0;entryDy=0;" parent="1" source="4_S4OtVxMJpCYMmJXR8L-6" target="4_S4OtVxMJpCYMmJXR8L-79" edge="1">
          <mxGeometry relative="1" as="geometry" />
        </mxCell>
        <mxCell id="4_S4OtVxMJpCYMmJXR8L-6" value="SRO_INPUT_TYPE#3" style="shape=parallelogram;perimeter=parallelogramPerimeter;whiteSpace=wrap;html=1;fixedSize=1;" parent="1" vertex="1">
          <mxGeometry x="5650" y="1984" width="172.5" height="60" as="geometry" />
        </mxCell>
        <mxCell id="4_S4OtVxMJpCYMmJXR8L-24" value="" style="group" parent="1" vertex="1" connectable="0">
          <mxGeometry x="4460" y="2145" width="910" height="193.98999999999978" as="geometry" />
        </mxCell>
        <mxCell id="Lakz3S3r7i4BhN5lIzhC-28" value="" style="shape=note;whiteSpace=wrap;html=1;backgroundOutline=1;darkOpacity=0.05;container=0;size=11;" parent="4_S4OtVxMJpCYMmJXR8L-24" vertex="1">
          <mxGeometry width="910" height="193.99" as="geometry" />
        </mxCell>
        <mxCell id="4_S4OtVxMJpCYMmJXR8L-14" value="&lt;ol style=&quot;text-align: left;&quot;&gt;&lt;li&gt;&lt;span style=&quot;background-color: transparent; color: light-dark(rgb(0, 0, 0), rgb(255, 255, 255));&quot;&gt;well_id&amp;nbsp;&amp;nbsp;&lt;/span&gt;&lt;/li&gt;&lt;li&gt;callout_date&amp;nbsp;&amp;nbsp;&lt;/li&gt;&lt;li&gt;bh_temp&amp;nbsp;&amp;nbsp;&lt;/li&gt;&lt;/ol&gt;" style="shape=manualInput;whiteSpace=wrap;html=1;size=13;" parent="4_S4OtVxMJpCYMmJXR8L-24" vertex="1">
          <mxGeometry x="50" y="52.98999999999978" width="120" height="80" as="geometry" />
        </mxCell>
        <mxCell id="4_S4OtVxMJpCYMmJXR8L-15" value="&lt;ol&gt;&lt;li&gt;&lt;span style=&quot;background-color: transparent; color: light-dark(rgb(0, 0, 0), rgb(255, 255, 255));&quot;&gt;CALLOUT_INFORMATION&lt;/span&gt;&lt;/li&gt;&lt;/ol&gt;" style="shape=manualInput;whiteSpace=wrap;html=1;size=27;align=left;" parent="4_S4OtVxMJpCYMmJXR8L-24" vertex="1">
          <mxGeometry x="213" y="54.98999999999978" width="207" height="79" as="geometry" />
        </mxCell>
        <mxCell id="Lakz3S3r7i4BhN5lIzhC-23" value="&lt;font style=&quot;font-size: 18px;&quot;&gt;+&lt;/font&gt;" style="text;html=1;align=center;verticalAlign=middle;whiteSpace=wrap;rounded=0;container=0;" parent="4_S4OtVxMJpCYMmJXR8L-24" vertex="1">
          <mxGeometry x="419.99684210526266" y="78.82999999999947" width="37.278684210526315" height="30.00000000000004" as="geometry" />
        </mxCell>
        <mxCell id="Lakz3S3r7i4BhN5lIzhC-5" value="&lt;span style=&quot;font-size: 14px;&quot;&gt;&lt;b&gt;SRO_INPUT_TYPE#3&lt;/b&gt;&lt;/span&gt;" style="text;html=1;align=center;verticalAlign=middle;whiteSpace=wrap;rounded=0;container=0;" parent="4_S4OtVxMJpCYMmJXR8L-24" vertex="1">
          <mxGeometry y="6.369999999999891" width="170" height="30" as="geometry" />
        </mxCell>
        <mxCell id="4_S4OtVxMJpCYMmJXR8L-20" value="" style="group" parent="4_S4OtVxMJpCYMmJXR8L-24" vertex="1" connectable="0">
          <mxGeometry x="457.27999999999975" y="30" width="422.72" height="143" as="geometry" />
        </mxCell>
        <mxCell id="4_S4OtVxMJpCYMmJXR8L-16" value="" style="shape=note;whiteSpace=wrap;html=1;backgroundOutline=1;darkOpacity=0.05;size=10;" parent="4_S4OtVxMJpCYMmJXR8L-20" vertex="1">
          <mxGeometry width="422.7200000000001" height="143" as="geometry" />
        </mxCell>
        <mxCell id="4_S4OtVxMJpCYMmJXR8L-17" value="&lt;span style=&quot;text-align: left;&quot;&gt;IMPORTED FORCAST_INFORMATION&lt;/span&gt;" style="shape=note;whiteSpace=wrap;html=1;backgroundOutline=1;darkOpacity=0.05;size=11;container=0;" parent="4_S4OtVxMJpCYMmJXR8L-20" vertex="1">
          <mxGeometry x="11.42" y="32.78" width="158.58" height="56.45" as="geometry" />
        </mxCell>
        <mxCell id="4_S4OtVxMJpCYMmJXR8L-18" value="&lt;font style=&quot;font-size: 18px;&quot;&gt;-&lt;/font&gt;" style="text;html=1;align=center;verticalAlign=middle;whiteSpace=wrap;rounded=0;container=0;" parent="4_S4OtVxMJpCYMmJXR8L-20" vertex="1">
          <mxGeometry x="169.3965720472621" y="48.00999999999976" width="42.59039294452347" height="30.00000000000004" as="geometry" />
        </mxCell>
        <mxCell id="4_S4OtVxMJpCYMmJXR8L-19" value="&lt;ol&gt;&lt;li&gt;&lt;span style=&quot;background-color: transparent; color: light-dark(rgb(0, 0, 0), rgb(255, 255, 255));&quot;&gt;earliest_date&lt;/span&gt;&lt;/li&gt;&lt;li&gt;expected_job_days&lt;/li&gt;&lt;li&gt;dhT_expected&lt;/li&gt;&lt;li&gt;expected_revenue&lt;/li&gt;&lt;li&gt;confidence&lt;/li&gt;&lt;/ol&gt;" style="shape=note;whiteSpace=wrap;html=1;backgroundOutline=1;darkOpacity=0.05;align=left;size=10;container=0;" parent="4_S4OtVxMJpCYMmJXR8L-20" vertex="1">
          <mxGeometry x="212.78470833703759" y="21.000000000000455" width="194.69893917496447" height="100.99000000000012" as="geometry" />
        </mxCell>
        <mxCell id="4_S4OtVxMJpCYMmJXR8L-21" value="&lt;font style=&quot;font-size: 18px;&quot;&gt;+&lt;/font&gt;" style="text;html=1;align=center;verticalAlign=middle;whiteSpace=wrap;rounded=0;container=0;" parent="4_S4OtVxMJpCYMmJXR8L-24" vertex="1">
          <mxGeometry x="174.99684210526266" y="78.82999999999947" width="37.278684210526315" height="30.00000000000004" as="geometry" />
        </mxCell>
        <mxCell id="4_S4OtVxMJpCYMmJXR8L-25" value="CALLOUT" style="text;html=1;align=center;verticalAlign=middle;whiteSpace=wrap;rounded=0;" parent="1" vertex="1">
          <mxGeometry x="5750" y="1545" width="60" height="30" as="geometry" />
        </mxCell>
        <mxCell id="4_S4OtVxMJpCYMmJXR8L-26" value="FORCAST" style="text;html=1;align=center;verticalAlign=middle;whiteSpace=wrap;rounded=0;" parent="1" vertex="1">
          <mxGeometry x="5530" y="1545" width="60" height="30" as="geometry" />
        </mxCell>
        <mxCell id="4_S4OtVxMJpCYMmJXR8L-28" value="YES" style="text;html=1;align=center;verticalAlign=middle;whiteSpace=wrap;rounded=0;" parent="1" vertex="1">
          <mxGeometry x="5577.5" y="1795.0100000000002" width="60" height="30" as="geometry" />
        </mxCell>
        <mxCell id="4_S4OtVxMJpCYMmJXR8L-46" style="edgeStyle=orthogonalEdgeStyle;rounded=0;orthogonalLoop=1;jettySize=auto;html=1;entryX=0;entryY=0.5;entryDx=0;entryDy=0;" parent="1" source="4_S4OtVxMJpCYMmJXR8L-31" target="4_S4OtVxMJpCYMmJXR8L-36" edge="1">
          <mxGeometry relative="1" as="geometry">
            <Array as="points">
              <mxPoint x="5778" y="1922" />
            </Array>
          </mxGeometry>
        </mxCell>
        <mxCell id="4_S4OtVxMJpCYMmJXR8L-31" value="IMPORT CALLOUT_INFORMATION" style="rounded=0;whiteSpace=wrap;html=1;gradientColor=default;gradientDirection=west;fillColor=none;" parent="1" vertex="1">
          <mxGeometry x="5690" y="1807" width="175" height="40" as="geometry" />
        </mxCell>
        <mxCell id="4_S4OtVxMJpCYMmJXR8L-32" value="" style="group" parent="1" vertex="1" connectable="0">
          <mxGeometry x="6463" y="2593" width="220" height="450" as="geometry" />
        </mxCell>
        <mxCell id="Lakz3S3r7i4BhN5lIzhC-2" value="&lt;div&gt;&lt;br&gt;&lt;/div&gt;" style="shape=note;whiteSpace=wrap;html=1;backgroundOutline=1;darkOpacity=0.05;align=left;container=0;" parent="4_S4OtVxMJpCYMmJXR8L-32" vertex="1">
          <mxGeometry width="220" height="450" as="geometry" />
        </mxCell>
        <mxCell id="Lakz3S3r7i4BhN5lIzhC-3" value="&lt;span style=&quot;text-align: left;&quot;&gt;IMPORTED CALLOUT_INFORMATION&lt;/span&gt;" style="shape=note;whiteSpace=wrap;html=1;backgroundOutline=1;darkOpacity=0.05;size=15;container=0;" parent="4_S4OtVxMJpCYMmJXR8L-32" vertex="1">
          <mxGeometry x="25" y="352.03999999999996" width="155" height="64.68" as="geometry" />
        </mxCell>
        <mxCell id="Lakz3S3r7i4BhN5lIzhC-32" value="&lt;font style=&quot;font-size: 18px;&quot;&gt;+&lt;/font&gt;" style="text;html=1;align=center;verticalAlign=middle;whiteSpace=wrap;rounded=0;container=0;" parent="4_S4OtVxMJpCYMmJXR8L-32" vertex="1">
          <mxGeometry x="83.86131578947425" y="311.01142857142804" width="37.278684210526315" height="34.371428571428616" as="geometry" />
        </mxCell>
        <mxCell id="Lakz3S3r7i4BhN5lIzhC-33" value="&lt;span style=&quot;font-size: 14px;&quot;&gt;&lt;b&gt;SRO_INPUT_TYPE#1&lt;/b&gt;&lt;/span&gt;" style="text;html=1;align=center;verticalAlign=middle;whiteSpace=wrap;rounded=0;container=0;" parent="4_S4OtVxMJpCYMmJXR8L-32" vertex="1">
          <mxGeometry x="5" y="6.874285714285634" width="145" height="34.371428571428574" as="geometry" />
        </mxCell>
        <mxCell id="4_S4OtVxMJpCYMmJXR8L-22" value="&lt;ol style=&quot;text-align: left;&quot;&gt;&lt;li&gt;&lt;span style=&quot;background-color: transparent; color: light-dark(rgb(0, 0, 0), rgb(255, 255, 255));&quot;&gt;customer&amp;nbsp;&amp;nbsp;&lt;/span&gt;&lt;/li&gt;&lt;li&gt;&lt;span style=&quot;background-color: transparent; color: light-dark(rgb(0, 0, 0), rgb(255, 255, 255));&quot;&gt;client&amp;nbsp;&amp;nbsp;&lt;/span&gt;&lt;/li&gt;&lt;li&gt;&lt;span style=&quot;background-color: transparent; color: light-dark(rgb(0, 0, 0), rgb(255, 255, 255));&quot;&gt;cluster&amp;nbsp;&amp;nbsp;&lt;/span&gt;&lt;/li&gt;&lt;li&gt;&lt;span style=&quot;background-color: transparent; color: light-dark(rgb(0, 0, 0), rgb(255, 255, 255));&quot;&gt;we_team&amp;nbsp;&amp;nbsp;&lt;/span&gt;&lt;/li&gt;&lt;li&gt;&lt;span style=&quot;background-color: transparent; color: light-dark(rgb(0, 0, 0), rgb(255, 255, 255));&quot;&gt;rig_number&amp;nbsp;&amp;nbsp;&lt;/span&gt;&lt;/li&gt;&lt;li&gt;&lt;span style=&quot;background-color: transparent; color: light-dark(rgb(0, 0, 0), rgb(255, 255, 255));&quot;&gt;well_number&amp;nbsp;&amp;nbsp;&lt;/span&gt;&lt;/li&gt;&lt;li&gt;&lt;span style=&quot;background-color: transparent; color: light-dark(rgb(0, 0, 0), rgb(255, 255, 255));&quot;&gt;hole_section&amp;nbsp;&amp;nbsp;&lt;/span&gt;&lt;/li&gt;&lt;li&gt;&lt;span style=&quot;background-color: transparent; color: light-dark(rgb(0, 0, 0), rgb(255, 255, 255));&quot;&gt;type_of_service&amp;nbsp;&amp;nbsp;&lt;/span&gt;&lt;/li&gt;&lt;li&gt;&lt;span style=&quot;background-color: transparent; color: light-dark(rgb(0, 0, 0), rgb(255, 255, 255));&quot;&gt;callout_date&amp;nbsp;&amp;nbsp;&lt;/span&gt;&lt;/li&gt;&lt;li&gt;&lt;span style=&quot;background-color: transparent; color: light-dark(rgb(0, 0, 0), rgb(255, 255, 255));&quot;&gt;latest_date&amp;nbsp;&amp;nbsp;&lt;/span&gt;&lt;/li&gt;&lt;li&gt;&lt;span style=&quot;background-color: transparent; color: light-dark(rgb(0, 0, 0), rgb(255, 255, 255));&quot;&gt;estimated_depth&amp;nbsp;&amp;nbsp;&lt;/span&gt;&lt;/li&gt;&lt;li&gt;&lt;span style=&quot;background-color: transparent; color: light-dark(rgb(0, 0, 0), rgb(255, 255, 255));&quot;&gt;bh_temp&amp;nbsp;&amp;nbsp;&lt;/span&gt;&lt;/li&gt;&lt;/ol&gt;" style="shape=manualInput;whiteSpace=wrap;html=1;size=13;container=0;" parent="4_S4OtVxMJpCYMmJXR8L-32" vertex="1">
          <mxGeometry x="25" y="50.98000000000002" width="155" height="252.06" as="geometry" />
        </mxCell>
        <mxCell id="4_S4OtVxMJpCYMmJXR8L-35" value="" style="endArrow=none;dashed=1;html=1;dashPattern=1 3;strokeWidth=2;rounded=0;exitX=1;exitY=0;exitDx=0;exitDy=0;entryX=0;entryY=0.148;entryDx=0;entryDy=0;entryPerimeter=0;" parent="1" source="4_S4OtVxMJpCYMmJXR8L-31" target="_S31PFsr-5n91dySAx23-78" edge="1">
          <mxGeometry width="50" height="50" relative="1" as="geometry">
            <mxPoint x="5830" y="1803" as="sourcePoint" />
            <mxPoint x="6257" y="1635" as="targetPoint" />
            <Array as="points">
              <mxPoint x="5920" y="1745" />
              <mxPoint x="6160" y="1685" />
              <mxPoint x="6400" y="1635" />
            </Array>
          </mxGeometry>
        </mxCell>
        <mxCell id="4_S4OtVxMJpCYMmJXR8L-86" style="edgeStyle=orthogonalEdgeStyle;rounded=0;orthogonalLoop=1;jettySize=auto;html=1;entryX=1;entryY=0.5;entryDx=0;entryDy=0;" parent="1" source="Lakz3S3r7i4BhN5lIzhC-1" target="4_S4OtVxMJpCYMmJXR8L-79" edge="1">
          <mxGeometry relative="1" as="geometry">
            <Array as="points">
              <mxPoint x="6179" y="1775" />
              <mxPoint x="6179" y="2014" />
            </Array>
          </mxGeometry>
        </mxCell>
        <mxCell id="Lakz3S3r7i4BhN5lIzhC-1" value="SRO_INPUT_TYPE#1" style="shape=parallelogram;perimeter=parallelogramPerimeter;whiteSpace=wrap;html=1;fixedSize=1;" parent="1" vertex="1">
          <mxGeometry x="5986" y="1745" width="172.5" height="60" as="geometry" />
        </mxCell>
        <mxCell id="4_S4OtVxMJpCYMmJXR8L-85" style="edgeStyle=orthogonalEdgeStyle;rounded=0;orthogonalLoop=1;jettySize=auto;html=1;entryX=0.5;entryY=0;entryDx=0;entryDy=0;" parent="1" source="4_S4OtVxMJpCYMmJXR8L-36" target="4_S4OtVxMJpCYMmJXR8L-79" edge="1">
          <mxGeometry relative="1" as="geometry" />
        </mxCell>
        <mxCell id="4_S4OtVxMJpCYMmJXR8L-36" value="SRO_INPUT_TYPE#2" style="shape=parallelogram;perimeter=parallelogramPerimeter;whiteSpace=wrap;html=1;fixedSize=1;" parent="1" vertex="1">
          <mxGeometry x="5810" y="1892.0100000000002" width="172.5" height="60" as="geometry" />
        </mxCell>
        <mxCell id="4_S4OtVxMJpCYMmJXR8L-41" value="" style="endArrow=none;dashed=1;html=1;dashPattern=1 3;strokeWidth=2;rounded=0;exitX=0.882;exitY=0.987;exitDx=0;exitDy=0;exitPerimeter=0;entryX=0.008;entryY=0.117;entryDx=0;entryDy=0;entryPerimeter=0;" parent="1" source="Lakz3S3r7i4BhN5lIzhC-1" target="Lakz3S3r7i4BhN5lIzhC-2" edge="1">
          <mxGeometry width="50" height="50" relative="1" as="geometry">
            <mxPoint x="6140.577922077922" y="1825.006233766234" as="sourcePoint" />
            <mxPoint x="6180" y="2031.2399999999998" as="targetPoint" />
            <Array as="points">
              <mxPoint x="6200" y="1825" />
              <mxPoint x="6380" y="2095" />
            </Array>
          </mxGeometry>
        </mxCell>
        <mxCell id="4_S4OtVxMJpCYMmJXR8L-44" value="NO" style="text;html=1;align=center;verticalAlign=middle;whiteSpace=wrap;rounded=0;" parent="1" vertex="1">
          <mxGeometry x="5510" y="1887.0100000000002" width="60" height="30" as="geometry" />
        </mxCell>
        <mxCell id="4_S4OtVxMJpCYMmJXR8L-45" value="" style="endArrow=none;dashed=1;html=1;dashPattern=1 3;strokeWidth=2;rounded=0;exitX=0.999;exitY=0.598;exitDx=0;exitDy=0;exitPerimeter=0;entryX=0;entryY=0.75;entryDx=0;entryDy=0;" parent="1" source="Lakz3S3r7i4BhN5lIzhC-28" target="4_S4OtVxMJpCYMmJXR8L-6" edge="1">
          <mxGeometry width="50" height="50" relative="1" as="geometry">
            <mxPoint x="5420" y="2015" as="sourcePoint" />
            <mxPoint x="5470" y="1965" as="targetPoint" />
            <Array as="points">
              <mxPoint x="5430" y="2261" />
              <mxPoint x="5600" y="2028" />
            </Array>
          </mxGeometry>
        </mxCell>
        <mxCell id="4_S4OtVxMJpCYMmJXR8L-62" value="" style="group" parent="1" vertex="1" connectable="0">
          <mxGeometry x="4500" y="1892.0100000000002" width="870" height="193.98999999999978" as="geometry" />
        </mxCell>
        <mxCell id="4_S4OtVxMJpCYMmJXR8L-50" value="" style="shape=note;whiteSpace=wrap;html=1;backgroundOutline=1;darkOpacity=0.05;container=0;size=15;" parent="4_S4OtVxMJpCYMmJXR8L-62" vertex="1">
          <mxGeometry width="870" height="193.99" as="geometry" />
        </mxCell>
        <mxCell id="4_S4OtVxMJpCYMmJXR8L-51" value="&lt;ol style=&quot;text-align: left;&quot;&gt;&lt;li&gt;&lt;span style=&quot;background-color: transparent; color: light-dark(rgb(0, 0, 0), rgb(255, 255, 255));&quot;&gt;well_id&amp;nbsp;&amp;nbsp;&lt;/span&gt;&lt;/li&gt;&lt;li&gt;callout_date&amp;nbsp;&amp;nbsp;&lt;/li&gt;&lt;li&gt;bh_temp&amp;nbsp;&amp;nbsp;&lt;/li&gt;&lt;/ol&gt;" style="shape=manualInput;whiteSpace=wrap;html=1;size=13;container=0;" parent="4_S4OtVxMJpCYMmJXR8L-62" vertex="1">
          <mxGeometry x="50" y="52.98999999999978" width="120" height="80" as="geometry" />
        </mxCell>
        <mxCell id="4_S4OtVxMJpCYMmJXR8L-53" value="&lt;font style=&quot;font-size: 18px;&quot;&gt;+&lt;/font&gt;" style="text;html=1;align=center;verticalAlign=middle;whiteSpace=wrap;rounded=0;container=0;" parent="4_S4OtVxMJpCYMmJXR8L-62" vertex="1">
          <mxGeometry x="378.5768421052626" y="78.82999999999947" width="37.278684210526315" height="30.00000000000004" as="geometry" />
        </mxCell>
        <mxCell id="4_S4OtVxMJpCYMmJXR8L-54" value="&lt;span style=&quot;font-size: 14px;&quot;&gt;&lt;b&gt;SRO_INPUT_TYPE#2&lt;/b&gt;&lt;/span&gt;" style="text;html=1;align=center;verticalAlign=middle;whiteSpace=wrap;rounded=0;container=0;" parent="4_S4OtVxMJpCYMmJXR8L-62" vertex="1">
          <mxGeometry y="6.369999999999891" width="170" height="30" as="geometry" />
        </mxCell>
        <mxCell id="4_S4OtVxMJpCYMmJXR8L-60" value="&lt;font style=&quot;font-size: 18px;&quot;&gt;+&lt;/font&gt;" style="text;html=1;align=center;verticalAlign=middle;whiteSpace=wrap;rounded=0;container=0;" parent="4_S4OtVxMJpCYMmJXR8L-62" vertex="1">
          <mxGeometry x="174.99684210526266" y="78.82999999999947" width="37.278684210526315" height="30.00000000000004" as="geometry" />
        </mxCell>
        <mxCell id="4_S4OtVxMJpCYMmJXR8L-61" value="&lt;span style=&quot;color: rgba(0, 0, 0, 0); font-family: monospace; font-size: 0px; text-align: start; text-wrap-mode: nowrap;&quot;&gt;%3CmxGraphModel%3E%3Croot%3E%3CmxCell%20id%3D%220%22%2F%3E%3CmxCell%20id%3D%221%22%20parent%3D%220%22%2F%3E%3CmxCell%20id%3D%222%22%20value%3D%22%22%20style%3D%22group%22%20vertex%3D%221%22%20connectable%3D%220%22%20parent%3D%221%22%3E%3CmxGeometry%20x%3D%224884%22%20y%3D%222619%22%20width%3D%22910%22%20height%3D%22193.98999999999978%22%20as%3D%22geometry%22%2F%3E%3C%2FmxCell%3E%3CmxCell%20id%3D%223%22%20value%3D%22%22%20style%3D%22shape%3Dnote%3BwhiteSpace%3Dwrap%3Bhtml%3D1%3BbackgroundOutline%3D1%3BdarkOpacity%3D0.05%3Bcontainer%3D0%3Bsize%3D15%3B%22%20vertex%3D%221%22%20parent%3D%222%22%3E%3CmxGeometry%20width%3D%22910%22%20height%3D%22193.99%22%20as%3D%22geometry%22%2F%3E%3C%2FmxCell%3E%3CmxCell%20id%3D%224%22%20value%3D%22%26lt%3Bol%20style%3D%26quot%3Btext-align%3A%20left%3B%26quot%3B%26gt%3B%26lt%3Bli%26gt%3B%26lt%3Bspan%20style%3D%26quot%3Bbackground-color%3A%20transparent%3B%20color%3A%20light-dark(rgb(0%2C%200%2C%200)%2C%20rgb(255%2C%20255%2C%20255))%3B%26quot%3B%26gt%3Bwell_id%26amp%3Bnbsp%3B%26amp%3Bnbsp%3B%26lt%3B%2Fspan%26gt%3B%26lt%3B%2Fli%26gt%3B%26lt%3Bli%26gt%3Bcallout_date%26amp%3Bnbsp%3B%26amp%3Bnbsp%3B%26lt%3B%2Fli%26gt%3B%26lt%3Bli%26gt%3Bbh_temp%26amp%3Bnbsp%3B%26amp%3Bnbsp%3B%26lt%3B%2Fli%26gt%3B%26lt%3B%2Fol%26gt%3B%22%20style%3D%22shape%3DmanualInput%3BwhiteSpace%3Dwrap%3Bhtml%3D1%3Bsize%3D13%3B%22%20vertex%3D%221%22%20parent%3D%222%22%3E%3CmxGeometry%20x%3D%2250%22%20y%3D%2252.98999999999978%22%20width%3D%22120%22%20height%3D%2280%22%20as%3D%22geometry%22%2F%3E%3C%2FmxCell%3E%3CmxCell%20id%3D%225%22%20value%3D%22%26lt%3Bol%26gt%3B%26lt%3Bli%26gt%3B%26lt%3Bspan%20style%3D%26quot%3Bbackground-color%3A%20transparent%3B%20color%3A%20light-dark(rgb(0%2C%200%2C%200)%2C%20rgb(255%2C%20255%2C%20255))%3B%26quot%3B%26gt%3BCALLOUT_INFORMATION%26lt%3B%2Fspan%26gt%3B%26lt%3B%2Fli%26gt%3B%26lt%3B%2Fol%26gt%3B%22%20style%3D%22shape%3DmanualInput%3BwhiteSpace%3Dwrap%3Bhtml%3D1%3Bsize%3D27%3Balign%3Dleft%3B%22%20vertex%3D%221%22%20parent%3D%222%22%3E%3CmxGeometry%20x%3D%22213%22%20y%3D%2254.98999999999978%22%20width%3D%22207%22%20height%3D%2279%22%20as%3D%22geometry%22%2F%3E%3C%2FmxCell%3E%3CmxCell%20id%3D%226%22%20value%3D%22%26lt%3Bfont%20style%3D%26quot%3Bfont-size%3A%2018px%3B%26quot%3B%26gt%3B%2B%26lt%3B%2Ffont%26gt%3B%22%20style%3D%22text%3Bhtml%3D1%3Balign%3Dcenter%3BverticalAlign%3Dmiddle%3BwhiteSpace%3Dwrap%3Brounded%3D0%3Bcontainer%3D0%3B%22%20vertex%3D%221%22%20parent%3D%222%22%3E%3CmxGeometry%20x%3D%22419.99684210526266%22%20y%3D%2278.82999999999947%22%20width%3D%2237.278684210526315%22%20height%3D%2230.00000000000004%22%20as%3D%22geometry%22%2F%3E%3C%2FmxCell%3E%3CmxCell%20id%3D%227%22%20value%3D%22%26lt%3Bspan%20style%3D%26quot%3Bfont-size%3A%2014px%3B%26quot%3B%26gt%3B%26lt%3Bb%26gt%3BSRO_INPUT_TYPE%233%26lt%3B%2Fb%26gt%3B%26lt%3B%2Fspan%26gt%3B%22%20style%3D%22text%3Bhtml%3D1%3Balign%3Dcenter%3BverticalAlign%3Dmiddle%3BwhiteSpace%3Dwrap%3Brounded%3D0%3Bcontainer%3D0%3B%22%20vertex%3D%221%22%20parent%3D%222%22%3E%3CmxGeometry%20y%3D%226.369999999999891%22%20width%3D%22170%22%20height%3D%2230%22%20as%3D%22geometry%22%2F%3E%3C%2FmxCell%3E%3CmxCell%20id%3D%228%22%20value%3D%22%22%20style%3D%22group%22%20vertex%3D%221%22%20connectable%3D%220%22%20parent%3D%222%22%3E%3CmxGeometry%20x%3D%22457.27999999999975%22%20y%3D%2230%22%20width%3D%22422.72%22%20height%3D%22143%22%20as%3D%22geometry%22%2F%3E%3C%2FmxCell%3E%3CmxCell%20id%3D%229%22%20value%3D%22%22%20style%3D%22shape%3Dnote%3BwhiteSpace%3Dwrap%3Bhtml%3D1%3BbackgroundOutline%3D1%3BdarkOpacity%3D0.05%3Bsize%3D10%3B%22%20vertex%3D%221%22%20parent%3D%228%22%3E%3CmxGeometry%20width%3D%22422.7200000000001%22%20height%3D%22143%22%20as%3D%22geometry%22%2F%3E%3C%2FmxCell%3E%3CmxCell%20id%3D%2210%22%20value%3D%22%26lt%3Bspan%20style%3D%26quot%3Btext-align%3A%20left%3B%26quot%3B%26gt%3BIMPORTED%20FORCAST_INFORMATION%26lt%3B%2Fspan%26gt%3B%22%20style%3D%22shape%3Dnote%3BwhiteSpace%3Dwrap%3Bhtml%3D1%3BbackgroundOutline%3D1%3BdarkOpacity%3D0.05%3Bsize%3D11%3Bcontainer%3D0%3B%22%20vertex%3D%221%22%20parent%3D%228%22%3E%3CmxGeometry%20x%3D%2211.42%22%20y%3D%2232.78%22%20width%3D%22158.58%22%20height%3D%2256.45%22%20as%3D%22geometry%22%2F%3E%3C%2FmxCell%3E%3CmxCell%20id%3D%2211%22%20value%3D%22%26lt%3Bfont%20style%3D%26quot%3Bfont-size%3A%2018px%3B%26quot%3B%26gt%3B-%26lt%3B%2Ffont%26gt%3B%22%20style%3D%22text%3Bhtml%3D1%3Balign%3Dcenter%3BverticalAlign%3Dmiddle%3BwhiteSpace%3Dwrap%3Brounded%3D0%3Bcontainer%3D0%3B%22%20vertex%3D%221%22%20parent%3D%228%22%3E%3CmxGeometry%20x%3D%22169.3965720472621%22%20y%3D%2248.00999999999976%22%20width%3D%2242.59039294452347%22%20height%3D%2230.00000000000004%22%20as%3D%22geometry%22%2F%3E%3C%2FmxCell%3E%3CmxCell%20id%3D%2212%22%20value%3D%22%26lt%3Bol%26gt%3B%26lt%3Bli%26gt%3B%26lt%3Bspan%20style%3D%26quot%3Bbackground-color%3A%20transparent%3B%20color%3A%20light-dark(rgb(0%2C%200%2C%200)%2C%20rgb(255%2C%20255%2C%20255))%3B%26quot%3B%26gt%3Bearliest_date%26lt%3B%2Fspan%26gt%3B%26lt%3B%2Fli%26gt%3B%26lt%3Bli%26gt%3Bexpected_job_days%26lt%3B%2Fli%26gt%3B%26lt%3Bli%26gt%3BdhT_expected%26lt%3B%2Fli%26gt%3B%26lt%3Bli%26gt%3Bexpected_revenue%26lt%3B%2Fli%26gt%3B%26lt%3Bli%26gt%3Bconfidence%26lt%3B%2Fli%26gt%3B%26lt%3B%2Fol%26gt%3B%22%20style%3D%22shape%3Dnote%3BwhiteSpace%3Dwrap%3Bhtml%3D1%3BbackgroundOutline%3D1%3BdarkOpacity%3D0.05%3Balign%3Dleft%3Bsize%3D14%3Bcontainer%3D0%3B%22%20vertex%3D%221%22%20parent%3D%228%22%3E%3CmxGeometry%20x%3D%22212.78470833703759%22%20y%3D%2221.000000000000455%22%20width%3D%22194.69893917496447%22%20height%3D%22100.99000000000012%22%20as%3D%22geometry%22%2F%3E%3C%2FmxCell%3E%3CmxCell%20id%3D%2213%22%20value%3D%22%26lt%3Bfont%20style%3D%26quot%3Bfont-size%3A%2018px%3B%26quot%3B%26gt%3B%2B%26lt%3B%2Ffont%26gt%3B%22%20style%3D%22text%3Bhtml%3D1%3Balign%3Dcenter%3BverticalAlign%3Dmiddle%3BwhiteSpace%3Dwrap%3Brounded%3D0%3Bcontainer%3D0%3B%22%20vertex%3D%221%22%20parent%3D%222%22%3E%3CmxGeometry%20x%3D%22174.99684210526266%22%20y%3D%2278.82999999999947%22%20width%3D%2237.278684210526315%22%20height%3D%2230.00000000000004%22%20as%3D%22geometry%22%2F%3E%3C%2FmxCell%3E%3C%2Froot%3E%3C%2FmxGraphModel%3E&lt;/span&gt;&lt;span style=&quot;text-align: left;&quot;&gt;IMPORTED CALLOUT_INFORMATION&lt;/span&gt;" style="shape=note;whiteSpace=wrap;html=1;backgroundOutline=1;darkOpacity=0.05;size=11;container=0;" parent="4_S4OtVxMJpCYMmJXR8L-62" vertex="1">
          <mxGeometry x="220" y="64.76000000000022" width="158.58" height="56.45" as="geometry" />
        </mxCell>
        <mxCell id="4_S4OtVxMJpCYMmJXR8L-56" value="" style="shape=note;whiteSpace=wrap;html=1;backgroundOutline=1;darkOpacity=0.05;size=10;container=0;" parent="4_S4OtVxMJpCYMmJXR8L-62" vertex="1">
          <mxGeometry x="420" y="30" width="422.7200000000001" height="143" as="geometry" />
        </mxCell>
        <mxCell id="4_S4OtVxMJpCYMmJXR8L-57" value="&lt;span style=&quot;color: rgba(0, 0, 0, 0); font-family: monospace; font-size: 0px; text-align: start; text-wrap-mode: nowrap;&quot;&gt;%3CmxGraphModel%3E%3Croot%3E%3CmxCell%20id%3D%220%22%2F%3E%3CmxCell%20id%3D%221%22%20parent%3D%220%22%2F%3E%3CmxCell%20id%3D%222%22%20value%3D%22%22%20style%3D%22group%22%20vertex%3D%221%22%20connectable%3D%220%22%20parent%3D%221%22%3E%3CmxGeometry%20x%3D%224884%22%20y%3D%222619%22%20width%3D%22910%22%20height%3D%22193.98999999999978%22%20as%3D%22geometry%22%2F%3E%3C%2FmxCell%3E%3CmxCell%20id%3D%223%22%20value%3D%22%22%20style%3D%22shape%3Dnote%3BwhiteSpace%3Dwrap%3Bhtml%3D1%3BbackgroundOutline%3D1%3BdarkOpacity%3D0.05%3Bcontainer%3D0%3Bsize%3D15%3B%22%20vertex%3D%221%22%20parent%3D%222%22%3E%3CmxGeometry%20width%3D%22910%22%20height%3D%22193.99%22%20as%3D%22geometry%22%2F%3E%3C%2FmxCell%3E%3CmxCell%20id%3D%224%22%20value%3D%22%26lt%3Bol%20style%3D%26quot%3Btext-align%3A%20left%3B%26quot%3B%26gt%3B%26lt%3Bli%26gt%3B%26lt%3Bspan%20style%3D%26quot%3Bbackground-color%3A%20transparent%3B%20color%3A%20light-dark(rgb(0%2C%200%2C%200)%2C%20rgb(255%2C%20255%2C%20255))%3B%26quot%3B%26gt%3Bwell_id%26amp%3Bnbsp%3B%26amp%3Bnbsp%3B%26lt%3B%2Fspan%26gt%3B%26lt%3B%2Fli%26gt%3B%26lt%3Bli%26gt%3Bcallout_date%26amp%3Bnbsp%3B%26amp%3Bnbsp%3B%26lt%3B%2Fli%26gt%3B%26lt%3Bli%26gt%3Bbh_temp%26amp%3Bnbsp%3B%26amp%3Bnbsp%3B%26lt%3B%2Fli%26gt%3B%26lt%3B%2Fol%26gt%3B%22%20style%3D%22shape%3DmanualInput%3BwhiteSpace%3Dwrap%3Bhtml%3D1%3Bsize%3D13%3B%22%20vertex%3D%221%22%20parent%3D%222%22%3E%3CmxGeometry%20x%3D%2250%22%20y%3D%2252.98999999999978%22%20width%3D%22120%22%20height%3D%2280%22%20as%3D%22geometry%22%2F%3E%3C%2FmxCell%3E%3CmxCell%20id%3D%225%22%20value%3D%22%26lt%3Bol%26gt%3B%26lt%3Bli%26gt%3B%26lt%3Bspan%20style%3D%26quot%3Bbackground-color%3A%20transparent%3B%20color%3A%20light-dark(rgb(0%2C%200%2C%200)%2C%20rgb(255%2C%20255%2C%20255))%3B%26quot%3B%26gt%3BCALLOUT_INFORMATION%26lt%3B%2Fspan%26gt%3B%26lt%3B%2Fli%26gt%3B%26lt%3B%2Fol%26gt%3B%22%20style%3D%22shape%3DmanualInput%3BwhiteSpace%3Dwrap%3Bhtml%3D1%3Bsize%3D27%3Balign%3Dleft%3B%22%20vertex%3D%221%22%20parent%3D%222%22%3E%3CmxGeometry%20x%3D%22213%22%20y%3D%2254.98999999999978%22%20width%3D%22207%22%20height%3D%2279%22%20as%3D%22geometry%22%2F%3E%3C%2FmxCell%3E%3CmxCell%20id%3D%226%22%20value%3D%22%26lt%3Bfont%20style%3D%26quot%3Bfont-size%3A%2018px%3B%26quot%3B%26gt%3B%2B%26lt%3B%2Ffont%26gt%3B%22%20style%3D%22text%3Bhtml%3D1%3Balign%3Dcenter%3BverticalAlign%3Dmiddle%3BwhiteSpace%3Dwrap%3Brounded%3D0%3Bcontainer%3D0%3B%22%20vertex%3D%221%22%20parent%3D%222%22%3E%3CmxGeometry%20x%3D%22419.99684210526266%22%20y%3D%2278.82999999999947%22%20width%3D%2237.278684210526315%22%20height%3D%2230.00000000000004%22%20as%3D%22geometry%22%2F%3E%3C%2FmxCell%3E%3CmxCell%20id%3D%227%22%20value%3D%22%26lt%3Bspan%20style%3D%26quot%3Bfont-size%3A%2014px%3B%26quot%3B%26gt%3B%26lt%3Bb%26gt%3BSRO_INPUT_TYPE%233%26lt%3B%2Fb%26gt%3B%26lt%3B%2Fspan%26gt%3B%22%20style%3D%22text%3Bhtml%3D1%3Balign%3Dcenter%3BverticalAlign%3Dmiddle%3BwhiteSpace%3Dwrap%3Brounded%3D0%3Bcontainer%3D0%3B%22%20vertex%3D%221%22%20parent%3D%222%22%3E%3CmxGeometry%20y%3D%226.369999999999891%22%20width%3D%22170%22%20height%3D%2230%22%20as%3D%22geometry%22%2F%3E%3C%2FmxCell%3E%3CmxCell%20id%3D%228%22%20value%3D%22%22%20style%3D%22group%22%20vertex%3D%221%22%20connectable%3D%220%22%20parent%3D%222%22%3E%3CmxGeometry%20x%3D%22457.27999999999975%22%20y%3D%2230%22%20width%3D%22422.72%22%20height%3D%22143%22%20as%3D%22geometry%22%2F%3E%3C%2FmxCell%3E%3CmxCell%20id%3D%229%22%20value%3D%22%22%20style%3D%22shape%3Dnote%3BwhiteSpace%3Dwrap%3Bhtml%3D1%3BbackgroundOutline%3D1%3BdarkOpacity%3D0.05%3Bsize%3D10%3B%22%20vertex%3D%221%22%20parent%3D%228%22%3E%3CmxGeometry%20width%3D%22422.7200000000001%22%20height%3D%22143%22%20as%3D%22geometry%22%2F%3E%3C%2FmxCell%3E%3CmxCell%20id%3D%2210%22%20value%3D%22%26lt%3Bspan%20style%3D%26quot%3Btext-align%3A%20left%3B%26quot%3B%26gt%3BIMPORTED%20FORCAST_INFORMATION%26lt%3B%2Fspan%26gt%3B%22%20style%3D%22shape%3Dnote%3BwhiteSpace%3Dwrap%3Bhtml%3D1%3BbackgroundOutline%3D1%3BdarkOpacity%3D0.05%3Bsize%3D11%3Bcontainer%3D0%3B%22%20vertex%3D%221%22%20parent%3D%228%22%3E%3CmxGeometry%20x%3D%2211.42%22%20y%3D%2232.78%22%20width%3D%22158.58%22%20height%3D%2256.45%22%20as%3D%22geometry%22%2F%3E%3C%2FmxCell%3E%3CmxCell%20id%3D%2211%22%20value%3D%22%26lt%3Bfont%20style%3D%26quot%3Bfont-size%3A%2018px%3B%26quot%3B%26gt%3B-%26lt%3B%2Ffont%26gt%3B%22%20style%3D%22text%3Bhtml%3D1%3Balign%3Dcenter%3BverticalAlign%3Dmiddle%3BwhiteSpace%3Dwrap%3Brounded%3D0%3Bcontainer%3D0%3B%22%20vertex%3D%221%22%20parent%3D%228%22%3E%3CmxGeometry%20x%3D%22169.3965720472621%22%20y%3D%2248.00999999999976%22%20width%3D%2242.59039294452347%22%20height%3D%2230.00000000000004%22%20as%3D%22geometry%22%2F%3E%3C%2FmxCell%3E%3CmxCell%20id%3D%2212%22%20value%3D%22%26lt%3Bol%26gt%3B%26lt%3Bli%26gt%3B%26lt%3Bspan%20style%3D%26quot%3Bbackground-color%3A%20transparent%3B%20color%3A%20light-dark(rgb(0%2C%200%2C%200)%2C%20rgb(255%2C%20255%2C%20255))%3B%26quot%3B%26gt%3Bearliest_date%26lt%3B%2Fspan%26gt%3B%26lt%3B%2Fli%26gt%3B%26lt%3Bli%26gt%3Bexpected_job_days%26lt%3B%2Fli%26gt%3B%26lt%3Bli%26gt%3BdhT_expected%26lt%3B%2Fli%26gt%3B%26lt%3Bli%26gt%3Bexpected_revenue%26lt%3B%2Fli%26gt%3B%26lt%3Bli%26gt%3Bconfidence%26lt%3B%2Fli%26gt%3B%26lt%3B%2Fol%26gt%3B%22%20style%3D%22shape%3Dnote%3BwhiteSpace%3Dwrap%3Bhtml%3D1%3BbackgroundOutline%3D1%3BdarkOpacity%3D0.05%3Balign%3Dleft%3Bsize%3D14%3Bcontainer%3D0%3B%22%20vertex%3D%221%22%20parent%3D%228%22%3E%3CmxGeometry%20x%3D%22212.78470833703759%22%20y%3D%2221.000000000000455%22%20width%3D%22194.69893917496447%22%20height%3D%22100.99000000000012%22%20as%3D%22geometry%22%2F%3E%3C%2FmxCell%3E%3CmxCell%20id%3D%2213%22%20value%3D%22%26lt%3Bfont%20style%3D%26quot%3Bfont-size%3A%2018px%3B%26quot%3B%26gt%3B%2B%26lt%3B%2Ffont%26gt%3B%22%20style%3D%22text%3Bhtml%3D1%3Balign%3Dcenter%3BverticalAlign%3Dmiddle%3BwhiteSpace%3Dwrap%3Brounded%3D0%3Bcontainer%3D0%3B%22%20vertex%3D%221%22%20parent%3D%222%22%3E%3CmxGeometry%20x%3D%22174.99684210526266%22%20y%3D%2278.82999999999947%22%20width%3D%2237.278684210526315%22%20height%3D%2230.00000000000004%22%20as%3D%22geometry%22%2F%3E%3C%2FmxCell%3E%3C%2Froot%3E%3C%2FmxGraphModel%3E&lt;/span&gt;&lt;span style=&quot;text-align: left;&quot;&gt;IMPORTED FORCAST_INFORMATION&lt;/span&gt;" style="shape=note;whiteSpace=wrap;html=1;backgroundOutline=1;darkOpacity=0.05;size=11;container=0;" parent="4_S4OtVxMJpCYMmJXR8L-62" vertex="1">
          <mxGeometry x="431.4200000000001" y="62.7800000000002" width="158.58" height="56.45" as="geometry" />
        </mxCell>
        <mxCell id="4_S4OtVxMJpCYMmJXR8L-58" value="&lt;font style=&quot;font-size: 18px;&quot;&gt;-&lt;/font&gt;" style="text;html=1;align=center;verticalAlign=middle;whiteSpace=wrap;rounded=0;container=0;" parent="4_S4OtVxMJpCYMmJXR8L-62" vertex="1">
          <mxGeometry x="589.3965720472625" y="78.00999999999976" width="42.59039294452347" height="30.00000000000004" as="geometry" />
        </mxCell>
        <mxCell id="4_S4OtVxMJpCYMmJXR8L-59" value="&lt;ol&gt;&lt;li&gt;&lt;span style=&quot;background-color: transparent; color: light-dark(rgb(0, 0, 0), rgb(255, 255, 255));&quot;&gt;earliest_date&lt;/span&gt;&lt;/li&gt;&lt;li&gt;expected_job_days&lt;/li&gt;&lt;li&gt;dhT_expected&lt;/li&gt;&lt;li&gt;expected_revenue&lt;/li&gt;&lt;li&gt;confidence&lt;/li&gt;&lt;/ol&gt;" style="shape=note;whiteSpace=wrap;html=1;backgroundOutline=1;darkOpacity=0.05;align=left;size=14;container=0;" parent="4_S4OtVxMJpCYMmJXR8L-62" vertex="1">
          <mxGeometry x="632.784708337038" y="51.000000000000455" width="194.69893917496447" height="100.99000000000012" as="geometry" />
        </mxCell>
        <mxCell id="4_S4OtVxMJpCYMmJXR8L-63" value="" style="endArrow=none;dashed=1;html=1;dashPattern=1 3;strokeWidth=2;rounded=0;exitX=0;exitY=0;exitDx=870;exitDy=104.495;exitPerimeter=0;entryX=0;entryY=1;entryDx=0;entryDy=0;" parent="1" source="4_S4OtVxMJpCYMmJXR8L-50" target="4_S4OtVxMJpCYMmJXR8L-36" edge="1">
          <mxGeometry width="50" height="50" relative="1" as="geometry">
            <mxPoint x="5417" y="2109.51" as="sourcePoint" />
            <mxPoint x="5703" y="1876.5100000000002" as="targetPoint" />
            <Array as="points">
              <mxPoint x="5420" y="1975" />
              <mxPoint x="5760" y="1965" />
            </Array>
          </mxGeometry>
        </mxCell>
        <mxCell id="4_S4OtVxMJpCYMmJXR8L-64" value="" style="group" parent="1" vertex="1" connectable="0">
          <mxGeometry x="6463" y="3075" width="460" height="1386.99" as="geometry" />
        </mxCell>
        <mxCell id="4_S4OtVxMJpCYMmJXR8L-65" value="&lt;ol&gt;&lt;li&gt;&lt;span style=&quot;background-color: transparent; color: light-dark(rgb(0, 0, 0), rgb(255, 255, 255));&quot;&gt;SRO#&lt;/span&gt;&lt;/li&gt;&lt;li&gt;&lt;span style=&quot;background-color: transparent; color: light-dark(rgb(0, 0, 0), rgb(255, 255, 255));&quot;&gt;well_id&amp;nbsp;&amp;nbsp;&lt;/span&gt;&lt;/li&gt;&lt;li&gt;callout_date&amp;nbsp;&amp;nbsp;&lt;/li&gt;&lt;li&gt;bh_temp&amp;nbsp;&amp;nbsp;&lt;br&gt;&lt;/li&gt;&lt;li&gt;&lt;div style=&quot;background-color: transparent; color: light-dark(rgb(0, 0, 0), rgb(255, 255, 255)); display: inline !important;&quot;&gt;client&lt;/div&gt;&lt;/li&gt;&lt;li&gt;customer&lt;/li&gt;&lt;li&gt;cluster&lt;/li&gt;&lt;li&gt;client_tree[we_team]&lt;/li&gt;&lt;li&gt;rig&lt;/li&gt;&lt;li&gt;wellno&lt;/li&gt;&lt;li&gt;latest_date&lt;/li&gt;&lt;li&gt;type_of_services&lt;/li&gt;&lt;li&gt;well_section&lt;br&gt;&lt;br&gt;&lt;br&gt;&lt;/li&gt;&lt;li&gt;&lt;span style=&quot;background-color: transparent; color: light-dark(rgb(0, 0, 0), rgb(255, 255, 255));&quot;&gt;General Information&lt;/span&gt;&lt;/li&gt;&lt;ol&gt;&lt;li&gt;&lt;span style=&quot;background-color: transparent; color: light-dark(rgb(0, 0, 0), rgb(255, 255, 255));&quot;&gt;customer&amp;nbsp;&amp;nbsp;&lt;/span&gt;&lt;/li&gt;&lt;li&gt;&lt;span style=&quot;background-color: transparent; color: light-dark(rgb(0, 0, 0), rgb(255, 255, 255));&quot;&gt;rig_number&amp;nbsp;&amp;nbsp;&lt;/span&gt;&lt;/li&gt;&lt;li&gt;&lt;span style=&quot;background-color: transparent; color: light-dark(rgb(0, 0, 0), rgb(255, 255, 255));&quot;&gt;well_name&amp;nbsp;&amp;nbsp;&lt;/span&gt;&lt;/li&gt;&lt;li&gt;&lt;span style=&quot;background-color: transparent; color: light-dark(rgb(0, 0, 0), rgb(255, 255, 255));&quot;&gt;hole_section&amp;nbsp;&amp;nbsp;&lt;/span&gt;&lt;/li&gt;&lt;li&gt;&lt;span style=&quot;background-color: transparent; color: light-dark(rgb(0, 0, 0), rgb(255, 255, 255));&quot;&gt;well_id&amp;nbsp;&amp;nbsp;&lt;/span&gt;&lt;/li&gt;&lt;li&gt;&lt;span style=&quot;background-color: transparent; color: light-dark(rgb(0, 0, 0), rgb(255, 255, 255));&quot;&gt;field_name&lt;br&gt;&lt;br&gt;&lt;br&gt;&lt;/span&gt;&lt;/li&gt;&lt;/ol&gt;&lt;li&gt;&lt;span style=&quot;background-color: transparent; color: light-dark(rgb(0, 0, 0), rgb(255, 255, 255));&quot;&gt;Type of Service Required&lt;/span&gt;&lt;/li&gt;&lt;ol&gt;&lt;li&gt;&lt;span style=&quot;background-color: transparent; color: light-dark(rgb(0, 0, 0), rgb(255, 255, 255));&quot;&gt;wireline_gyro_survey or memory_gyro_survey&lt;br&gt;&lt;br&gt;&lt;br&gt;&lt;/span&gt;&lt;/li&gt;&lt;/ol&gt;&lt;li&gt;&lt;span style=&quot;background-color: transparent; color: light-dark(rgb(0, 0, 0), rgb(255, 255, 255));&quot;&gt;Well Information&lt;/span&gt;&lt;/li&gt;&lt;ol&gt;&lt;li&gt;&lt;span style=&quot;background-color: transparent; color: light-dark(rgb(0, 0, 0), rgb(255, 255, 255));&quot;&gt;latitude_degrees&amp;nbsp;&amp;nbsp;&lt;/span&gt;&lt;/li&gt;&lt;li&gt;&lt;span style=&quot;background-color: transparent; color: light-dark(rgb(0, 0, 0), rgb(255, 255, 255));&quot;&gt;latitude_minutes&amp;nbsp;&amp;nbsp;&lt;/span&gt;&lt;/li&gt;&lt;li&gt;&lt;span style=&quot;background-color: transparent; color: light-dark(rgb(0, 0, 0), rgb(255, 255, 255));&quot;&gt;latitude_seconds&amp;nbsp;&amp;nbsp;&lt;/span&gt;&lt;/li&gt;&lt;li&gt;&lt;span style=&quot;background-color: transparent; color: light-dark(rgb(0, 0, 0), rgb(255, 255, 255));&quot;&gt;latitude_direction&amp;nbsp;&lt;/span&gt;&lt;/li&gt;&lt;li&gt;&lt;span style=&quot;background-color: transparent; color: light-dark(rgb(0, 0, 0), rgb(255, 255, 255));&quot;&gt;longitude_degrees&amp;nbsp;&amp;nbsp;&lt;/span&gt;&lt;/li&gt;&lt;li&gt;&lt;span style=&quot;background-color: transparent; color: light-dark(rgb(0, 0, 0), rgb(255, 255, 255));&quot;&gt;longitude_minutes&amp;nbsp;&amp;nbsp;&lt;/span&gt;&lt;/li&gt;&lt;li&gt;&lt;span style=&quot;background-color: transparent; color: light-dark(rgb(0, 0, 0), rgb(255, 255, 255));&quot;&gt;longitude_seconds&amp;nbsp;&amp;nbsp;&lt;/span&gt;&lt;/li&gt;&lt;li&gt;&lt;span style=&quot;background-color: transparent; color: light-dark(rgb(0, 0, 0), rgb(255, 255, 255));&quot;&gt;longitude_direction&lt;/span&gt;&lt;/li&gt;&lt;li&gt;&lt;span style=&quot;background-color: transparent; color: light-dark(rgb(0, 0, 0), rgb(255, 255, 255));&quot;&gt;northing_value&amp;nbsp;&amp;nbsp;&lt;/span&gt;&lt;/li&gt;&lt;li&gt;&lt;span style=&quot;background-color: transparent; color: light-dark(rgb(0, 0, 0), rgb(255, 255, 255));&quot;&gt;northing_unit&amp;nbsp;&amp;nbsp;&lt;/span&gt;&lt;/li&gt;&lt;li&gt;&lt;span style=&quot;background-color: transparent; color: light-dark(rgb(0, 0, 0), rgb(255, 255, 255));&quot;&gt;northing_direction&amp;nbsp;&lt;/span&gt;&lt;/li&gt;&lt;li&gt;&lt;span style=&quot;background-color: transparent; color: light-dark(rgb(0, 0, 0), rgb(255, 255, 255));&quot;&gt;easting_value&amp;nbsp;&amp;nbsp;&lt;/span&gt;&lt;/li&gt;&lt;li&gt;&lt;span style=&quot;background-color: transparent; color: light-dark(rgb(0, 0, 0), rgb(255, 255, 255));&quot;&gt;easting_unit&amp;nbsp;&amp;nbsp;&lt;/span&gt;&lt;/li&gt;&lt;li&gt;&lt;span style=&quot;background-color: transparent; color: light-dark(rgb(0, 0, 0), rgb(255, 255, 255));&quot;&gt;easting_direction&amp;nbsp;&amp;nbsp;&lt;/span&gt;&lt;/li&gt;&lt;li&gt;&lt;span style=&quot;background-color: transparent; color: light-dark(rgb(0, 0, 0), rgb(255, 255, 255));&quot;&gt;casing_size&amp;nbsp;&amp;nbsp;&lt;/span&gt;&lt;/li&gt;&lt;li&gt;&lt;span style=&quot;background-color: transparent; color: light-dark(rgb(0, 0, 0), rgb(255, 255, 255));&quot;&gt;casing_unit&lt;/span&gt;&lt;/li&gt;&lt;li&gt;&lt;span style=&quot;background-color: transparent; color: light-dark(rgb(0, 0, 0), rgb(255, 255, 255));&quot;&gt;ground_elevation&amp;nbsp;&amp;nbsp;&lt;/span&gt;&lt;/li&gt;&lt;li&gt;&lt;span style=&quot;background-color: transparent; color: light-dark(rgb(0, 0, 0), rgb(255, 255, 255));&quot;&gt;ground_elevation_unit&amp;nbsp;&amp;nbsp;&lt;/span&gt;&lt;/li&gt;&lt;li&gt;&lt;span style=&quot;background-color: transparent; color: light-dark(rgb(0, 0, 0), rgb(255, 255, 255));&quot;&gt;well_profile&amp;nbsp;&amp;nbsp;&lt;/span&gt;&lt;/li&gt;&lt;li&gt;&lt;span style=&quot;background-color: transparent; color: light-dark(rgb(0, 0, 0), rgb(255, 255, 255));&quot;&gt;drillpipe_size_value&amp;nbsp;&amp;nbsp;&lt;/span&gt;&lt;/li&gt;&lt;li&gt;&lt;span style=&quot;background-color: transparent; color: light-dark(rgb(0, 0, 0), rgb(255, 255, 255));&quot;&gt;drillpipe_size_unit&amp;nbsp;&amp;nbsp;&lt;/span&gt;&lt;/li&gt;&lt;li&gt;&lt;span style=&quot;background-color: transparent; color: light-dark(rgb(0, 0, 0), rgb(255, 255, 255));&quot;&gt;drillpipe_size_direction&amp;nbsp;&amp;nbsp;&lt;/span&gt;&lt;/li&gt;&lt;li&gt;&lt;span style=&quot;background-color: transparent; color: light-dark(rgb(0, 0, 0), rgb(255, 255, 255));&quot;&gt;rig_floor_elevation_value&amp;nbsp;&amp;nbsp;&lt;/span&gt;&lt;/li&gt;&lt;li&gt;&lt;span style=&quot;background-color: transparent; color: light-dark(rgb(0, 0, 0), rgb(255, 255, 255));&quot;&gt;rig_floor_elevation_direction&amp;nbsp;&amp;nbsp;&lt;/span&gt;&lt;/li&gt;&lt;li&gt;&lt;span style=&quot;background-color: transparent; color: light-dark(rgb(0, 0, 0), rgb(255, 255, 255));&quot;&gt;max_down_hole_temp_value&amp;nbsp;&amp;nbsp;&lt;/span&gt;&lt;/li&gt;&lt;li&gt;&lt;span style=&quot;background-color: transparent; color: light-dark(rgb(0, 0, 0), rgb(255, 255, 255));&quot;&gt;max_down_hole_temp_unit&amp;nbsp;&amp;nbsp;&lt;/span&gt;&amp;nbsp;&lt;/li&gt;&lt;li&gt;&lt;span style=&quot;background-color: transparent; color: light-dark(rgb(0, 0, 0), rgb(255, 255, 255));&quot;&gt;minimum_id&amp;nbsp;&amp;nbsp;&lt;/span&gt;&lt;/li&gt;&lt;li&gt;&lt;span style=&quot;background-color: transparent; color: light-dark(rgb(0, 0, 0), rgb(255, 255, 255));&quot;&gt;minimum_id_unit&amp;nbsp;&amp;nbsp;&lt;/span&gt;&lt;/li&gt;&lt;li&gt;&lt;span style=&quot;background-color: transparent; color: light-dark(rgb(0, 0, 0), rgb(255, 255, 255));&quot;&gt;maximum_inclination&amp;nbsp;&amp;nbsp;&lt;/span&gt;&lt;/li&gt;&lt;li&gt;&lt;span style=&quot;background-color: transparent; color: light-dark(rgb(0, 0, 0), rgb(255, 255, 255));&quot;&gt;maximum_inclination_unit&amp;nbsp;&amp;nbsp;&lt;/span&gt;&lt;/li&gt;&lt;li&gt;&lt;span style=&quot;background-color: transparent; color: light-dark(rgb(0, 0, 0), rgb(255, 255, 255));&quot;&gt;h2s_level&lt;br&gt;&lt;br&gt;&lt;br&gt;&lt;/span&gt;&lt;/li&gt;&lt;/ol&gt;&lt;li&gt;&lt;span style=&quot;background-color: transparent; color: light-dark(rgb(0, 0, 0), rgb(255, 255, 255));&quot;&gt;Survey Information&lt;/span&gt;&lt;/li&gt;&lt;ol&gt;&lt;li&gt;&lt;span style=&quot;background-color: transparent; color: light-dark(rgb(0, 0, 0), rgb(255, 255, 255));&quot;&gt;survey_start_depth&amp;nbsp;&amp;nbsp;&lt;/span&gt;&lt;/li&gt;&lt;li&gt;&lt;span style=&quot;background-color: transparent; color: light-dark(rgb(0, 0, 0), rgb(255, 255, 255));&quot;&gt;survey_start_depth_unit&amp;nbsp;&amp;nbsp;&lt;/span&gt;&lt;/li&gt;&lt;li&gt;&lt;span style=&quot;background-color: transparent; color: light-dark(rgb(0, 0, 0), rgb(255, 255, 255));&quot;&gt;survey_end_depth&amp;nbsp;&amp;nbsp;&lt;/span&gt;&lt;/li&gt;&lt;li&gt;&lt;span style=&quot;background-color: transparent; color: light-dark(rgb(0, 0, 0), rgb(255, 255, 255));&quot;&gt;survey_end_depth_unit&amp;nbsp;&amp;nbsp;&lt;/span&gt;&lt;/li&gt;&lt;li&gt;&lt;span style=&quot;background-color: transparent; color: light-dark(rgb(0, 0, 0), rgb(255, 255, 255));&quot;&gt;survey_interval&amp;nbsp;&amp;nbsp;&lt;/span&gt;&lt;/li&gt;&lt;li&gt;&lt;span style=&quot;background-color: transparent; color: light-dark(rgb(0, 0, 0), rgb(255, 255, 255));&quot;&gt;survey_interval_unit&amp;nbsp;&amp;nbsp;&lt;/span&gt;&lt;/li&gt;&lt;li&gt;&lt;span style=&quot;background-color: transparent; color: light-dark(rgb(0, 0, 0), rgb(255, 255, 255));&quot;&gt;[whipstock_orientation_depth,&amp;nbsp;&lt;/span&gt;whipstock_orientation_depth_unit]&lt;br&gt;or&lt;br&gt;[motor_orientation_depth,&amp;nbsp;&lt;span style=&quot;background-color: transparent; color: light-dark(rgb(0, 0, 0), rgb(255, 255, 255));&quot;&gt;motor_orientation_depth_unit]&amp;nbsp;&lt;br&gt;&lt;/span&gt;or&lt;br&gt;[ubho_sub_size,&amp;nbsp;&amp;nbsp;&lt;span style=&quot;background-color: transparent; color: light-dark(rgb(0, 0, 0), rgb(255, 255, 255));&quot;&gt;connection_size,date_required_on_site]&amp;nbsp;&amp;nbsp;&lt;br&gt;&lt;/span&gt;or&amp;nbsp;&lt;br&gt;&lt;span style=&quot;background-color: transparent; color: light-dark(rgb(0, 0, 0), rgb(255, 255, 255));&quot;&gt;[side_entry_sub_size,&amp;nbsp;&lt;/span&gt;&lt;span style=&quot;background-color: transparent; color: light-dark(rgb(0, 0, 0), rgb(255, 255, 255));&quot;&gt;connection_size,&amp;nbsp;&lt;/span&gt;&lt;span style=&quot;background-color: transparent; color: light-dark(rgb(0, 0, 0), rgb(255, 255, 255));&quot;&gt;date_required_on_site]&amp;nbsp;&lt;br&gt;&lt;/span&gt;&lt;span style=&quot;background-color: transparent; color: light-dark(rgb(0, 0, 0), rgb(255, 255, 255));&quot;&gt;or&amp;nbsp;&lt;br&gt;&lt;/span&gt;&lt;span style=&quot;background-color: transparent; color: light-dark(rgb(0, 0, 0), rgb(255, 255, 255));&quot;&gt;[equipment_required_on_site_date, equipment_required_on_site_time]&amp;nbsp;&lt;br&gt;&lt;/span&gt;&lt;span style=&quot;background-color: transparent; color: light-dark(rgb(0, 0, 0), rgb(255, 255, 255));&quot;&gt;or&lt;br&gt;[crew_required_on_site_date,&amp;nbsp;&lt;/span&gt;&lt;span style=&quot;background-color: transparent; color: light-dark(rgb(0, 0, 0), rgb(255, 255, 255));&quot;&gt;crew_required_on_site_time]&amp;nbsp;&lt;br&gt;&lt;/span&gt;&lt;br&gt;&amp;nbsp;&lt;/li&gt;&lt;/ol&gt;&lt;li&gt;&lt;span style=&quot;background-color: transparent; color: light-dark(rgb(0, 0, 0), rgb(255, 255, 255));&quot;&gt;Contact Information &amp;amp; Comments&lt;/span&gt;&lt;/li&gt;&lt;ol&gt;&lt;li&gt;&lt;span style=&quot;background-color: transparent; color: light-dark(rgb(0, 0, 0), rgb(255, 255, 255));&quot;&gt;callout_completed_by&amp;nbsp;&amp;nbsp;&lt;/span&gt;&lt;/li&gt;&lt;li&gt;&lt;span style=&quot;background-color: transparent; color: light-dark(rgb(0, 0, 0), rgb(255, 255, 255));&quot;&gt;designation&amp;nbsp;&amp;nbsp;&lt;/span&gt;&lt;/li&gt;&lt;li&gt;&lt;span style=&quot;background-color: transparent; color: light-dark(rgb(0, 0, 0), rgb(255, 255, 255));&quot;&gt;contact_number&amp;nbsp;&amp;nbsp;&lt;/span&gt;&lt;/li&gt;&lt;li&gt;&lt;span style=&quot;background-color: transparent; color: light-dark(rgb(0, 0, 0), rgb(255, 255, 255));&quot;&gt;comments&amp;nbsp;&lt;br&gt;&lt;br&gt;&lt;/span&gt;&lt;/li&gt;&lt;/ol&gt;&lt;li&gt;estimated_depth&lt;br&gt;&lt;/li&gt;&lt;/ol&gt;" style="shape=note;whiteSpace=wrap;html=1;backgroundOutline=1;darkOpacity=0.05;align=left;size=18;" parent="4_S4OtVxMJpCYMmJXR8L-64" vertex="1">
          <mxGeometry width="460" height="1386.99" as="geometry" />
        </mxCell>
        <mxCell id="4_S4OtVxMJpCYMmJXR8L-66" value="&lt;b&gt;&lt;font style=&quot;font-size: 14px;&quot;&gt;CREATE SRO DOCUMENT&amp;nbsp;&lt;/font&gt;&lt;/b&gt;" style="text;html=1;align=center;verticalAlign=middle;whiteSpace=wrap;rounded=0;" parent="4_S4OtVxMJpCYMmJXR8L-64" vertex="1">
          <mxGeometry width="200" height="40" as="geometry" />
        </mxCell>
        <mxCell id="4_S4OtVxMJpCYMmJXR8L-67" value="" style="endArrow=none;dashed=1;html=1;dashPattern=1 3;strokeWidth=2;rounded=0;exitX=1;exitY=1;exitDx=0;exitDy=0;entryX=0;entryY=0.041;entryDx=0;entryDy=0;entryPerimeter=0;" parent="1" source="_S31PFsr-5n91dySAx23-73" target="4_S4OtVxMJpCYMmJXR8L-65" edge="1">
          <mxGeometry width="50" height="50" relative="1" as="geometry">
            <mxPoint x="6080" y="2073" as="sourcePoint" />
            <mxPoint x="6350" y="2565" as="targetPoint" />
            <Array as="points">
              <mxPoint x="6210" y="2145" />
              <mxPoint x="6370" y="2575" />
            </Array>
          </mxGeometry>
        </mxCell>
        <mxCell id="4_S4OtVxMJpCYMmJXR8L-74" value="" style="group" parent="1" vertex="1" connectable="0">
          <mxGeometry x="5050" y="2391" width="320" height="380" as="geometry" />
        </mxCell>
        <mxCell id="4_S4OtVxMJpCYMmJXR8L-69" value="&lt;div&gt;&lt;br&gt;&lt;/div&gt;" style="shape=note;whiteSpace=wrap;html=1;backgroundOutline=1;darkOpacity=0.05;align=left;container=0;size=16;" parent="4_S4OtVxMJpCYMmJXR8L-74" vertex="1">
          <mxGeometry width="320" height="380" as="geometry" />
        </mxCell>
        <mxCell id="4_S4OtVxMJpCYMmJXR8L-70" value="&lt;div style=&quot;text-align: left;&quot;&gt;&lt;span style=&quot;background-color: transparent; color: light-dark(rgb(0, 0, 0), rgb(255, 255, 255));&quot;&gt;CREATED_SRO_DOCUMENT_INFORMATION&lt;/span&gt;&lt;/div&gt;" style="shape=note;whiteSpace=wrap;html=1;backgroundOutline=1;darkOpacity=0.05;size=15;container=0;" parent="4_S4OtVxMJpCYMmJXR8L-74" vertex="1">
          <mxGeometry x="20" y="284.3699999999999" width="280" height="64.68" as="geometry" />
        </mxCell>
        <mxCell id="4_S4OtVxMJpCYMmJXR8L-71" value="&lt;font style=&quot;font-size: 18px;&quot;&gt;+&lt;/font&gt;" style="text;html=1;align=center;verticalAlign=middle;whiteSpace=wrap;rounded=0;container=0;" parent="4_S4OtVxMJpCYMmJXR8L-74" vertex="1">
          <mxGeometry x="136.36131578947425" y="244.00142857142782" width="37.278684210526315" height="34.371428571428616" as="geometry" />
        </mxCell>
        <mxCell id="4_S4OtVxMJpCYMmJXR8L-72" value="&lt;span style=&quot;font-size: 14px;&quot;&gt;&lt;b&gt;SS_INPUT_TYPE#1&lt;/b&gt;&lt;/span&gt;" style="text;html=1;align=center;verticalAlign=middle;whiteSpace=wrap;rounded=0;container=0;" parent="4_S4OtVxMJpCYMmJXR8L-74" vertex="1">
          <mxGeometry x="20" y="6.874285714285634" width="145" height="34.371428571428574" as="geometry" />
        </mxCell>
        <mxCell id="4_S4OtVxMJpCYMmJXR8L-73" value="&lt;ol&gt;&lt;li style=&quot;text-align: left;&quot;&gt;&lt;span style=&quot;background-color: transparent; color: light-dark(rgb(0, 0, 0), rgb(255, 255, 255));&quot;&gt;equipment_type&amp;nbsp;&amp;nbsp;&lt;/span&gt;&lt;/li&gt;&lt;li style=&quot;text-align: left;&quot;&gt;&lt;span style=&quot;background-color: transparent; color: light-dark(rgb(0, 0, 0), rgb(255, 255, 255));&quot;&gt;sensor_type&amp;nbsp;&amp;nbsp;&lt;/span&gt;&lt;/li&gt;&lt;li style=&quot;text-align: left;&quot;&gt;&lt;span style=&quot;background-color: transparent; color: light-dark(rgb(0, 0, 0), rgb(255, 255, 255));&quot;&gt;overall_complexity&amp;nbsp;&amp;nbsp;&lt;/span&gt;&lt;/li&gt;&lt;li style=&quot;text-align: left;&quot;&gt;&lt;span style=&quot;background-color: transparent; color: light-dark(rgb(0, 0, 0), rgb(255, 255, 255));&quot;&gt;priority_matrix&amp;nbsp;&amp;nbsp;&lt;/span&gt;&lt;/li&gt;&lt;li style=&quot;text-align: left;&quot;&gt;&lt;span style=&quot;background-color: transparent; color: light-dark(rgb(0, 0, 0), rgb(255, 255, 255));&quot;&gt;pre_ss_well_engineer_meeting_notes&lt;/span&gt;&lt;/li&gt;&lt;li style=&quot;text-align: left;&quot;&gt;&lt;span style=&quot;background-color: transparent; color: light-dark(rgb(0, 0, 0), rgb(255, 255, 255));&quot;&gt;pre_ss_well_engineer_meeting_date&lt;/span&gt;&lt;/li&gt;&lt;li style=&quot;text-align: left;&quot;&gt;&lt;span style=&quot;background-color: transparent; color: light-dark(rgb(0, 0, 0), rgb(255, 255, 255));&quot;&gt;pre_ss_well_engineer_meeting_attendee&lt;br&gt;&lt;/span&gt;&lt;/li&gt;&lt;/ol&gt;" style="shape=manualInput;whiteSpace=wrap;html=1;size=25;container=0;" parent="4_S4OtVxMJpCYMmJXR8L-74" vertex="1">
          <mxGeometry x="20" y="50.98" width="270" height="189.02" as="geometry" />
        </mxCell>
        <mxCell id="4_S4OtVxMJpCYMmJXR8L-94" value="" style="edgeStyle=orthogonalEdgeStyle;rounded=0;orthogonalLoop=1;jettySize=auto;html=1;" parent="1" source="4_S4OtVxMJpCYMmJXR8L-75" target="4_S4OtVxMJpCYMmJXR8L-77" edge="1">
          <mxGeometry relative="1" as="geometry" />
        </mxCell>
        <mxCell id="4_S4OtVxMJpCYMmJXR8L-75" value="SS_INPUT_TYPE#1" style="shape=parallelogram;perimeter=parallelogramPerimeter;whiteSpace=wrap;html=1;fixedSize=1;" parent="1" vertex="1">
          <mxGeometry x="5771.5" y="2194" width="172.5" height="60" as="geometry" />
        </mxCell>
        <mxCell id="4_S4OtVxMJpCYMmJXR8L-96" value="" style="edgeStyle=orthogonalEdgeStyle;rounded=0;orthogonalLoop=1;jettySize=auto;html=1;" parent="1" source="4_S4OtVxMJpCYMmJXR8L-77" target="4_S4OtVxMJpCYMmJXR8L-95" edge="1">
          <mxGeometry relative="1" as="geometry" />
        </mxCell>
        <mxCell id="4_S4OtVxMJpCYMmJXR8L-77" value="SCHEDULE A SERVICE" style="rounded=0;whiteSpace=wrap;html=1;gradientColor=default;gradientDirection=west;fillColor=none;" parent="1" vertex="1">
          <mxGeometry x="5770.5" y="2294" width="175" height="40" as="geometry" />
        </mxCell>
        <mxCell id="4_S4OtVxMJpCYMmJXR8L-89" style="edgeStyle=orthogonalEdgeStyle;rounded=0;orthogonalLoop=1;jettySize=auto;html=1;entryX=0.5;entryY=0;entryDx=0;entryDy=0;" parent="1" source="4_S4OtVxMJpCYMmJXR8L-79" target="_S31PFsr-5n91dySAx23-73" edge="1">
          <mxGeometry relative="1" as="geometry" />
        </mxCell>
        <mxCell id="4_S4OtVxMJpCYMmJXR8L-79" value="GENARATE&amp;nbsp;&lt;div&gt;A&amp;nbsp;&lt;/div&gt;&lt;div&gt;SRO#&lt;/div&gt;" style="shape=hexagon;perimeter=hexagonPerimeter2;whiteSpace=wrap;html=1;fixedSize=1;" parent="1" vertex="1">
          <mxGeometry x="6011.88" y="1975.5099999999998" width="120.75" height="76.99" as="geometry" />
        </mxCell>
        <mxCell id="4_S4OtVxMJpCYMmJXR8L-92" value="" style="endArrow=none;dashed=1;html=1;dashPattern=1 3;strokeWidth=2;rounded=0;exitX=0;exitY=0.5;exitDx=0;exitDy=0;entryX=0.991;entryY=0.146;entryDx=0;entryDy=0;entryPerimeter=0;" parent="1" source="4_S4OtVxMJpCYMmJXR8L-75" target="4_S4OtVxMJpCYMmJXR8L-69" edge="1">
          <mxGeometry width="50" height="50" relative="1" as="geometry">
            <mxPoint x="5610" y="2305" as="sourcePoint" />
            <mxPoint x="5900" y="2783" as="targetPoint" />
            <Array as="points">
              <mxPoint x="5720" y="2224" />
              <mxPoint x="5440" y="2435" />
            </Array>
          </mxGeometry>
        </mxCell>
        <mxCell id="Ebkc2lEhbZJfKZlsMFm7-1" value="" style="edgeStyle=orthogonalEdgeStyle;rounded=0;orthogonalLoop=1;jettySize=auto;html=1;" parent="1" source="4_S4OtVxMJpCYMmJXR8L-95" target="4_S4OtVxMJpCYMmJXR8L-98" edge="1">
          <mxGeometry relative="1" as="geometry" />
        </mxCell>
        <mxCell id="4_S4OtVxMJpCYMmJXR8L-95" value="VERIFY INFORMATION WITH CLIENT &amp;amp; UPDATE" style="rounded=0;whiteSpace=wrap;html=1;" parent="1" vertex="1">
          <mxGeometry x="5768" y="2373" width="180" height="40" as="geometry" />
        </mxCell>
        <mxCell id="Ebkc2lEhbZJfKZlsMFm7-2" value="" style="edgeStyle=orthogonalEdgeStyle;rounded=0;orthogonalLoop=1;jettySize=auto;html=1;" parent="1" source="8LUOJkQWkGuEzwJekBbw-1" target="4_S4OtVxMJpCYMmJXR8L-99" edge="1">
          <mxGeometry relative="1" as="geometry" />
        </mxCell>
        <mxCell id="4_S4OtVxMJpCYMmJXR8L-98" value="GENARATE&amp;nbsp;&lt;div&gt;A&amp;nbsp;&lt;/div&gt;&lt;div&gt;JOB#&lt;/div&gt;" style="shape=hexagon;perimeter=hexagonPerimeter2;whiteSpace=wrap;html=1;fixedSize=1;" parent="1" vertex="1">
          <mxGeometry x="5797.37" y="2445" width="120.75" height="76.99" as="geometry" />
        </mxCell>
        <mxCell id="Ebkc2lEhbZJfKZlsMFm7-4" value="" style="edgeStyle=orthogonalEdgeStyle;rounded=0;orthogonalLoop=1;jettySize=auto;html=1;" parent="1" source="4_S4OtVxMJpCYMmJXR8L-99" target="Ebkc2lEhbZJfKZlsMFm7-3" edge="1">
          <mxGeometry relative="1" as="geometry" />
        </mxCell>
        <mxCell id="4_S4OtVxMJpCYMmJXR8L-99" value="ASSIGN COST CENTERS&lt;div&gt;ASSIGN PERSONAL&lt;/div&gt;&lt;div&gt;ASSIGN ASSETS&lt;/div&gt;" style="rounded=0;whiteSpace=wrap;html=1;" parent="1" vertex="1">
          <mxGeometry x="5767.5" y="2656" width="180" height="59" as="geometry" />
        </mxCell>
        <mxCell id="Ebkc2lEhbZJfKZlsMFm7-23" value="" style="edgeStyle=orthogonalEdgeStyle;rounded=0;orthogonalLoop=1;jettySize=auto;html=1;" parent="1" source="Ebkc2lEhbZJfKZlsMFm7-3" target="Ebkc2lEhbZJfKZlsMFm7-22" edge="1">
          <mxGeometry relative="1" as="geometry" />
        </mxCell>
        <mxCell id="Ebkc2lEhbZJfKZlsMFm7-3" value="ASSIGN A SERVICE" style="rounded=0;whiteSpace=wrap;html=1;gradientColor=default;gradientDirection=west;fillColor=none;" parent="1" vertex="1">
          <mxGeometry x="5770.5" y="2762.5" width="175" height="40" as="geometry" />
        </mxCell>
        <mxCell id="Ebkc2lEhbZJfKZlsMFm7-5" value="" style="group" parent="1" vertex="1" connectable="0">
          <mxGeometry x="5034" y="2835" width="320" height="380" as="geometry" />
        </mxCell>
        <mxCell id="Ebkc2lEhbZJfKZlsMFm7-12" value="" style="group" parent="Ebkc2lEhbZJfKZlsMFm7-5" vertex="1" connectable="0">
          <mxGeometry x="16" y="-20" width="320" height="360" as="geometry" />
        </mxCell>
        <mxCell id="Ebkc2lEhbZJfKZlsMFm7-6" value="&lt;div&gt;&lt;br&gt;&lt;/div&gt;" style="shape=note;whiteSpace=wrap;html=1;backgroundOutline=1;darkOpacity=0.05;align=left;container=0;size=16;" parent="Ebkc2lEhbZJfKZlsMFm7-12" vertex="1">
          <mxGeometry width="320" height="360" as="geometry" />
        </mxCell>
        <mxCell id="Ebkc2lEhbZJfKZlsMFm7-7" value="&lt;div style=&quot;text-align: left;&quot;&gt;&lt;span style=&quot;background-color: transparent; color: light-dark(rgb(0, 0, 0), rgb(255, 255, 255));&quot;&gt;CREATED_SRO_DOCUMENT_INFORMATION&lt;/span&gt;&lt;/div&gt;" style="shape=note;whiteSpace=wrap;html=1;backgroundOutline=1;darkOpacity=0.05;size=15;container=0;" parent="Ebkc2lEhbZJfKZlsMFm7-12" vertex="1">
          <mxGeometry x="20" y="264.3699999999999" width="280" height="64.68" as="geometry" />
        </mxCell>
        <mxCell id="Ebkc2lEhbZJfKZlsMFm7-8" value="&lt;font style=&quot;font-size: 18px;&quot;&gt;+&lt;/font&gt;" style="text;html=1;align=center;verticalAlign=middle;whiteSpace=wrap;rounded=0;container=0;" parent="Ebkc2lEhbZJfKZlsMFm7-12" vertex="1">
          <mxGeometry x="136.36131578947425" y="215.00142857142782" width="37.278684210526315" height="34.371428571428616" as="geometry" />
        </mxCell>
        <mxCell id="Ebkc2lEhbZJfKZlsMFm7-9" value="&lt;span style=&quot;font-size: 14px;&quot;&gt;&lt;b&gt;SCHEDULED_SERVICE&lt;/b&gt;&lt;/span&gt;" style="text;html=1;align=center;verticalAlign=middle;whiteSpace=wrap;rounded=0;container=0;" parent="Ebkc2lEhbZJfKZlsMFm7-12" vertex="1">
          <mxGeometry x="12" y="11.870000000000001" width="170" height="34.37" as="geometry" />
        </mxCell>
        <mxCell id="Ebkc2lEhbZJfKZlsMFm7-11" value="&lt;div style=&quot;text-align: left;&quot;&gt;&lt;ol style=&quot;text-align: center;&quot;&gt;&lt;li style=&quot;text-align: left;&quot;&gt;&lt;span style=&quot;background-color: transparent; color: light-dark(rgb(0, 0, 0), rgb(255, 255, 255));&quot;&gt;equipment_type&amp;nbsp;&amp;nbsp;&lt;/span&gt;&lt;/li&gt;&lt;li style=&quot;text-align: left;&quot;&gt;&lt;span style=&quot;background-color: transparent; color: light-dark(rgb(0, 0, 0), rgb(255, 255, 255));&quot;&gt;sensor_type&amp;nbsp;&amp;nbsp;&lt;/span&gt;&lt;/li&gt;&lt;li style=&quot;text-align: left;&quot;&gt;&lt;span style=&quot;background-color: transparent; color: light-dark(rgb(0, 0, 0), rgb(255, 255, 255));&quot;&gt;overall_complexity&amp;nbsp;&amp;nbsp;&lt;/span&gt;&lt;/li&gt;&lt;li style=&quot;text-align: left;&quot;&gt;&lt;span style=&quot;background-color: transparent; color: light-dark(rgb(0, 0, 0), rgb(255, 255, 255));&quot;&gt;priority_matrix&amp;nbsp;&amp;nbsp;&lt;/span&gt;&lt;/li&gt;&lt;li style=&quot;text-align: left;&quot;&gt;&lt;span style=&quot;background-color: transparent; color: light-dark(rgb(0, 0, 0), rgb(255, 255, 255));&quot;&gt;pre_ss_well_engineer_meeting_notes&lt;/span&gt;&lt;/li&gt;&lt;li style=&quot;text-align: left;&quot;&gt;&lt;span style=&quot;background-color: transparent; color: light-dark(rgb(0, 0, 0), rgb(255, 255, 255));&quot;&gt;pre_ss_well_engineer_meeting_date&lt;/span&gt;&lt;/li&gt;&lt;li style=&quot;text-align: left;&quot;&gt;&lt;span style=&quot;background-color: transparent; color: light-dark(rgb(0, 0, 0), rgb(255, 255, 255));&quot;&gt;pre_ss_well_engineer_meeting_attendee&lt;/span&gt;&lt;/li&gt;&lt;li style=&quot;text-align: left;&quot;&gt;&lt;span style=&quot;background-color: transparent; color: light-dark(rgb(0, 0, 0), rgb(255, 255, 255));&quot;&gt;status&lt;/span&gt;&lt;/li&gt;&lt;/ol&gt;&lt;/div&gt;" style="shape=note;whiteSpace=wrap;html=1;backgroundOutline=1;darkOpacity=0.05;size=15;container=0;" parent="Ebkc2lEhbZJfKZlsMFm7-12" vertex="1">
          <mxGeometry x="19" y="69" width="280" height="134.68" as="geometry" />
        </mxCell>
        <mxCell id="Ebkc2lEhbZJfKZlsMFm7-20" value="" style="endArrow=none;dashed=1;html=1;dashPattern=1 3;strokeWidth=2;rounded=0;exitX=0;exitY=0.5;exitDx=0;exitDy=0;entryX=1.009;entryY=0.215;entryDx=0;entryDy=0;entryPerimeter=0;" parent="1" source="4_S4OtVxMJpCYMmJXR8L-77" target="Ebkc2lEhbZJfKZlsMFm7-6" edge="1">
          <mxGeometry width="50" height="50" relative="1" as="geometry">
            <mxPoint x="5792" y="2585" as="sourcePoint" />
            <mxPoint x="5377" y="2807" as="targetPoint" />
            <Array as="points">
              <mxPoint x="5720" y="2325" />
              <mxPoint x="5450" y="2855" />
            </Array>
          </mxGeometry>
        </mxCell>
        <mxCell id="Ebkc2lEhbZJfKZlsMFm7-21" value="" style="endArrow=none;dashed=1;html=1;dashPattern=1 3;strokeWidth=2;rounded=0;exitX=0;exitY=0.5;exitDx=0;exitDy=0;entryX=0.999;entryY=0.307;entryDx=0;entryDy=0;entryPerimeter=0;" parent="1" source="Ebkc2lEhbZJfKZlsMFm7-3" target="Ebkc2lEhbZJfKZlsMFm7-14" edge="1">
          <mxGeometry width="50" height="50" relative="1" as="geometry">
            <mxPoint x="5718" y="2692.5" as="sourcePoint" />
            <mxPoint x="5400" y="3785" as="targetPoint" />
            <Array as="points">
              <mxPoint x="5720" y="2805" />
              <mxPoint x="5450" y="3745" />
            </Array>
          </mxGeometry>
        </mxCell>
        <mxCell id="Ebkc2lEhbZJfKZlsMFm7-22" value="" style="ellipse;whiteSpace=wrap;html=1;aspect=fixed;" parent="1" vertex="1">
          <mxGeometry x="5839" y="2871" width="40" height="40" as="geometry" />
        </mxCell>
        <mxCell id="8LUOJkQWkGuEzwJekBbw-2" value="" style="edgeStyle=orthogonalEdgeStyle;rounded=0;orthogonalLoop=1;jettySize=auto;html=1;" parent="1" source="4_S4OtVxMJpCYMmJXR8L-98" target="8LUOJkQWkGuEzwJekBbw-1" edge="1">
          <mxGeometry relative="1" as="geometry">
            <mxPoint x="5858" y="2522" as="sourcePoint" />
            <mxPoint x="5857" y="2674" as="targetPoint" />
          </mxGeometry>
        </mxCell>
        <mxCell id="8LUOJkQWkGuEzwJekBbw-1" value="AS_INPUT_TYPE#1" style="shape=parallelogram;perimeter=parallelogramPerimeter;whiteSpace=wrap;html=1;fixedSize=1;" parent="1" vertex="1">
          <mxGeometry x="5771.5" y="2559" width="172.5" height="60" as="geometry" />
        </mxCell>
        <mxCell id="8LUOJkQWkGuEzwJekBbw-11" value="" style="group" parent="1" vertex="1" connectable="0">
          <mxGeometry x="5050" y="3225" width="350" height="420" as="geometry" />
        </mxCell>
        <mxCell id="8LUOJkQWkGuEzwJekBbw-4" value="&lt;div&gt;&lt;br&gt;&lt;/div&gt;" style="shape=note;whiteSpace=wrap;html=1;backgroundOutline=1;darkOpacity=0.05;align=left;container=0;size=16;" parent="8LUOJkQWkGuEzwJekBbw-11" vertex="1">
          <mxGeometry width="350" height="420" as="geometry" />
        </mxCell>
        <mxCell id="8LUOJkQWkGuEzwJekBbw-5" value="&lt;div style=&quot;text-align: left;&quot;&gt;CREATED_SCHEDULED_SERVICE_INFORMATION&lt;/div&gt;" style="shape=note;whiteSpace=wrap;html=1;backgroundOutline=1;darkOpacity=0.05;size=15;container=0;" parent="8LUOJkQWkGuEzwJekBbw-11" vertex="1">
          <mxGeometry x="20" y="324.37" width="300" height="64.68" as="geometry" />
        </mxCell>
        <mxCell id="8LUOJkQWkGuEzwJekBbw-6" value="&lt;font style=&quot;font-size: 18px;&quot;&gt;+&lt;/font&gt;" style="text;html=1;align=center;verticalAlign=middle;whiteSpace=wrap;rounded=0;container=0;" parent="8LUOJkQWkGuEzwJekBbw-11" vertex="1">
          <mxGeometry x="152.36131578947425" y="277.0014285714278" width="37.278684210526315" height="34.371428571428616" as="geometry" />
        </mxCell>
        <mxCell id="8LUOJkQWkGuEzwJekBbw-7" value="&lt;span style=&quot;font-size: 14px;&quot;&gt;&lt;b&gt;AS_INPUT_TYPE#1&lt;/b&gt;&lt;/span&gt;" style="text;html=1;align=center;verticalAlign=middle;whiteSpace=wrap;rounded=0;container=0;" parent="8LUOJkQWkGuEzwJekBbw-11" vertex="1">
          <mxGeometry x="10" y="10.004285714285288" width="145" height="34.371428571428574" as="geometry" />
        </mxCell>
        <mxCell id="8LUOJkQWkGuEzwJekBbw-8" value="&lt;div style=&quot;text-align: left;&quot;&gt;&lt;br&gt;&lt;/div&gt;&lt;ol&gt;&lt;li style=&quot;text-align: left;&quot;&gt;&lt;span style=&quot;background-color: transparent; color: light-dark(rgb(0, 0, 0), rgb(255, 255, 255));&quot;&gt;pre_job_task_meeting_notes&lt;/span&gt;&lt;/li&gt;&lt;li style=&quot;text-align: left;&quot;&gt;&lt;span style=&quot;background-color: transparent; color: light-dark(rgb(0, 0, 0), rgb(255, 255, 255));&quot;&gt;pre_job_task_meeting_date&lt;/span&gt;&lt;/li&gt;&lt;li style=&quot;text-align: left;&quot;&gt;&lt;span style=&quot;background-color: transparent; color: light-dark(rgb(0, 0, 0), rgb(255, 255, 255));&quot;&gt;pre_job_task_meeting_attendee&lt;br&gt;&lt;/span&gt;&lt;/li&gt;&lt;/ol&gt;" style="shape=manualInput;whiteSpace=wrap;html=1;size=25;container=0;" parent="8LUOJkQWkGuEzwJekBbw-11" vertex="1">
          <mxGeometry x="36" y="160" width="280" height="103" as="geometry" />
        </mxCell>
        <mxCell id="8LUOJkQWkGuEzwJekBbw-9" value="&lt;div style=&quot;&quot;&gt;&lt;ol&gt;&lt;li&gt;&lt;span style=&quot;background-color: transparent; color: light-dark(rgb(0, 0, 0), rgb(255, 255, 255));&quot;&gt;job#&lt;/span&gt;&lt;/li&gt;&lt;/ol&gt;&lt;/div&gt;" style="shape=note;whiteSpace=wrap;html=1;backgroundOutline=1;darkOpacity=0.05;size=15;container=0;align=left;" parent="8LUOJkQWkGuEzwJekBbw-11" vertex="1">
          <mxGeometry x="113.36999999999989" y="70" width="100" height="39.68" as="geometry" />
        </mxCell>
        <mxCell id="8LUOJkQWkGuEzwJekBbw-10" value="&lt;font style=&quot;font-size: 18px;&quot;&gt;+&lt;/font&gt;" style="text;html=1;align=center;verticalAlign=middle;whiteSpace=wrap;rounded=0;container=0;" parent="8LUOJkQWkGuEzwJekBbw-11" vertex="1">
          <mxGeometry x="152.36131578947425" y="122.00142857142782" width="37.278684210526315" height="34.371428571428616" as="geometry" />
        </mxCell>
        <mxCell id="8LUOJkQWkGuEzwJekBbw-12" value="" style="endArrow=none;dashed=1;html=1;dashPattern=1 3;strokeWidth=2;rounded=0;exitX=0;exitY=0.5;exitDx=0;exitDy=0;entryX=1.002;entryY=0.376;entryDx=0;entryDy=0;entryPerimeter=0;" parent="1" source="8LUOJkQWkGuEzwJekBbw-1" target="8LUOJkQWkGuEzwJekBbw-4" edge="1">
          <mxGeometry width="50" height="50" relative="1" as="geometry">
            <mxPoint x="5761" y="2575" as="sourcePoint" />
            <mxPoint x="5370" y="3572" as="targetPoint" />
            <Array as="points">
              <mxPoint x="5730" y="2615" />
              <mxPoint x="5450" y="3335" />
            </Array>
          </mxGeometry>
        </mxCell>
        <mxCell id="8LUOJkQWkGuEzwJekBbw-14" value="" style="group" parent="1" vertex="1" connectable="0">
          <mxGeometry x="5050" y="3685" width="350" height="300" as="geometry" />
        </mxCell>
        <mxCell id="Ebkc2lEhbZJfKZlsMFm7-14" value="&lt;div&gt;&lt;br&gt;&lt;/div&gt;" style="shape=note;whiteSpace=wrap;html=1;backgroundOutline=1;darkOpacity=0.05;align=left;container=0;size=16;" parent="8LUOJkQWkGuEzwJekBbw-14" vertex="1">
          <mxGeometry width="350" height="300" as="geometry" />
        </mxCell>
        <mxCell id="Ebkc2lEhbZJfKZlsMFm7-15" value="&lt;div style=&quot;text-align: left;&quot;&gt;&lt;span style=&quot;background-color: transparent; color: light-dark(rgb(0, 0, 0), rgb(255, 255, 255));&quot;&gt;CREATED_SCHEDULED_SERVICE_INFORMATION&lt;/span&gt;&lt;/div&gt;" style="shape=note;whiteSpace=wrap;html=1;backgroundOutline=1;darkOpacity=0.05;size=15;container=0;" parent="8LUOJkQWkGuEzwJekBbw-14" vertex="1">
          <mxGeometry x="20.00500000000011" y="210" width="306.25" height="64.68" as="geometry" />
        </mxCell>
        <mxCell id="Ebkc2lEhbZJfKZlsMFm7-16" value="&lt;font style=&quot;font-size: 18px;&quot;&gt;+&lt;/font&gt;" style="text;html=1;align=center;verticalAlign=middle;whiteSpace=wrap;rounded=0;container=0;" parent="8LUOJkQWkGuEzwJekBbw-14" vertex="1">
          <mxGeometry x="152.7451891447381" y="175.63142857142793" width="40.773560855263156" height="34.371428571428616" as="geometry" />
        </mxCell>
        <mxCell id="Ebkc2lEhbZJfKZlsMFm7-17" value="&lt;span style=&quot;font-size: 14px;&quot;&gt;&lt;b&gt;ASSIGNED_SERVICE&lt;/b&gt;&lt;/span&gt;" style="text;html=1;align=center;verticalAlign=middle;whiteSpace=wrap;rounded=0;container=0;" parent="8LUOJkQWkGuEzwJekBbw-14" vertex="1">
          <mxGeometry x="0.005000000000109139" y="4" width="185.9375" height="34.37" as="geometry" />
        </mxCell>
        <mxCell id="Ebkc2lEhbZJfKZlsMFm7-18" value="&lt;div style=&quot;text-align: left;&quot;&gt;&lt;ol&gt;&lt;li&gt;&lt;span style=&quot;background-color: transparent; color: light-dark(rgb(0, 0, 0), rgb(255, 255, 255));&quot;&gt;job#&lt;/span&gt;&lt;/li&gt;&lt;li&gt;&lt;span style=&quot;background-color: transparent; color: light-dark(rgb(0, 0, 0), rgb(255, 255, 255));&quot;&gt;pre_job_task_meeting_notes&lt;/span&gt;&lt;/li&gt;&lt;li&gt;&lt;span style=&quot;background-color: transparent; color: light-dark(rgb(0, 0, 0), rgb(255, 255, 255));&quot;&gt;pre_job_task_meeting_date&lt;/span&gt;&lt;/li&gt;&lt;li&gt;&lt;span style=&quot;background-color: transparent; color: light-dark(rgb(0, 0, 0), rgb(255, 255, 255));&quot;&gt;pre_job_task_meeting_attendee&lt;/span&gt;&lt;/li&gt;&lt;li&gt;&lt;span style=&quot;background-color: transparent; color: light-dark(rgb(0, 0, 0), rgb(255, 255, 255));&quot;&gt;cost_center[]&lt;/span&gt;&lt;/li&gt;&lt;li&gt;&lt;span style=&quot;background-color: transparent; color: light-dark(rgb(0, 0, 0), rgb(255, 255, 255));&quot;&gt;personal[]&lt;/span&gt;&lt;/li&gt;&lt;li&gt;&lt;span style=&quot;background-color: transparent; color: light-dark(rgb(0, 0, 0), rgb(255, 255, 255));&quot;&gt;assets[]&lt;/span&gt;&lt;/li&gt;&lt;/ol&gt;&lt;/div&gt;" style="shape=note;whiteSpace=wrap;html=1;backgroundOutline=1;darkOpacity=0.05;size=15;container=0;" parent="8LUOJkQWkGuEzwJekBbw-14" vertex="1">
          <mxGeometry x="58.620000000000005" y="49" width="230.38" height="127" as="geometry" />
        </mxCell>
        <mxCell id="_S31PFsr-5n91dySAx23-50" value="&lt;div&gt;&lt;br&gt;&lt;/div&gt;" style="shape=note;whiteSpace=wrap;html=1;backgroundOutline=1;darkOpacity=0.05;size=40;align=left;container=0;" parent="1" vertex="1">
          <mxGeometry x="4460" y="1270" width="540" height="80" as="geometry" />
        </mxCell>
        <mxCell id="_S31PFsr-5n91dySAx23-51" value="&lt;h1 style=&quot;margin-top: 0px;&quot;&gt;OPERATION CENTER&lt;/h1&gt;" style="text;html=1;whiteSpace=wrap;overflow=hidden;rounded=0;container=0;" parent="1" vertex="1">
          <mxGeometry x="4486.5" y="1281" width="279.5" height="40" as="geometry" />
        </mxCell>
      </root>
    </mxGraphModel>
  </diagram>
  <diagram id="UqdCc1wBb36a4LUIThsk" name="Page-2">
    <mxGraphModel dx="-434" dy="5992" grid="1" gridSize="10" guides="1" tooltips="1" connect="1" arrows="1" fold="1" page="1" pageScale="1" pageWidth="850" pageHeight="1100" math="0" shadow="0">
      <root>
        <mxCell id="0" />
        <mxCell id="1" parent="0" />
        <mxCell id="0kUB9Hg9Fs2PaXPSfWbz-1" value="" style="shape=ext;double=1;rounded=0;whiteSpace=wrap;html=1;fillColor=light-dark(#FFFFFF,transparent);movable=1;resizable=1;rotatable=1;deletable=1;editable=1;locked=0;connectable=1;" vertex="1" parent="1">
          <mxGeometry x="4310" y="1160" width="2040" height="2520" as="geometry" />
        </mxCell>
        <mxCell id="dIs9kiRzahAetvhcJ6Mk-3" value="" style="edgeStyle=orthogonalEdgeStyle;rounded=0;orthogonalLoop=1;jettySize=auto;html=1;" parent="1" source="uDL6A5ymK77HZbPeV4LL-1" target="dIs9kiRzahAetvhcJ6Mk-1" edge="1">
          <mxGeometry relative="1" as="geometry" />
        </mxCell>
        <mxCell id="uDL6A5ymK77HZbPeV4LL-1" value="" style="ellipse;whiteSpace=wrap;html=1;aspect=fixed;" parent="1" vertex="1">
          <mxGeometry x="4915" y="1509" width="63" height="63" as="geometry" />
        </mxCell>
        <mxCell id="y40DUp72W1Fop2OEraAR-1" value="" style="edgeStyle=orthogonalEdgeStyle;rounded=0;orthogonalLoop=1;jettySize=auto;html=1;" parent="1" source="X0k7tSwwbFPtbA-1YXue-3" target="dIs9kiRzahAetvhcJ6Mk-4" edge="1">
          <mxGeometry relative="1" as="geometry" />
        </mxCell>
        <mxCell id="dIs9kiRzahAetvhcJ6Mk-1" value="CREATE A&amp;nbsp; PROJECT" style="shape=hexagon;perimeter=hexagonPerimeter2;whiteSpace=wrap;html=1;fixedSize=1;" parent="1" vertex="1">
          <mxGeometry x="4872" y="1620" width="150" height="40" as="geometry" />
        </mxCell>
        <mxCell id="y40DUp72W1Fop2OEraAR-3" value="" style="edgeStyle=orthogonalEdgeStyle;rounded=0;orthogonalLoop=1;jettySize=auto;html=1;" parent="1" source="dIs9kiRzahAetvhcJ6Mk-4" target="y40DUp72W1Fop2OEraAR-2" edge="1">
          <mxGeometry relative="1" as="geometry" />
        </mxCell>
        <mxCell id="mw-NqDPkETXqo4efaNRA-21" value="" style="edgeStyle=orthogonalEdgeStyle;rounded=0;orthogonalLoop=1;jettySize=auto;html=1;entryX=1;entryY=0.5;entryDx=0;entryDy=0;" parent="1" source="dIs9kiRzahAetvhcJ6Mk-4" target="T5j2_0uhESxXv1LbWoU_-1" edge="1">
          <mxGeometry relative="1" as="geometry">
            <mxPoint x="4822" y="1881" as="targetPoint" />
          </mxGeometry>
        </mxCell>
        <mxCell id="dIs9kiRzahAetvhcJ6Mk-4" value="USE&amp;nbsp;&lt;div&gt;EXISTING INFORMATION&amp;nbsp;&lt;/div&gt;&lt;div&gt;?&lt;/div&gt;" style="rhombus;whiteSpace=wrap;html=1;" parent="1" vertex="1">
          <mxGeometry x="4892" y="1828" width="110" height="107" as="geometry" />
        </mxCell>
        <mxCell id="mw-NqDPkETXqo4efaNRA-4" value="" style="edgeStyle=orthogonalEdgeStyle;rounded=0;orthogonalLoop=1;jettySize=auto;html=1;" parent="1" source="y40DUp72W1Fop2OEraAR-2" target="mw-NqDPkETXqo4efaNRA-3" edge="1">
          <mxGeometry relative="1" as="geometry">
            <Array as="points">
              <mxPoint x="5137" y="1920" />
              <mxPoint x="5137" y="1920" />
            </Array>
          </mxGeometry>
        </mxCell>
        <mxCell id="y40DUp72W1Fop2OEraAR-2" value="IMPORT DATA&amp;nbsp;&lt;div&gt;FROM OPERATION MODULE&lt;/div&gt;" style="whiteSpace=wrap;html=1;" parent="1" vertex="1">
          <mxGeometry x="5077" y="1851" width="120" height="60" as="geometry" />
        </mxCell>
        <mxCell id="mw-NqDPkETXqo4efaNRA-1" value="YES" style="text;html=1;align=center;verticalAlign=middle;whiteSpace=wrap;rounded=0;" parent="1" vertex="1">
          <mxGeometry x="4986" y="1851" width="60" height="30" as="geometry" />
        </mxCell>
        <mxCell id="mw-NqDPkETXqo4efaNRA-2" value="NO" style="text;html=1;align=center;verticalAlign=middle;whiteSpace=wrap;rounded=0;" parent="1" vertex="1">
          <mxGeometry x="4847" y="1850" width="60" height="30" as="geometry" />
        </mxCell>
        <mxCell id="mw-NqDPkETXqo4efaNRA-6" value="" style="edgeStyle=orthogonalEdgeStyle;rounded=0;orthogonalLoop=1;jettySize=auto;html=1;" parent="1" source="mw-NqDPkETXqo4efaNRA-3" target="mw-NqDPkETXqo4efaNRA-5" edge="1">
          <mxGeometry relative="1" as="geometry" />
        </mxCell>
        <mxCell id="-MtlyeahUfIMF0WBJaaO-14" value="" style="edgeStyle=orthogonalEdgeStyle;rounded=0;orthogonalLoop=1;jettySize=auto;html=1;" parent="1" source="mw-NqDPkETXqo4efaNRA-3" target="-MtlyeahUfIMF0WBJaaO-9" edge="1">
          <mxGeometry relative="1" as="geometry" />
        </mxCell>
        <mxCell id="mw-NqDPkETXqo4efaNRA-3" value="&lt;div&gt;&lt;br&gt;&lt;/div&gt;DO &lt;br&gt;INFORMATION NEEDS AN UPDATE&lt;div&gt;?&lt;/div&gt;" style="rhombus;whiteSpace=wrap;html=1;" parent="1" vertex="1">
          <mxGeometry x="5082" y="1944" width="110" height="100" as="geometry" />
        </mxCell>
        <mxCell id="-MtlyeahUfIMF0WBJaaO-24" style="edgeStyle=orthogonalEdgeStyle;rounded=0;orthogonalLoop=1;jettySize=auto;html=1;entryX=1;entryY=0.5;entryDx=0;entryDy=0;" parent="1" source="mw-NqDPkETXqo4efaNRA-5" target="-MtlyeahUfIMF0WBJaaO-9" edge="1">
          <mxGeometry relative="1" as="geometry">
            <Array as="points">
              <mxPoint x="5327" y="2125" />
              <mxPoint x="5266" y="2125" />
            </Array>
          </mxGeometry>
        </mxCell>
        <mxCell id="mw-NqDPkETXqo4efaNRA-5" value="UPDATE WELL INFORMATION&lt;div&gt;TO BUFFER&lt;/div&gt;" style="whiteSpace=wrap;html=1;" parent="1" vertex="1">
          <mxGeometry x="5267" y="1967" width="120" height="54" as="geometry" />
        </mxCell>
        <mxCell id="sAyN84QGZhsb4qGFKltL-10" value="" style="edgeStyle=orthogonalEdgeStyle;rounded=0;orthogonalLoop=1;jettySize=auto;html=1;" parent="1" source="mw-NqDPkETXqo4efaNRA-7" target="sAyN84QGZhsb4qGFKltL-4" edge="1">
          <mxGeometry relative="1" as="geometry">
            <Array as="points">
              <mxPoint x="5137" y="2253" />
              <mxPoint x="5137" y="2253" />
            </Array>
          </mxGeometry>
        </mxCell>
        <mxCell id="mw-NqDPkETXqo4efaNRA-7" value="CREATE A SECTION" style="whiteSpace=wrap;html=1;" parent="1" vertex="1">
          <mxGeometry x="5061" y="2202" width="150" height="31" as="geometry" />
        </mxCell>
        <mxCell id="gkUSf_01vBVkDCjBnTHa-9" value="" style="edgeStyle=orthogonalEdgeStyle;rounded=0;orthogonalLoop=1;jettySize=auto;html=1;" parent="1" source="mw-NqDPkETXqo4efaNRA-9" target="gkUSf_01vBVkDCjBnTHa-7" edge="1">
          <mxGeometry relative="1" as="geometry" />
        </mxCell>
        <mxCell id="mw-NqDPkETXqo4efaNRA-9" value="CREATE A RUN" style="whiteSpace=wrap;html=1;" parent="1" vertex="1">
          <mxGeometry x="5076" y="2612" width="120" height="24" as="geometry" />
        </mxCell>
        <mxCell id="mw-NqDPkETXqo4efaNRA-19" value="" style="edgeStyle=orthogonalEdgeStyle;rounded=0;orthogonalLoop=1;jettySize=auto;html=1;" parent="1" source="mw-NqDPkETXqo4efaNRA-13" target="mw-NqDPkETXqo4efaNRA-18" edge="1">
          <mxGeometry relative="1" as="geometry" />
        </mxCell>
        <mxCell id="mw-NqDPkETXqo4efaNRA-13" value="SURVEY CENTER" style="shape=process;whiteSpace=wrap;html=1;backgroundOutline=1;size=0.06993006993006994;" parent="1" vertex="1">
          <mxGeometry x="5064" y="2823" width="143" height="30" as="geometry" />
        </mxCell>
        <mxCell id="gkUSf_01vBVkDCjBnTHa-14" style="edgeStyle=orthogonalEdgeStyle;rounded=0;orthogonalLoop=1;jettySize=auto;html=1;entryX=1;entryY=0.5;entryDx=0;entryDy=0;" parent="1" source="mw-NqDPkETXqo4efaNRA-15" target="mw-NqDPkETXqo4efaNRA-13" edge="1">
          <mxGeometry relative="1" as="geometry">
            <Array as="points">
              <mxPoint x="5337" y="2838" />
            </Array>
          </mxGeometry>
        </mxCell>
        <mxCell id="mw-NqDPkETXqo4efaNRA-15" value="PRE DRILLOG CHECKLIST" style="shape=manualInput;whiteSpace=wrap;html=1;size=13;" parent="1" vertex="1">
          <mxGeometry x="5257" y="2686" width="140" height="60" as="geometry" />
        </mxCell>
        <mxCell id="gkUSf_01vBVkDCjBnTHa-27" value="" style="edgeStyle=orthogonalEdgeStyle;rounded=0;orthogonalLoop=1;jettySize=auto;html=1;" parent="1" source="mw-NqDPkETXqo4efaNRA-18" target="gkUSf_01vBVkDCjBnTHa-26" edge="1">
          <mxGeometry relative="1" as="geometry" />
        </mxCell>
        <mxCell id="mw-NqDPkETXqo4efaNRA-18" value="IMPORT RAW FILE FROM SURVEY CENTER" style="whiteSpace=wrap;html=1;" parent="1" vertex="1">
          <mxGeometry x="5066" y="2888" width="140" height="52" as="geometry" />
        </mxCell>
        <mxCell id="WbbH-PtajJw_O9tE8EPZ-2" value="" style="group" parent="1" vertex="1" connectable="0">
          <mxGeometry x="5476" y="1360" width="220" height="520" as="geometry" />
        </mxCell>
        <mxCell id="7aA1kmjVYo74551gbbIo-2" value="&lt;div&gt;&lt;br&gt;&lt;/div&gt;&lt;ol&gt;&lt;li&gt;&lt;span style=&quot;background-color: transparent; color: light-dark(rgb(0, 0, 0), rgb(255, 255, 255));&quot;&gt;latitude_degrees&amp;nbsp;&amp;nbsp;&lt;/span&gt;&lt;/li&gt;&lt;li&gt;&lt;span style=&quot;background-color: transparent; color: light-dark(rgb(0, 0, 0), rgb(255, 255, 255));&quot;&gt;latitude_minutes&amp;nbsp;&amp;nbsp;&lt;/span&gt;&lt;/li&gt;&lt;li&gt;&lt;span style=&quot;background-color: transparent; color: light-dark(rgb(0, 0, 0), rgb(255, 255, 255));&quot;&gt;latitude_seconds&amp;nbsp;&amp;nbsp;&lt;/span&gt;&lt;/li&gt;&lt;li&gt;&lt;span style=&quot;background-color: transparent; color: light-dark(rgb(0, 0, 0), rgb(255, 255, 255));&quot;&gt;latitude_direction&amp;nbsp;&lt;/span&gt;&lt;/li&gt;&lt;li&gt;&lt;span style=&quot;background-color: transparent; color: light-dark(rgb(0, 0, 0), rgb(255, 255, 255));&quot;&gt;longitude_degrees&amp;nbsp;&amp;nbsp;&lt;/span&gt;&lt;/li&gt;&lt;li&gt;&lt;span style=&quot;background-color: transparent; color: light-dark(rgb(0, 0, 0), rgb(255, 255, 255));&quot;&gt;longitude_minutes&amp;nbsp;&amp;nbsp;&lt;/span&gt;&lt;/li&gt;&lt;li&gt;&lt;span style=&quot;background-color: transparent; color: light-dark(rgb(0, 0, 0), rgb(255, 255, 255));&quot;&gt;longitude_seconds&amp;nbsp;&amp;nbsp;&lt;/span&gt;&lt;/li&gt;&lt;li&gt;&lt;span style=&quot;background-color: transparent; color: light-dark(rgb(0, 0, 0), rgb(255, 255, 255));&quot;&gt;longitude_direction&lt;/span&gt;&lt;/li&gt;&lt;li&gt;&lt;span style=&quot;background-color: transparent; color: light-dark(rgb(0, 0, 0), rgb(255, 255, 255));&quot;&gt;northing_value&amp;nbsp;&amp;nbsp;&lt;/span&gt;&lt;/li&gt;&lt;li&gt;&lt;span style=&quot;background-color: transparent; color: light-dark(rgb(0, 0, 0), rgb(255, 255, 255));&quot;&gt;northing_unit&amp;nbsp;&amp;nbsp;&lt;/span&gt;&lt;/li&gt;&lt;li&gt;&lt;span style=&quot;background-color: transparent; color: light-dark(rgb(0, 0, 0), rgb(255, 255, 255));&quot;&gt;northing_direction&amp;nbsp;&lt;/span&gt;&lt;/li&gt;&lt;li&gt;&lt;span style=&quot;background-color: transparent; color: light-dark(rgb(0, 0, 0), rgb(255, 255, 255));&quot;&gt;easting_value&amp;nbsp;&amp;nbsp;&lt;/span&gt;&lt;/li&gt;&lt;li&gt;&lt;span style=&quot;background-color: transparent; color: light-dark(rgb(0, 0, 0), rgb(255, 255, 255));&quot;&gt;easting_unit&amp;nbsp;&amp;nbsp;&lt;/span&gt;&lt;/li&gt;&lt;li&gt;&lt;span style=&quot;background-color: transparent; color: light-dark(rgb(0, 0, 0), rgb(255, 255, 255));&quot;&gt;easting_direction&amp;nbsp;&amp;nbsp;&lt;/span&gt;&lt;/li&gt;&lt;li&gt;&lt;span style=&quot;background-color: transparent; color: light-dark(rgb(0, 0, 0), rgb(255, 255, 255));&quot;&gt;casing_size&amp;nbsp;&amp;nbsp;&lt;/span&gt;&lt;/li&gt;&lt;li&gt;&lt;span style=&quot;background-color: transparent; color: light-dark(rgb(0, 0, 0), rgb(255, 255, 255));&quot;&gt;casing_unit&lt;/span&gt;&lt;/li&gt;&lt;li&gt;&lt;span style=&quot;background-color: transparent; color: light-dark(rgb(0, 0, 0), rgb(255, 255, 255));&quot;&gt;ground_elevation&amp;nbsp;&amp;nbsp;&lt;/span&gt;&lt;/li&gt;&lt;li&gt;&lt;span style=&quot;background-color: transparent; color: light-dark(rgb(0, 0, 0), rgb(255, 255, 255));&quot;&gt;ground_elevation_unit&amp;nbsp;&amp;nbsp;&lt;/span&gt;&lt;/li&gt;&lt;li&gt;&lt;span style=&quot;background-color: transparent; color: light-dark(rgb(0, 0, 0), rgb(255, 255, 255));&quot;&gt;well_profile&amp;nbsp;&amp;nbsp;&lt;/span&gt;&lt;/li&gt;&lt;li&gt;&lt;span style=&quot;background-color: transparent; color: light-dark(rgb(0, 0, 0), rgb(255, 255, 255));&quot;&gt;drillpipe_size_value&amp;nbsp;&amp;nbsp;&lt;/span&gt;&lt;/li&gt;&lt;li&gt;&lt;span style=&quot;background-color: transparent; color: light-dark(rgb(0, 0, 0), rgb(255, 255, 255));&quot;&gt;drillpipe_size_unit&amp;nbsp;&amp;nbsp;&lt;/span&gt;&lt;/li&gt;&lt;li&gt;&lt;span style=&quot;background-color: transparent; color: light-dark(rgb(0, 0, 0), rgb(255, 255, 255));&quot;&gt;drillpipe_size_direction&amp;nbsp;&amp;nbsp;&lt;/span&gt;&lt;/li&gt;&lt;li&gt;&lt;span style=&quot;background-color: transparent; color: light-dark(rgb(0, 0, 0), rgb(255, 255, 255));&quot;&gt;rig_floor_elevation_value&amp;nbsp;&amp;nbsp;&lt;/span&gt;&lt;/li&gt;&lt;li&gt;&lt;span style=&quot;background-color: transparent; color: light-dark(rgb(0, 0, 0), rgb(255, 255, 255));&quot;&gt;rig_floor_elevation_direction&amp;nbsp;&amp;nbsp;&lt;/span&gt;&lt;/li&gt;&lt;li&gt;&lt;span style=&quot;background-color: transparent; color: light-dark(rgb(0, 0, 0), rgb(255, 255, 255));&quot;&gt;max_down_hole_temp_value&amp;nbsp;&amp;nbsp;&lt;/span&gt;&lt;/li&gt;&lt;li&gt;&lt;span style=&quot;background-color: transparent; color: light-dark(rgb(0, 0, 0), rgb(255, 255, 255));&quot;&gt;max_down_hole_temp_unit&amp;nbsp;&amp;nbsp;&lt;/span&gt;&lt;span style=&quot;background-color: transparent; color: light-dark(rgb(0, 0, 0), rgb(255, 255, 255));&quot;&gt;&amp;nbsp;&lt;/span&gt;&lt;/li&gt;&lt;li&gt;&lt;span style=&quot;background-color: transparent; color: light-dark(rgb(0, 0, 0), rgb(255, 255, 255));&quot;&gt;minimum_id&amp;nbsp;&amp;nbsp;&lt;/span&gt;&lt;/li&gt;&lt;li&gt;&lt;span style=&quot;background-color: transparent; color: light-dark(rgb(0, 0, 0), rgb(255, 255, 255));&quot;&gt;minimum_id_unit&amp;nbsp;&amp;nbsp;&lt;/span&gt;&lt;/li&gt;&lt;li&gt;&lt;span style=&quot;background-color: transparent; color: light-dark(rgb(0, 0, 0), rgb(255, 255, 255));&quot;&gt;maximum_inclination&amp;nbsp;&amp;nbsp;&lt;/span&gt;&lt;/li&gt;&lt;li&gt;&lt;span style=&quot;background-color: transparent; color: light-dark(rgb(0, 0, 0), rgb(255, 255, 255));&quot;&gt;maximum_inclination_unit&amp;nbsp;&amp;nbsp;&lt;/span&gt;&lt;/li&gt;&lt;li&gt;&lt;span style=&quot;background-color: transparent; color: light-dark(rgb(0, 0, 0), rgb(255, 255, 255));&quot;&gt;h2s_level&lt;/span&gt;&lt;/li&gt;&lt;/ol&gt;" style="shape=note;whiteSpace=wrap;html=1;backgroundOutline=1;darkOpacity=0.05;align=left;size=18;container=0;" parent="WbbH-PtajJw_O9tE8EPZ-2" vertex="1">
          <mxGeometry width="220" height="520" as="geometry" />
        </mxCell>
        <mxCell id="7aA1kmjVYo74551gbbIo-3" value="&lt;b&gt;&lt;font style=&quot;font-size: 14px;&quot;&gt;WELL_INFORMATION&lt;/font&gt;&lt;/b&gt;" style="text;html=1;align=center;verticalAlign=middle;whiteSpace=wrap;rounded=0;container=0;" parent="WbbH-PtajJw_O9tE8EPZ-2" vertex="1">
          <mxGeometry width="190" height="50" as="geometry" />
        </mxCell>
        <mxCell id="Jnjio0fsBP1DJlduzIN0-1" value="" style="endArrow=none;dashed=1;html=1;dashPattern=1 3;strokeWidth=2;rounded=0;exitX=-0.003;exitY=0.201;exitDx=0;exitDy=0;entryX=1;entryY=0.5;entryDx=0;entryDy=0;exitPerimeter=0;" parent="1" source="7aA1kmjVYo74551gbbIo-2" target="y40DUp72W1Fop2OEraAR-2" edge="1">
          <mxGeometry width="50" height="50" relative="1" as="geometry">
            <mxPoint x="5618" y="760" as="sourcePoint" />
            <mxPoint x="5247" y="1754" as="targetPoint" />
            <Array as="points">
              <mxPoint x="5457" y="1510" />
              <mxPoint x="5227" y="1880" />
            </Array>
          </mxGeometry>
        </mxCell>
        <mxCell id="T5j2_0uhESxXv1LbWoU_-1" value="&lt;ol&gt;&lt;li&gt;&lt;b style=&quot;text-align: center;&quot;&gt;&lt;font style=&quot;font-size: 14px;&quot;&gt;WELL_INFORMATION&lt;/font&gt;&lt;/b&gt;&lt;/li&gt;&lt;/ol&gt;" style="shape=manualInput;whiteSpace=wrap;html=1;size=27;align=left;" parent="1" vertex="1">
          <mxGeometry x="4627" y="1842" width="207" height="79" as="geometry" />
        </mxCell>
        <mxCell id="X0k7tSwwbFPtbA-1YXue-4" value="" style="edgeStyle=orthogonalEdgeStyle;rounded=0;orthogonalLoop=1;jettySize=auto;html=1;" parent="1" source="dIs9kiRzahAetvhcJ6Mk-1" target="X0k7tSwwbFPtbA-1YXue-3" edge="1">
          <mxGeometry relative="1" as="geometry">
            <mxPoint x="4947" y="1673" as="sourcePoint" />
            <mxPoint x="4947" y="1828" as="targetPoint" />
          </mxGeometry>
        </mxCell>
        <mxCell id="sAyN84QGZhsb4qGFKltL-11" style="edgeStyle=orthogonalEdgeStyle;rounded=0;orthogonalLoop=1;jettySize=auto;html=1;entryX=0;entryY=0.645;entryDx=0;entryDy=0;entryPerimeter=0;" parent="1" source="X0k7tSwwbFPtbA-1YXue-3" target="sAyN84QGZhsb4qGFKltL-4" edge="1">
          <mxGeometry relative="1" as="geometry">
            <Array as="points">
              <mxPoint x="4597" y="1750" />
              <mxPoint x="4597" y="2170" />
              <mxPoint x="4817" y="2170" />
              <mxPoint x="4817" y="2314" />
            </Array>
          </mxGeometry>
        </mxCell>
        <mxCell id="X0k7tSwwbFPtbA-1YXue-3" value="&lt;div&gt;IS&amp;nbsp;&lt;/div&gt;&lt;div&gt;IT&amp;nbsp;&lt;span style=&quot;background-color: transparent; color: light-dark(rgb(0, 0, 0), rgb(255, 255, 255));&quot;&gt;TOOL CALIBARATION&lt;/span&gt;&lt;/div&gt;&lt;div&gt;&lt;span style=&quot;background-color: transparent; color: light-dark(rgb(0, 0, 0), rgb(255, 255, 255));&quot;&gt;?&lt;/span&gt;&lt;/div&gt;" style="rhombus;whiteSpace=wrap;html=1;" parent="1" vertex="1">
          <mxGeometry x="4891.5" y="1700" width="110" height="100" as="geometry" />
        </mxCell>
        <mxCell id="X0k7tSwwbFPtbA-1YXue-6" value="YES" style="text;html=1;align=center;verticalAlign=middle;whiteSpace=wrap;rounded=0;" parent="1" vertex="1">
          <mxGeometry x="4843.5" y="1718" width="60" height="30" as="geometry" />
        </mxCell>
        <mxCell id="X0k7tSwwbFPtbA-1YXue-7" value="NO" style="text;html=1;align=center;verticalAlign=middle;whiteSpace=wrap;rounded=0;" parent="1" vertex="1">
          <mxGeometry x="4894" y="1790" width="60" height="30" as="geometry" />
        </mxCell>
        <mxCell id="X0k7tSwwbFPtbA-1YXue-8" value="" style="endArrow=none;dashed=1;html=1;dashPattern=1 3;strokeWidth=2;rounded=0;exitX=-0.012;exitY=0.2;exitDx=0;exitDy=0;exitPerimeter=0;" parent="1" source="7aA1kmjVYo74551gbbIo-2" edge="1">
          <mxGeometry width="50" height="50" relative="1" as="geometry">
            <mxPoint x="5607" y="1440" as="sourcePoint" />
            <mxPoint x="4834" y="1850" as="targetPoint" />
            <Array as="points">
              <mxPoint x="5437" y="1500" />
              <mxPoint x="4867" y="1850" />
            </Array>
          </mxGeometry>
        </mxCell>
        <mxCell id="X0k7tSwwbFPtbA-1YXue-9" value="YES" style="text;html=1;align=center;verticalAlign=middle;whiteSpace=wrap;rounded=0;" parent="1" vertex="1">
          <mxGeometry x="5177" y="1965" width="60" height="30" as="geometry" />
        </mxCell>
        <mxCell id="X0k7tSwwbFPtbA-1YXue-10" value="NO" style="text;html=1;align=center;verticalAlign=middle;whiteSpace=wrap;rounded=0;" parent="1" vertex="1">
          <mxGeometry x="5132" y="2044" width="60" height="30" as="geometry" />
        </mxCell>
        <mxCell id="sAyN84QGZhsb4qGFKltL-7" value="" style="edgeStyle=orthogonalEdgeStyle;rounded=0;orthogonalLoop=1;jettySize=auto;html=1;" parent="1" source="sAyN84QGZhsb4qGFKltL-4" target="sAyN84QGZhsb4qGFKltL-5" edge="1">
          <mxGeometry relative="1" as="geometry" />
        </mxCell>
        <mxCell id="sAyN84QGZhsb4qGFKltL-4" value="&lt;ol&gt;&lt;li&gt;&lt;b style=&quot;text-align: center;&quot;&gt;&lt;font style=&quot;font-size: 14px;&quot;&gt;RUN_INFORMATION&lt;/font&gt;&lt;/b&gt;&lt;/li&gt;&lt;/ol&gt;" style="shape=manualInput;whiteSpace=wrap;html=1;size=27;align=left;" parent="1" vertex="1">
          <mxGeometry x="5032.5" y="2263" width="207" height="79" as="geometry" />
        </mxCell>
        <mxCell id="sAyN84QGZhsb4qGFKltL-9" style="edgeStyle=orthogonalEdgeStyle;rounded=0;orthogonalLoop=1;jettySize=auto;html=1;entryX=0.5;entryY=0;entryDx=0;entryDy=0;" parent="1" source="gkUSf_01vBVkDCjBnTHa-1" target="mw-NqDPkETXqo4efaNRA-9" edge="1">
          <mxGeometry relative="1" as="geometry" />
        </mxCell>
        <mxCell id="sAyN84QGZhsb4qGFKltL-5" value="&lt;ol&gt;&lt;li&gt;&lt;b style=&quot;text-align: center;&quot;&gt;&lt;font style=&quot;font-size: 14px;&quot;&gt;TIEON_INFORMATION&lt;/font&gt;&lt;/b&gt;&lt;/li&gt;&lt;/ol&gt;" style="shape=manualInput;whiteSpace=wrap;html=1;size=27;align=left;" parent="1" vertex="1">
          <mxGeometry x="5032.5" y="2383" width="207" height="79" as="geometry" />
        </mxCell>
        <mxCell id="sAyN84QGZhsb4qGFKltL-12" value="" style="endArrow=none;dashed=1;html=1;dashPattern=1 3;strokeWidth=2;rounded=0;exitX=0;exitY=0.5;exitDx=0;exitDy=0;entryX=1;entryY=0.25;entryDx=0;entryDy=0;" parent="1" source="sAyN84QGZhsb4qGFKltL-3" target="sAyN84QGZhsb4qGFKltL-4" edge="1">
          <mxGeometry width="50" height="50" relative="1" as="geometry">
            <mxPoint x="5696" y="1750" as="sourcePoint" />
            <mxPoint x="5257" y="2166" as="targetPoint" />
            <Array as="points">
              <mxPoint x="5437" y="2170" />
              <mxPoint x="5287" y="2280" />
            </Array>
          </mxGeometry>
        </mxCell>
        <mxCell id="sAyN84QGZhsb4qGFKltL-19" value="" style="group" parent="1" vertex="1" connectable="0">
          <mxGeometry x="4520" y="2300" width="230" height="260" as="geometry" />
        </mxCell>
        <mxCell id="sAyN84QGZhsb4qGFKltL-13" value="&lt;ol&gt;&lt;li&gt;measured_depth_value&lt;/li&gt;&lt;li&gt;measured_depth_unit&lt;/li&gt;&lt;li&gt;true_vertical_depth_value&lt;/li&gt;&lt;li&gt;true_vertical_depth_unit&amp;nbsp;&lt;/li&gt;&lt;li&gt;inclination_value&lt;/li&gt;&lt;li&gt;inclination_unit&amp;nbsp;&lt;/li&gt;&lt;li&gt;latitude_ns_value&amp;nbsp;&lt;/li&gt;&lt;li&gt;latitude_ns_unit&amp;nbsp;&lt;/li&gt;&lt;li&gt;azimuth_value&amp;nbsp;&lt;/li&gt;&lt;li&gt;azimuth_unit&amp;nbsp;&lt;/li&gt;&lt;li&gt;departure_value&amp;nbsp;&lt;/li&gt;&lt;li&gt;departure_unit&amp;nbsp;&lt;/li&gt;&lt;/ol&gt;" style="shape=note;whiteSpace=wrap;html=1;backgroundOutline=1;darkOpacity=0.05;align=left;size=18;container=0;" parent="sAyN84QGZhsb4qGFKltL-19" vertex="1">
          <mxGeometry width="230" height="260" as="geometry" />
        </mxCell>
        <mxCell id="sAyN84QGZhsb4qGFKltL-15" value="&lt;b&gt;&lt;font style=&quot;font-size: 14px;&quot;&gt;TIE_ON_INFORMATION&lt;/font&gt;&lt;/b&gt;" style="text;html=1;align=center;verticalAlign=middle;whiteSpace=wrap;rounded=0;container=0;" parent="sAyN84QGZhsb4qGFKltL-19" vertex="1">
          <mxGeometry x="9" width="190" height="44.230769230769226" as="geometry" />
        </mxCell>
        <mxCell id="-MtlyeahUfIMF0WBJaaO-7" value="" style="endArrow=none;dashed=1;html=1;dashPattern=1 3;strokeWidth=2;rounded=0;exitX=0;exitY=0.75;exitDx=0;exitDy=0;entryX=1.01;entryY=0.423;entryDx=0;entryDy=0;entryPerimeter=0;" parent="1" source="sAyN84QGZhsb4qGFKltL-5" target="sAyN84QGZhsb4qGFKltL-13" edge="1">
          <mxGeometry width="50" height="50" relative="1" as="geometry">
            <mxPoint x="5024" y="2320" as="sourcePoint" />
            <mxPoint x="4627" y="2568" as="targetPoint" />
            <Array as="points">
              <mxPoint x="4997" y="2450" />
              <mxPoint x="4787" y="2400" />
            </Array>
          </mxGeometry>
        </mxCell>
        <mxCell id="-MtlyeahUfIMF0WBJaaO-8" value="" style="endArrow=none;dashed=1;html=1;dashPattern=1 3;strokeWidth=2;rounded=0;exitX=0;exitY=0.75;exitDx=0;exitDy=0;entryX=0.998;entryY=0.247;entryDx=0;entryDy=0;entryPerimeter=0;" parent="1" source="mw-NqDPkETXqo4efaNRA-9" target="sAyN84QGZhsb4qGFKltL-17" edge="1">
          <mxGeometry width="50" height="50" relative="1" as="geometry">
            <mxPoint x="5046" y="2540" as="sourcePoint" />
            <mxPoint x="4672" y="2631" as="targetPoint" />
            <Array as="points">
              <mxPoint x="5027" y="2640" />
              <mxPoint x="4777" y="2630" />
            </Array>
          </mxGeometry>
        </mxCell>
        <mxCell id="-MtlyeahUfIMF0WBJaaO-16" style="edgeStyle=orthogonalEdgeStyle;rounded=0;orthogonalLoop=1;jettySize=auto;html=1;" parent="1" source="-MtlyeahUfIMF0WBJaaO-9" target="mw-NqDPkETXqo4efaNRA-7" edge="1">
          <mxGeometry relative="1" as="geometry" />
        </mxCell>
        <mxCell id="-MtlyeahUfIMF0WBJaaO-9" value="&lt;ol&gt;&lt;li&gt;&lt;b style=&quot;text-align: center;&quot;&gt;&lt;font style=&quot;font-size: 14px;&quot;&gt;SECTION_INFORMATION&lt;/font&gt;&lt;/b&gt;&lt;/li&gt;&lt;/ol&gt;" style="shape=manualInput;whiteSpace=wrap;html=1;size=27;align=left;" parent="1" vertex="1">
          <mxGeometry x="5026.5" y="2085" width="220" height="79" as="geometry" />
        </mxCell>
        <mxCell id="-MtlyeahUfIMF0WBJaaO-11" value="&lt;ol&gt;&lt;li&gt;hole_section&amp;nbsp;&lt;/li&gt;&lt;li&gt;survey_run_in&amp;nbsp;&lt;/li&gt;&lt;li&gt;minimum_id&amp;nbsp;&lt;/li&gt;&lt;/ol&gt;" style="shape=note;whiteSpace=wrap;html=1;backgroundOutline=1;darkOpacity=0.05;align=left;size=18;container=0;" parent="1" vertex="1">
          <mxGeometry x="5476" y="1960" width="270" height="130" as="geometry" />
        </mxCell>
        <mxCell id="-MtlyeahUfIMF0WBJaaO-12" value="&lt;b&gt;&lt;font style=&quot;font-size: 14px;&quot;&gt;SECTION_INFORMATION&lt;/font&gt;&lt;/b&gt;" style="text;html=1;align=center;verticalAlign=middle;whiteSpace=wrap;rounded=0;container=0;" parent="1" vertex="1">
          <mxGeometry x="5476" y="1960" width="200" height="44.23" as="geometry" />
        </mxCell>
        <mxCell id="-MtlyeahUfIMF0WBJaaO-19" value="" style="endArrow=none;dashed=1;html=1;dashPattern=1 3;strokeWidth=2;rounded=0;exitX=0;exitY=0.5;exitDx=0;exitDy=0;entryX=1;entryY=0.25;entryDx=0;entryDy=0;" parent="1" source="-MtlyeahUfIMF0WBJaaO-12" target="-MtlyeahUfIMF0WBJaaO-9" edge="1">
          <mxGeometry width="50" height="50" relative="1" as="geometry">
            <mxPoint x="5664" y="1999.5" as="sourcePoint" />
            <mxPoint x="5267" y="2120.5" as="targetPoint" />
            <Array as="points">
              <mxPoint x="5437" y="1990" />
              <mxPoint x="5297" y="2110" />
            </Array>
          </mxGeometry>
        </mxCell>
        <mxCell id="-MtlyeahUfIMF0WBJaaO-23" style="edgeStyle=orthogonalEdgeStyle;rounded=0;orthogonalLoop=1;jettySize=auto;html=1;entryX=-0.003;entryY=0.623;entryDx=0;entryDy=0;entryPerimeter=0;" parent="1" source="T5j2_0uhESxXv1LbWoU_-1" target="-MtlyeahUfIMF0WBJaaO-9" edge="1">
          <mxGeometry relative="1" as="geometry">
            <Array as="points">
              <mxPoint x="4731" y="2070" />
              <mxPoint x="4890" y="2070" />
              <mxPoint x="4890" y="2134" />
            </Array>
          </mxGeometry>
        </mxCell>
        <mxCell id="gkUSf_01vBVkDCjBnTHa-3" value="" style="edgeStyle=orthogonalEdgeStyle;rounded=0;orthogonalLoop=1;jettySize=auto;html=1;entryX=0.5;entryY=0;entryDx=0;entryDy=0;" parent="1" source="sAyN84QGZhsb4qGFKltL-5" target="gkUSf_01vBVkDCjBnTHa-1" edge="1">
          <mxGeometry relative="1" as="geometry">
            <mxPoint x="5136" y="2462" as="sourcePoint" />
            <mxPoint x="5136" y="2641" as="targetPoint" />
          </mxGeometry>
        </mxCell>
        <mxCell id="gkUSf_01vBVkDCjBnTHa-1" value="GENARATE&amp;nbsp;&lt;div&gt;A&amp;nbsp;&lt;/div&gt;&lt;div&gt;RUN#&lt;/div&gt;" style="shape=hexagon;perimeter=hexagonPerimeter2;whiteSpace=wrap;html=1;fixedSize=1;" parent="1" vertex="1">
          <mxGeometry x="5076" y="2500" width="120.75" height="76.99" as="geometry" />
        </mxCell>
        <mxCell id="gkUSf_01vBVkDCjBnTHa-6" value="" style="group" parent="1" vertex="1" connectable="0">
          <mxGeometry x="4541" y="2593" width="210" height="222" as="geometry" />
        </mxCell>
        <mxCell id="sAyN84QGZhsb4qGFKltL-17" value="1.run#&lt;div&gt;&lt;br&gt;&lt;/div&gt;&lt;div&gt;&lt;br&gt;&lt;/div&gt;&lt;div&gt;&lt;br&gt;&lt;/div&gt;&lt;div&gt;&lt;br&gt;&lt;/div&gt;&lt;div&gt;&lt;br&gt;&lt;/div&gt;&lt;div&gt;&lt;br&gt;&lt;/div&gt;&lt;div&gt;&lt;br&gt;&lt;/div&gt;" style="shape=note;whiteSpace=wrap;html=1;backgroundOutline=1;darkOpacity=0.05;align=center;size=11;container=0;" parent="gkUSf_01vBVkDCjBnTHa-6" vertex="1">
          <mxGeometry y="2.230000000000018" width="210" height="219.77" as="geometry" />
        </mxCell>
        <mxCell id="sAyN84QGZhsb4qGFKltL-20" value="&lt;b&gt;&lt;font style=&quot;font-size: 14px;&quot;&gt;RUN_FULL_INFORMATION&lt;/font&gt;&lt;/b&gt;" style="text;html=1;align=center;verticalAlign=middle;whiteSpace=wrap;rounded=0;container=0;" parent="gkUSf_01vBVkDCjBnTHa-6" vertex="1">
          <mxGeometry x="12.995925925925803" width="175.92592592592592" height="44.230769230769226" as="geometry" />
        </mxCell>
        <mxCell id="u11LTr44eHQO-lqRNldm-1" value="&lt;span style=&quot;text-align: left;&quot;&gt;RUN_INFORMATION&lt;/span&gt;" style="shape=note;whiteSpace=wrap;html=1;backgroundOutline=1;darkOpacity=0.05;size=7;container=0;" parent="gkUSf_01vBVkDCjBnTHa-6" vertex="1">
          <mxGeometry x="33.24370370370434" y="102" width="143.5185185185185" height="30" as="geometry" />
        </mxCell>
        <mxCell id="u11LTr44eHQO-lqRNldm-2" value="&lt;font style=&quot;font-size: 12px;&quot;&gt;TIE_ON&lt;/font&gt;&lt;span style=&quot;text-align: left;&quot;&gt;_INFORMATION&lt;/span&gt;" style="shape=note;whiteSpace=wrap;html=1;backgroundOutline=1;darkOpacity=0.05;size=6;container=0;" parent="gkUSf_01vBVkDCjBnTHa-6" vertex="1">
          <mxGeometry x="33.24370370370434" y="164" width="143.5185185185185" height="29" as="geometry" />
        </mxCell>
        <mxCell id="-MtlyeahUfIMF0WBJaaO-1" value="&lt;font style=&quot;font-size: 18px;&quot;&gt;+&lt;/font&gt;" style="text;html=1;align=center;verticalAlign=middle;whiteSpace=wrap;rounded=0;container=0;" parent="gkUSf_01vBVkDCjBnTHa-6" vertex="1">
          <mxGeometry x="87.28195906432848" y="132.00142857142782" width="34.51730019493177" height="34.371428571428616" as="geometry" />
        </mxCell>
        <mxCell id="gkUSf_01vBVkDCjBnTHa-5" value="&lt;font style=&quot;font-size: 18px;&quot;&gt;+&lt;/font&gt;" style="text;html=1;align=center;verticalAlign=middle;whiteSpace=wrap;rounded=0;container=0;" parent="gkUSf_01vBVkDCjBnTHa-6" vertex="1">
          <mxGeometry x="87.28195906432848" y="67.63142857142793" width="34.51730019493177" height="34.371428571428616" as="geometry" />
        </mxCell>
        <mxCell id="gkUSf_01vBVkDCjBnTHa-8" value="" style="edgeStyle=orthogonalEdgeStyle;rounded=0;orthogonalLoop=1;jettySize=auto;html=1;" parent="1" source="gkUSf_01vBVkDCjBnTHa-7" target="mw-NqDPkETXqo4efaNRA-15" edge="1">
          <mxGeometry relative="1" as="geometry" />
        </mxCell>
        <mxCell id="gkUSf_01vBVkDCjBnTHa-11" style="edgeStyle=orthogonalEdgeStyle;rounded=0;orthogonalLoop=1;jettySize=auto;html=1;entryX=0.5;entryY=0;entryDx=0;entryDy=0;" parent="1" source="gkUSf_01vBVkDCjBnTHa-7" target="mw-NqDPkETXqo4efaNRA-13" edge="1">
          <mxGeometry relative="1" as="geometry" />
        </mxCell>
        <mxCell id="gkUSf_01vBVkDCjBnTHa-7" value="&lt;div&gt;IS&amp;nbsp;&lt;/div&gt;&lt;div&gt;IT&amp;nbsp;&lt;span style=&quot;background-color: transparent; color: light-dark(rgb(0, 0, 0), rgb(255, 255, 255));&quot;&gt;TOOL CALIBARATION&lt;/span&gt;&lt;/div&gt;&lt;div&gt;&lt;span style=&quot;background-color: transparent; color: light-dark(rgb(0, 0, 0), rgb(255, 255, 255));&quot;&gt;?&lt;/span&gt;&lt;/div&gt;" style="rhombus;whiteSpace=wrap;html=1;" parent="1" vertex="1">
          <mxGeometry x="5080.5" y="2666" width="110" height="100" as="geometry" />
        </mxCell>
        <mxCell id="gkUSf_01vBVkDCjBnTHa-12" value="YES" style="text;html=1;align=center;verticalAlign=middle;whiteSpace=wrap;rounded=0;" parent="1" vertex="1">
          <mxGeometry x="5077" y="2765" width="60" height="30" as="geometry" />
        </mxCell>
        <mxCell id="gkUSf_01vBVkDCjBnTHa-13" value="NO" style="text;html=1;align=center;verticalAlign=middle;whiteSpace=wrap;rounded=0;" parent="1" vertex="1">
          <mxGeometry x="5177" y="2689" width="60" height="30" as="geometry" />
        </mxCell>
        <mxCell id="gkUSf_01vBVkDCjBnTHa-24" value="" style="group" parent="1" vertex="1" connectable="0">
          <mxGeometry x="5476" y="2860" width="200" height="130" as="geometry" />
        </mxCell>
        <mxCell id="gkUSf_01vBVkDCjBnTHa-21" value="&lt;div&gt;&lt;br&gt;&lt;/div&gt;&lt;div&gt;&lt;ol&gt;&lt;li&gt;{&lt;br&gt;&amp;nbsp; &amp;nbsp; measured_depth,&lt;br&gt;&amp;nbsp; &amp;nbsp; inclination,&lt;br&gt;&amp;nbsp; &amp;nbsp; azimuth,&lt;br&gt;}[ ]&lt;/li&gt;&lt;/ol&gt;&lt;/div&gt;" style="shape=note;whiteSpace=wrap;html=1;backgroundOutline=1;darkOpacity=0.05;align=left;size=13;container=0;" parent="gkUSf_01vBVkDCjBnTHa-24" vertex="1">
          <mxGeometry width="200" height="130" as="geometry" />
        </mxCell>
        <mxCell id="gkUSf_01vBVkDCjBnTHa-22" value="&lt;b&gt;&lt;font style=&quot;font-size: 14px;&quot;&gt;RAW_SURVEY_FILE&lt;/font&gt;&lt;/b&gt;" style="text;html=1;align=center;verticalAlign=middle;whiteSpace=wrap;rounded=0;container=0;" parent="gkUSf_01vBVkDCjBnTHa-24" vertex="1">
          <mxGeometry width="190" height="44.230769230769226" as="geometry" />
        </mxCell>
        <mxCell id="gkUSf_01vBVkDCjBnTHa-25" value="" style="endArrow=none;dashed=1;html=1;dashPattern=1 3;strokeWidth=2;rounded=0;exitX=0;exitY=0.875;exitDx=0;exitDy=0;entryX=1;entryY=0.25;entryDx=0;entryDy=0;exitPerimeter=0;" parent="1" source="gkUSf_01vBVkDCjBnTHa-21" target="mw-NqDPkETXqo4efaNRA-18" edge="1">
          <mxGeometry width="50" height="50" relative="1" as="geometry">
            <mxPoint x="5463" y="2940" as="sourcePoint" />
            <mxPoint x="5227" y="3061" as="targetPoint" />
            <Array as="points">
              <mxPoint x="5427" y="2980" />
              <mxPoint x="5257" y="2890" />
            </Array>
          </mxGeometry>
        </mxCell>
        <mxCell id="y4-ZX6a5Agd35EgGrDZ7-2" value="" style="edgeStyle=orthogonalEdgeStyle;rounded=0;orthogonalLoop=1;jettySize=auto;html=1;" parent="1" source="gkUSf_01vBVkDCjBnTHa-26" target="y4-ZX6a5Agd35EgGrDZ7-1" edge="1">
          <mxGeometry relative="1" as="geometry" />
        </mxCell>
        <mxCell id="gkUSf_01vBVkDCjBnTHa-26" value="QA CENTER" style="shape=process;whiteSpace=wrap;html=1;backgroundOutline=1;size=0.06993006993006994;" parent="1" vertex="1">
          <mxGeometry x="5064" y="2973" width="143" height="30" as="geometry" />
        </mxCell>
        <mxCell id="bGQr3vy5zB6tm0YDIqNg-4" value="" style="edgeStyle=orthogonalEdgeStyle;rounded=0;orthogonalLoop=1;jettySize=auto;html=1;" parent="1" source="y4-ZX6a5Agd35EgGrDZ7-1" target="CJV3ay5UgCxtQQRFjXLm-7" edge="1">
          <mxGeometry relative="1" as="geometry" />
        </mxCell>
        <mxCell id="y4-ZX6a5Agd35EgGrDZ7-1" value="UPDATE QC DATA TO&lt;span style=&quot;background-color: transparent; color: light-dark(rgb(0, 0, 0), rgb(255, 255, 255));&quot;&gt;&amp;nbsp;BUFFER&lt;/span&gt;" style="whiteSpace=wrap;html=1;" parent="1" vertex="1">
          <mxGeometry x="5039" y="3034" width="192" height="39" as="geometry" />
        </mxCell>
        <mxCell id="HQcReDXE_nJp2PV0tPLr-6" value="" style="group" parent="1" vertex="1" connectable="0">
          <mxGeometry x="5476" y="2140" width="270" height="260" as="geometry" />
        </mxCell>
        <mxCell id="sAyN84QGZhsb4qGFKltL-2" value="&lt;div&gt;&lt;br&gt;&lt;/div&gt;&lt;ol&gt;&lt;li&gt;run_name&amp;nbsp;&lt;/li&gt;&lt;li&gt;type_of_tool &lt;/li&gt;&lt;li&gt;survey_type&lt;/li&gt;&lt;li&gt;&lt;span style=&quot;background-color: transparent; color: light-dark(rgb(0, 0, 0), rgb(255, 255, 255));&quot;&gt;north_reference  &lt;/span&gt;&lt;/li&gt;&lt;li&gt;&lt;span style=&quot;background-color: transparent; color: light-dark(rgb(0, 0, 0), rgb(255, 255, 255));&quot;&gt;survey_calculation_methods  &lt;/span&gt;&lt;/li&gt;&lt;li&gt;&lt;span style=&quot;background-color: transparent; color: light-dark(rgb(0, 0, 0), rgb(255, 255, 255));&quot;&gt;geodetic_system  &lt;/span&gt;&lt;/li&gt;&lt;li&gt;&lt;span style=&quot;background-color: transparent; color: light-dark(rgb(0, 0, 0), rgb(255, 255, 255));&quot;&gt;map_zone  &lt;/span&gt;&lt;/li&gt;&lt;li&gt;&lt;span style=&quot;background-color: transparent; color: light-dark(rgb(0, 0, 0), rgb(255, 255, 255));&quot;&gt;geodetic_datum  &lt;/span&gt;&lt;/li&gt;&lt;li&gt;&lt;span style=&quot;background-color: transparent; color: light-dark(rgb(0, 0, 0), rgb(255, 255, 255));&quot;&gt;start_depth_value  &lt;/span&gt;&lt;/li&gt;&lt;li&gt;&lt;span style=&quot;background-color: transparent; color: light-dark(rgb(0, 0, 0), rgb(255, 255, 255));&quot;&gt;start_depth_unit  &lt;/span&gt;&lt;/li&gt;&lt;li&gt;&lt;span style=&quot;background-color: transparent; color: light-dark(rgb(0, 0, 0), rgb(255, 255, 255));&quot;&gt;tag_depth_value  &lt;/span&gt;&lt;/li&gt;&lt;li&gt;&lt;span style=&quot;background-color: transparent; color: light-dark(rgb(0, 0, 0), rgb(255, 255, 255));&quot;&gt;tag_depth_unit  &lt;/span&gt;&lt;/li&gt;&lt;li&gt;&lt;span style=&quot;background-color: transparent; color: light-dark(rgb(0, 0, 0), rgb(255, 255, 255));&quot;&gt;proposal_direction_value&lt;/span&gt;&lt;/li&gt;&lt;li&gt;&lt;span style=&quot;background-color: transparent; color: light-dark(rgb(0, 0, 0), rgb(255, 255, 255));&quot;&gt;proposal_direction_unit&amp;nbsp;&amp;nbsp;&lt;/span&gt;&lt;/li&gt;&lt;/ol&gt;" style="shape=note;whiteSpace=wrap;html=1;backgroundOutline=1;darkOpacity=0.05;align=left;size=18;container=0;" parent="HQcReDXE_nJp2PV0tPLr-6" vertex="1">
          <mxGeometry width="270" height="260" as="geometry" />
        </mxCell>
        <mxCell id="sAyN84QGZhsb4qGFKltL-3" value="&lt;b&gt;&lt;font style=&quot;font-size: 14px;&quot;&gt;RUN_INFORMATION&lt;/font&gt;&lt;/b&gt;" style="text;html=1;align=center;verticalAlign=middle;whiteSpace=wrap;rounded=0;container=0;" parent="HQcReDXE_nJp2PV0tPLr-6" vertex="1">
          <mxGeometry width="190" height="39.02714932126696" as="geometry" />
        </mxCell>
        <mxCell id="uV6EqjAsNFJMK7C6UA2d-5" value="" style="group" parent="1" vertex="1" connectable="0">
          <mxGeometry x="5476" y="3070" width="814" height="80" as="geometry" />
        </mxCell>
        <mxCell id="HQcReDXE_nJp2PV0tPLr-1" value="" style="shape=note;whiteSpace=wrap;html=1;backgroundOutline=1;darkOpacity=0.05;size=7;" parent="uV6EqjAsNFJMK7C6UA2d-5" vertex="1">
          <mxGeometry width="814" height="80" as="geometry" />
        </mxCell>
        <mxCell id="HQcReDXE_nJp2PV0tPLr-2" value="INTERPOLATED SURVEY" style="shape=note;whiteSpace=wrap;html=1;backgroundOutline=1;darkOpacity=0.05;size=10;" parent="uV6EqjAsNFJMK7C6UA2d-5" vertex="1">
          <mxGeometry x="425" y="20" width="165" height="40" as="geometry" />
        </mxCell>
        <mxCell id="HQcReDXE_nJp2PV0tPLr-3" value="MOVED SURVEY" style="shape=note;whiteSpace=wrap;html=1;backgroundOutline=1;darkOpacity=0.05;size=10;" parent="uV6EqjAsNFJMK7C6UA2d-5" vertex="1">
          <mxGeometry x="224.5" y="20" width="153" height="40" as="geometry" />
        </mxCell>
        <mxCell id="HQcReDXE_nJp2PV0tPLr-4" value="COMPARED SURVEY" style="shape=note;whiteSpace=wrap;html=1;backgroundOutline=1;darkOpacity=0.05;size=10;" parent="uV6EqjAsNFJMK7C6UA2d-5" vertex="1">
          <mxGeometry x="26" y="20" width="153" height="40" as="geometry" />
        </mxCell>
        <mxCell id="HQcReDXE_nJp2PV0tPLr-5" value="PROJECTED SURVEY" style="shape=note;whiteSpace=wrap;html=1;backgroundOutline=1;darkOpacity=0.05;size=10;" parent="uV6EqjAsNFJMK7C6UA2d-5" vertex="1">
          <mxGeometry x="638.5" y="20" width="153" height="40" as="geometry" />
        </mxCell>
        <mxCell id="uV6EqjAsNFJMK7C6UA2d-2" value="" style="shape=sumEllipse;perimeter=ellipsePerimeter;whiteSpace=wrap;html=1;backgroundOutline=1;" parent="uV6EqjAsNFJMK7C6UA2d-5" vertex="1">
          <mxGeometry x="192" y="30" width="20" height="20" as="geometry" />
        </mxCell>
        <mxCell id="uV6EqjAsNFJMK7C6UA2d-3" value="" style="shape=sumEllipse;perimeter=ellipsePerimeter;whiteSpace=wrap;html=1;backgroundOutline=1;" parent="uV6EqjAsNFJMK7C6UA2d-5" vertex="1">
          <mxGeometry x="394" y="30" width="20" height="20" as="geometry" />
        </mxCell>
        <mxCell id="uV6EqjAsNFJMK7C6UA2d-4" value="" style="shape=sumEllipse;perimeter=ellipsePerimeter;whiteSpace=wrap;html=1;backgroundOutline=1;" parent="uV6EqjAsNFJMK7C6UA2d-5" vertex="1">
          <mxGeometry x="604" y="30" width="20" height="20" as="geometry" />
        </mxCell>
        <mxCell id="uV6EqjAsNFJMK7C6UA2d-6" value="" style="endArrow=none;dashed=1;html=1;dashPattern=1 3;strokeWidth=2;rounded=0;exitX=0;exitY=0.323;exitDx=0;exitDy=0;entryX=1.01;entryY=0.627;entryDx=0;entryDy=0;exitPerimeter=0;entryPerimeter=0;" parent="1" source="HQcReDXE_nJp2PV0tPLr-1" target="y4-ZX6a5Agd35EgGrDZ7-1" edge="1">
          <mxGeometry width="50" height="50" relative="1" as="geometry">
            <mxPoint x="5486" y="3044" as="sourcePoint" />
            <mxPoint x="5216" y="2964" as="targetPoint" />
            <Array as="points">
              <mxPoint x="5437" y="3100" />
              <mxPoint x="5280" y="3040" />
            </Array>
          </mxGeometry>
        </mxCell>
        <mxCell id="bGQr3vy5zB6tm0YDIqNg-1" style="edgeStyle=orthogonalEdgeStyle;rounded=0;orthogonalLoop=1;jettySize=auto;html=1;entryX=0;entryY=0.75;entryDx=0;entryDy=0;" parent="1" source="CJV3ay5UgCxtQQRFjXLm-5" target="sAyN84QGZhsb4qGFKltL-4" edge="1">
          <mxGeometry relative="1" as="geometry">
            <Array as="points">
              <mxPoint x="4950" y="3301" />
              <mxPoint x="4950" y="2322" />
            </Array>
          </mxGeometry>
        </mxCell>
        <mxCell id="bGQr3vy5zB6tm0YDIqNg-7" value="" style="edgeStyle=orthogonalEdgeStyle;rounded=0;orthogonalLoop=1;jettySize=auto;html=1;" parent="1" source="CJV3ay5UgCxtQQRFjXLm-5" target="CJV3ay5UgCxtQQRFjXLm-6" edge="1">
          <mxGeometry relative="1" as="geometry" />
        </mxCell>
        <mxCell id="CJV3ay5UgCxtQQRFjXLm-5" value="DO WE&lt;br&gt;&amp;nbsp;NEED &lt;br&gt;ANOTHER &lt;br&gt;RUN ?" style="rhombus;whiteSpace=wrap;html=1;" parent="1" vertex="1">
          <mxGeometry x="5080.52" y="3248" width="110.25" height="105.72" as="geometry" />
        </mxCell>
        <mxCell id="bGQr3vy5zB6tm0YDIqNg-12" style="edgeStyle=orthogonalEdgeStyle;rounded=0;orthogonalLoop=1;jettySize=auto;html=1;entryX=0;entryY=0.75;entryDx=0;entryDy=0;" parent="1" source="CJV3ay5UgCxtQQRFjXLm-6" target="-MtlyeahUfIMF0WBJaaO-9" edge="1">
          <mxGeometry relative="1" as="geometry">
            <Array as="points">
              <mxPoint x="4890" y="3447" />
              <mxPoint x="4890" y="2144" />
            </Array>
          </mxGeometry>
        </mxCell>
        <mxCell id="bGQr3vy5zB6tm0YDIqNg-15" value="" style="edgeStyle=orthogonalEdgeStyle;rounded=0;orthogonalLoop=1;jettySize=auto;html=1;" parent="1" source="CJV3ay5UgCxtQQRFjXLm-6" target="bGQr3vy5zB6tm0YDIqNg-14" edge="1">
          <mxGeometry relative="1" as="geometry" />
        </mxCell>
        <mxCell id="CJV3ay5UgCxtQQRFjXLm-6" value="DO WE&lt;br&gt;&amp;nbsp;NEED&lt;br&gt;ANOTHER&lt;br&gt;SECTION&lt;br&gt;?" style="rhombus;whiteSpace=wrap;html=1;" parent="1" vertex="1">
          <mxGeometry x="5080.280000000001" y="3393.0299999999997" width="111.72" height="107.12" as="geometry" />
        </mxCell>
        <mxCell id="bGQr3vy5zB6tm0YDIqNg-6" style="edgeStyle=orthogonalEdgeStyle;rounded=0;orthogonalLoop=1;jettySize=auto;html=1;entryX=0.5;entryY=0;entryDx=0;entryDy=0;" parent="1" source="CJV3ay5UgCxtQQRFjXLm-7" target="CJV3ay5UgCxtQQRFjXLm-5" edge="1">
          <mxGeometry relative="1" as="geometry" />
        </mxCell>
        <mxCell id="bGQr3vy5zB6tm0YDIqNg-8" style="edgeStyle=orthogonalEdgeStyle;rounded=0;orthogonalLoop=1;jettySize=auto;html=1;entryX=0;entryY=0.5;entryDx=0;entryDy=0;" parent="1" source="CJV3ay5UgCxtQQRFjXLm-7" target="gkUSf_01vBVkDCjBnTHa-7" edge="1">
          <mxGeometry relative="1" as="geometry">
            <Array as="points">
              <mxPoint x="5000" y="3165" />
              <mxPoint x="5000" y="2716" />
            </Array>
          </mxGeometry>
        </mxCell>
        <mxCell id="CJV3ay5UgCxtQQRFjXLm-7" value="DO WE&lt;br&gt;&amp;nbsp;NEED &lt;br&gt;ANOTHER &lt;br&gt;SURVEY&lt;br&gt;?" style="rhombus;whiteSpace=wrap;html=1;" parent="1" vertex="1">
          <mxGeometry x="5078" y="3110" width="114" height="109.31" as="geometry" />
        </mxCell>
        <mxCell id="bGQr3vy5zB6tm0YDIqNg-2" value="YES" style="text;html=1;align=center;verticalAlign=middle;whiteSpace=wrap;rounded=0;" parent="1" vertex="1">
          <mxGeometry x="5039.64" y="3270.72" width="60" height="30" as="geometry" />
        </mxCell>
        <mxCell id="bGQr3vy5zB6tm0YDIqNg-3" value="NO" style="text;html=1;align=center;verticalAlign=middle;whiteSpace=wrap;rounded=0;" parent="1" vertex="1">
          <mxGeometry x="5082" y="3340.72" width="60" height="30" as="geometry" />
        </mxCell>
        <mxCell id="bGQr3vy5zB6tm0YDIqNg-9" value="YES" style="text;html=1;align=center;verticalAlign=middle;whiteSpace=wrap;rounded=0;" parent="1" vertex="1">
          <mxGeometry x="5032.5" y="3140" width="60" height="30" as="geometry" />
        </mxCell>
        <mxCell id="bGQr3vy5zB6tm0YDIqNg-11" value="NO" style="text;html=1;align=center;verticalAlign=middle;whiteSpace=wrap;rounded=0;" parent="1" vertex="1">
          <mxGeometry x="5082" y="3210" width="60" height="30" as="geometry" />
        </mxCell>
        <mxCell id="bGQr3vy5zB6tm0YDIqNg-13" value="YES" style="text;html=1;align=center;verticalAlign=middle;whiteSpace=wrap;rounded=0;" parent="1" vertex="1">
          <mxGeometry x="5032.5" y="3420" width="60" height="30" as="geometry" />
        </mxCell>
        <mxCell id="bGQr3vy5zB6tm0YDIqNg-14" value="REPORTS" style="strokeWidth=2;html=1;shape=mxgraph.flowchart.multi-document;whiteSpace=wrap;" parent="1" vertex="1">
          <mxGeometry x="5093" y="3560" width="88" height="60" as="geometry" />
        </mxCell>
        <mxCell id="0-ymeiB2bRFtGZhwUhKX-2" value="&lt;div&gt;&lt;br&gt;&lt;/div&gt;" style="shape=note;whiteSpace=wrap;html=1;backgroundOutline=1;darkOpacity=0.05;size=40;align=left;" parent="1" vertex="1">
          <mxGeometry x="4390" y="1240" width="540" height="70" as="geometry" />
        </mxCell>
        <mxCell id="0-ymeiB2bRFtGZhwUhKX-3" value="&lt;h1 style=&quot;margin-top: 0px;&quot;&gt;SERVICE CENTER&lt;/h1&gt;" style="text;html=1;whiteSpace=wrap;overflow=hidden;rounded=0;" parent="1" vertex="1">
          <mxGeometry x="4416.5" y="1250" width="279.5" height="40" as="geometry" />
        </mxCell>
      </root>
    </mxGraphModel>
  </diagram>
  <diagram id="SmMUNgsyXUMv72sbhq-S" name="Page-3">
    <mxGraphModel dx="-1524" dy="3966" grid="1" gridSize="10" guides="1" tooltips="1" connect="1" arrows="1" fold="1" page="1" pageScale="1" pageWidth="850" pageHeight="1100" math="0" shadow="0">
      <root>
        <mxCell id="0" />
        <mxCell id="1" parent="0" />
        <mxCell id="JgmXxRsLkXuhwYo_Y-JM-1" value="" style="shape=ext;double=1;rounded=0;whiteSpace=wrap;html=1;fillColor=light-dark(#FFFFFF,transparent);movable=1;resizable=1;rotatable=1;deletable=1;editable=1;locked=0;connectable=1;" vertex="1" parent="1">
          <mxGeometry x="4320" y="1120" width="1110" height="950" as="geometry" />
        </mxCell>
        <mxCell id="FSxGuWXDdp4H9Db62jEt-3" value="" style="edgeStyle=orthogonalEdgeStyle;rounded=0;orthogonalLoop=1;jettySize=auto;html=1;" parent="1" source="FSxGuWXDdp4H9Db62jEt-1" target="FSxGuWXDdp4H9Db62jEt-2" edge="1">
          <mxGeometry relative="1" as="geometry" />
        </mxCell>
        <mxCell id="FSxGuWXDdp4H9Db62jEt-1" value="" style="ellipse;whiteSpace=wrap;html=1;aspect=fixed;" parent="1" vertex="1">
          <mxGeometry x="4832.88" y="1299" width="40" height="40" as="geometry" />
        </mxCell>
        <mxCell id="Jh-_zLuWDYE2Zz5Z0ZFc-2" value="" style="edgeStyle=orthogonalEdgeStyle;rounded=0;orthogonalLoop=1;jettySize=auto;html=1;" parent="1" source="FSxGuWXDdp4H9Db62jEt-2" target="Jh-_zLuWDYE2Zz5Z0ZFc-1" edge="1">
          <mxGeometry relative="1" as="geometry" />
        </mxCell>
        <mxCell id="FSxGuWXDdp4H9Db62jEt-2" value="IMPORT RAW FILE&amp;nbsp; FROM SERVICE CENTER" style="whiteSpace=wrap;html=1;" parent="1" vertex="1">
          <mxGeometry x="4768.5" y="1376.5" width="168.5" height="46.5" as="geometry" />
        </mxCell>
        <mxCell id="9cYAuVFfD490faFvmz-Y-7" value="" style="edgeStyle=orthogonalEdgeStyle;rounded=0;orthogonalLoop=1;jettySize=auto;html=1;" parent="1" source="Jh-_zLuWDYE2Zz5Z0ZFc-1" target="9cYAuVFfD490faFvmz-Y-6" edge="1">
          <mxGeometry relative="1" as="geometry" />
        </mxCell>
        <mxCell id="Jh-_zLuWDYE2Zz5Z0ZFc-1" value="PRIMARY QC CHECK" style="whiteSpace=wrap;html=1;" parent="1" vertex="1">
          <mxGeometry x="4782" y="1462.25" width="141.75" height="46.75" as="geometry" />
        </mxCell>
        <mxCell id="9cYAuVFfD490faFvmz-Y-53" value="" style="edgeStyle=orthogonalEdgeStyle;rounded=0;orthogonalLoop=1;jettySize=auto;html=1;" parent="1" source="Jh-_zLuWDYE2Zz5Z0ZFc-3" target="9cYAuVFfD490faFvmz-Y-52" edge="1">
          <mxGeometry relative="1" as="geometry" />
        </mxCell>
        <mxCell id="Jh-_zLuWDYE2Zz5Z0ZFc-3" value="" style="shape=sumEllipse;perimeter=ellipsePerimeter;whiteSpace=wrap;html=1;backgroundOutline=1;" parent="1" vertex="1">
          <mxGeometry x="4842" y="1819" width="20" height="20" as="geometry" />
        </mxCell>
        <mxCell id="pvq5-LD7rk8GR6LzFvPK-1" value="" style="group" parent="1" vertex="1" connectable="0">
          <mxGeometry x="5150" y="1279" width="200" height="130" as="geometry" />
        </mxCell>
        <mxCell id="pvq5-LD7rk8GR6LzFvPK-2" value="&lt;div&gt;&lt;br&gt;&lt;/div&gt;&lt;div&gt;&lt;ol&gt;&lt;li&gt;{&lt;br&gt;&amp;nbsp; &amp;nbsp; measured_depth,&lt;br&gt;&amp;nbsp; &amp;nbsp; inclination,&lt;br&gt;&amp;nbsp; &amp;nbsp; azimuth,&lt;br&gt;}[ ]&lt;/li&gt;&lt;/ol&gt;&lt;/div&gt;" style="shape=note;whiteSpace=wrap;html=1;backgroundOutline=1;darkOpacity=0.05;align=left;size=13;container=0;" parent="pvq5-LD7rk8GR6LzFvPK-1" vertex="1">
          <mxGeometry width="200" height="130" as="geometry" />
        </mxCell>
        <mxCell id="pvq5-LD7rk8GR6LzFvPK-3" value="&lt;b&gt;&lt;font style=&quot;font-size: 14px;&quot;&gt;RAW_SURVEY_FILE&lt;/font&gt;&lt;/b&gt;" style="text;html=1;align=center;verticalAlign=middle;whiteSpace=wrap;rounded=0;container=0;" parent="pvq5-LD7rk8GR6LzFvPK-1" vertex="1">
          <mxGeometry width="190" height="44.230769230769226" as="geometry" />
        </mxCell>
        <mxCell id="9cYAuVFfD490faFvmz-Y-3" value="&lt;div&gt;&lt;br&gt;&lt;/div&gt;&lt;div&gt;&lt;ol&gt;&lt;li&gt;delta_tgf_score&lt;/li&gt;&lt;li&gt;delta_wt_score&amp;nbsp;&lt;/li&gt;&lt;li&gt;erh&lt;/li&gt;&lt;li&gt;delta_tgf_percentage&lt;/li&gt;&lt;li&gt;delta_wt_percentage&amp;nbsp;&lt;/li&gt;&lt;li&gt;gi&amp;nbsp;&amp;nbsp;&lt;/li&gt;&lt;li&gt;{&lt;br&gt;&amp;nbsp; &amp;nbsp; &amp;nbsp; survey  &lt;br&gt;&amp;nbsp; &amp;nbsp; &amp;nbsp; stations  &lt;br&gt;&amp;nbsp; &amp;nbsp; &amp;nbsp; measured_depth  &lt;br&gt;&amp;nbsp; &amp;nbsp; &amp;nbsp; inclination  &lt;br&gt;&amp;nbsp; &amp;nbsp; &amp;nbsp; azimuth  &lt;br&gt;&amp;nbsp; &amp;nbsp; &amp;nbsp; g_t  &lt;br&gt;&amp;nbsp; &amp;nbsp; &amp;nbsp; delta_tgf  &lt;br&gt;&amp;nbsp; &amp;nbsp; &amp;nbsp; delta_tgf_comp  &lt;br&gt;&amp;nbsp; &amp;nbsp; &amp;nbsp; w_t  &lt;br&gt;&amp;nbsp; &amp;nbsp; &amp;nbsp; delta_wt  &lt;br&gt;&amp;nbsp; &amp;nbsp; &amp;nbsp;delta_wt_comp  &lt;br&gt;&amp;nbsp; &amp;nbsp; &amp;nbsp;status&lt;br&gt;}[ ]&lt;/li&gt;&lt;/ol&gt;&lt;/div&gt;" style="shape=note;whiteSpace=wrap;html=1;backgroundOutline=1;darkOpacity=0.05;align=left;size=13;container=0;" parent="1" vertex="1">
          <mxGeometry x="5150" y="1449" width="200" height="370" as="geometry" />
        </mxCell>
        <mxCell id="9cYAuVFfD490faFvmz-Y-4" value="&lt;b&gt;&lt;font style=&quot;font-size: 14px;&quot;&gt;PRIMARY_QC_DATA&lt;/font&gt;&lt;/b&gt;" style="text;html=1;align=center;verticalAlign=middle;whiteSpace=wrap;rounded=0;container=0;" parent="1" vertex="1">
          <mxGeometry x="5150" y="1449" width="190" height="50" as="geometry" />
        </mxCell>
        <mxCell id="9cYAuVFfD490faFvmz-Y-45" style="edgeStyle=orthogonalEdgeStyle;rounded=0;orthogonalLoop=1;jettySize=auto;html=1;entryX=0.5;entryY=0;entryDx=0;entryDy=0;" parent="1" source="9cYAuVFfD490faFvmz-Y-6" target="9cYAuVFfD490faFvmz-Y-16" edge="1">
          <mxGeometry relative="1" as="geometry">
            <Array as="points">
              <mxPoint x="4870" y="1639" />
              <mxPoint x="4922" y="1639" />
            </Array>
          </mxGeometry>
        </mxCell>
        <mxCell id="nQTnM7cMJMFplOiVGSpg-9" style="edgeStyle=orthogonalEdgeStyle;rounded=0;orthogonalLoop=1;jettySize=auto;html=1;exitX=0.827;exitY=1.019;exitDx=0;exitDy=0;entryX=0.5;entryY=0;entryDx=0;entryDy=0;exitPerimeter=0;" parent="1" source="9cYAuVFfD490faFvmz-Y-6" target="nQTnM7cMJMFplOiVGSpg-6" edge="1">
          <mxGeometry relative="1" as="geometry">
            <Array as="points">
              <mxPoint x="4901" y="1619" />
              <mxPoint x="5070" y="1619" />
            </Array>
          </mxGeometry>
        </mxCell>
        <mxCell id="nQTnM7cMJMFplOiVGSpg-13" style="edgeStyle=orthogonalEdgeStyle;rounded=0;orthogonalLoop=1;jettySize=auto;html=1;entryX=0.5;entryY=0;entryDx=0;entryDy=0;" parent="1" source="9cYAuVFfD490faFvmz-Y-6" target="nQTnM7cMJMFplOiVGSpg-10" edge="1">
          <mxGeometry relative="1" as="geometry">
            <Array as="points">
              <mxPoint x="4840" y="1639" />
              <mxPoint x="4778" y="1639" />
            </Array>
          </mxGeometry>
        </mxCell>
        <mxCell id="9cYAuVFfD490faFvmz-Y-6" value="COMPUTE THE SURVEY" style="whiteSpace=wrap;html=1;" parent="1" vertex="1">
          <mxGeometry x="4778.81" y="1559" width="148.13" height="36.62" as="geometry" />
        </mxCell>
        <mxCell id="9cYAuVFfD490faFvmz-Y-8" value="" style="endArrow=none;dashed=1;html=1;dashPattern=1 3;strokeWidth=2;rounded=0;exitX=1;exitY=0.75;exitDx=0;exitDy=0;entryX=-0.005;entryY=0.579;entryDx=0;entryDy=0;entryPerimeter=0;" parent="1" source="FSxGuWXDdp4H9Db62jEt-2" target="pvq5-LD7rk8GR6LzFvPK-2" edge="1">
          <mxGeometry width="50" height="50" relative="1" as="geometry">
            <mxPoint x="5010" y="1519" as="sourcePoint" />
            <mxPoint x="5060" y="1469" as="targetPoint" />
            <Array as="points">
              <mxPoint x="4980" y="1411" />
              <mxPoint x="5080" y="1354" />
            </Array>
          </mxGeometry>
        </mxCell>
        <mxCell id="9cYAuVFfD490faFvmz-Y-9" value="" style="endArrow=none;dashed=1;html=1;dashPattern=1 3;strokeWidth=2;rounded=0;exitX=1;exitY=0.75;exitDx=0;exitDy=0;entryX=-0.005;entryY=0.313;entryDx=0;entryDy=0;entryPerimeter=0;" parent="1" source="Jh-_zLuWDYE2Zz5Z0ZFc-1" target="9cYAuVFfD490faFvmz-Y-3" edge="1">
          <mxGeometry width="50" height="50" relative="1" as="geometry">
            <mxPoint x="4937" y="1495" as="sourcePoint" />
            <mxPoint x="5173" y="1449" as="targetPoint" />
            <Array as="points">
              <mxPoint x="4960" y="1497" />
              <mxPoint x="5080" y="1565" />
            </Array>
          </mxGeometry>
        </mxCell>
        <mxCell id="9cYAuVFfD490faFvmz-Y-13" value="" style="endArrow=none;dashed=1;html=1;dashPattern=1 3;strokeWidth=2;rounded=0;exitX=0.998;exitY=0.204;exitDx=0;exitDy=0;entryX=0;entryY=0.5;entryDx=0;entryDy=0;exitPerimeter=0;" parent="1" source="9cYAuVFfD490faFvmz-Y-10" target="9cYAuVFfD490faFvmz-Y-6" edge="1">
          <mxGeometry width="50" height="50" relative="1" as="geometry">
            <mxPoint x="4587" y="1639" as="sourcePoint" />
            <mxPoint x="4822" y="1582" as="targetPoint" />
            <Array as="points">
              <mxPoint x="4660" y="1399" />
              <mxPoint x="4740" y="1579" />
            </Array>
          </mxGeometry>
        </mxCell>
        <mxCell id="9cYAuVFfD490faFvmz-Y-48" style="edgeStyle=orthogonalEdgeStyle;rounded=0;orthogonalLoop=1;jettySize=auto;html=1;entryX=0;entryY=0;entryDx=0;entryDy=0;" parent="1" source="9cYAuVFfD490faFvmz-Y-14" target="Jh-_zLuWDYE2Zz5Z0ZFc-3" edge="1">
          <mxGeometry relative="1" as="geometry">
            <Array as="points">
              <mxPoint x="4778" y="1789" />
              <mxPoint x="4845" y="1789" />
            </Array>
          </mxGeometry>
        </mxCell>
        <mxCell id="9cYAuVFfD490faFvmz-Y-14" value="COMPARISON" style="rounded=0;whiteSpace=wrap;html=1;" parent="1" vertex="1">
          <mxGeometry x="4717.75" y="1735" width="120" height="30" as="geometry" />
        </mxCell>
        <mxCell id="9cYAuVFfD490faFvmz-Y-49" style="edgeStyle=orthogonalEdgeStyle;rounded=0;orthogonalLoop=1;jettySize=auto;html=1;entryX=1;entryY=0;entryDx=0;entryDy=0;" parent="1" source="9cYAuVFfD490faFvmz-Y-16" target="Jh-_zLuWDYE2Zz5Z0ZFc-3" edge="1">
          <mxGeometry relative="1" as="geometry">
            <Array as="points">
              <mxPoint x="4920" y="1789" />
              <mxPoint x="4859" y="1789" />
            </Array>
          </mxGeometry>
        </mxCell>
        <mxCell id="9cYAuVFfD490faFvmz-Y-16" value="MOVE" style="rounded=0;whiteSpace=wrap;html=1;" parent="1" vertex="1">
          <mxGeometry x="4862" y="1734" width="120" height="30" as="geometry" />
        </mxCell>
        <mxCell id="9cYAuVFfD490faFvmz-Y-50" style="edgeStyle=orthogonalEdgeStyle;rounded=0;orthogonalLoop=1;jettySize=auto;html=1;entryX=1;entryY=0.5;entryDx=0;entryDy=0;" parent="1" source="9cYAuVFfD490faFvmz-Y-17" target="Jh-_zLuWDYE2Zz5Z0ZFc-3" edge="1">
          <mxGeometry relative="1" as="geometry">
            <Array as="points">
              <mxPoint x="5069" y="1829" />
            </Array>
          </mxGeometry>
        </mxCell>
        <mxCell id="9cYAuVFfD490faFvmz-Y-17" value="PROJECT" style="rounded=0;whiteSpace=wrap;html=1;" parent="1" vertex="1">
          <mxGeometry x="5009.25" y="1783" width="120" height="30" as="geometry" />
        </mxCell>
        <mxCell id="nQTnM7cMJMFplOiVGSpg-5" style="edgeStyle=orthogonalEdgeStyle;rounded=0;orthogonalLoop=1;jettySize=auto;html=1;entryX=0;entryY=0.5;entryDx=0;entryDy=0;" parent="1" source="9cYAuVFfD490faFvmz-Y-38" target="Jh-_zLuWDYE2Zz5Z0ZFc-3" edge="1">
          <mxGeometry relative="1" as="geometry">
            <Array as="points">
              <mxPoint x="4627" y="1829" />
            </Array>
          </mxGeometry>
        </mxCell>
        <mxCell id="9cYAuVFfD490faFvmz-Y-38" value="INTERPOLATION" style="rounded=0;whiteSpace=wrap;html=1;" parent="1" vertex="1">
          <mxGeometry x="4566.75" y="1783" width="120" height="30" as="geometry" />
        </mxCell>
        <mxCell id="9cYAuVFfD490faFvmz-Y-55" value="" style="edgeStyle=orthogonalEdgeStyle;rounded=0;orthogonalLoop=1;jettySize=auto;html=1;" parent="1" source="9cYAuVFfD490faFvmz-Y-52" target="9cYAuVFfD490faFvmz-Y-54" edge="1">
          <mxGeometry relative="1" as="geometry" />
        </mxCell>
        <mxCell id="9cYAuVFfD490faFvmz-Y-52" value="ACCEPT_DATA" style="whiteSpace=wrap;html=1;" parent="1" vertex="1">
          <mxGeometry x="4792" y="1899" width="120" height="30" as="geometry" />
        </mxCell>
        <mxCell id="9cYAuVFfD490faFvmz-Y-54" value="" style="ellipse;whiteSpace=wrap;html=1;" parent="1" vertex="1">
          <mxGeometry x="4829" y="1976" width="45" height="45" as="geometry" />
        </mxCell>
        <mxCell id="9cYAuVFfD490faFvmz-Y-10" value="&lt;blockquote style=&quot;margin: 0 0 0 40px; border: none; padding: 0px;&quot;&gt;&lt;span style=&quot;background-color: transparent; color: light-dark(rgb(0, 0, 0), rgb(255, 255, 255));&quot;&gt;&lt;br&gt;{&lt;br&gt;&lt;/span&gt;&amp;nbsp; &amp;nbsp; &amp;nbsp;&amp;nbsp;&lt;span style=&quot;background-color: transparent; color: light-dark(rgb(0, 0, 0), rgb(255, 255, 255));&quot;&gt;depth&lt;br&gt;&lt;/span&gt;&amp;nbsp; &amp;nbsp; &amp;nbsp;&amp;nbsp;&lt;span style=&quot;background-color: transparent; color: light-dark(rgb(0, 0, 0), rgb(255, 255, 255));&quot;&gt;inclination&lt;br&gt;&lt;/span&gt;&amp;nbsp; &amp;nbsp; &amp;nbsp;&amp;nbsp;&lt;span style=&quot;background-color: transparent; color: light-dark(rgb(0, 0, 0), rgb(255, 255, 255));&quot;&gt;azimuth&lt;br&gt;&lt;/span&gt;&amp;nbsp; &amp;nbsp; &amp;nbsp;&amp;nbsp;&lt;span style=&quot;background-color: transparent; color: light-dark(rgb(0, 0, 0), rgb(255, 255, 255));&quot;&gt;true_vertical_depth&lt;br&gt;&lt;/span&gt;&amp;nbsp; &amp;nbsp; &amp;nbsp;&amp;nbsp;&lt;span style=&quot;background-color: transparent; color: light-dark(rgb(0, 0, 0), rgb(255, 255, 255));&quot;&gt;vertical_section&lt;br&gt;&lt;/span&gt;&amp;nbsp; &amp;nbsp; &amp;nbsp;&amp;nbsp;&lt;span style=&quot;background-color: transparent; color: light-dark(rgb(0, 0, 0), rgb(255, 255, 255));&quot;&gt;north_south&lt;br&gt;&lt;/span&gt;&amp;nbsp; &amp;nbsp; &amp;nbsp;&amp;nbsp;&lt;span style=&quot;background-color: transparent; color: light-dark(rgb(0, 0, 0), rgb(255, 255, 255));&quot;&gt;east_west&lt;br&gt;&lt;/span&gt;&amp;nbsp; &amp;nbsp; &amp;nbsp;&amp;nbsp;&lt;span style=&quot;background-color: transparent; color: light-dark(rgb(0, 0, 0), rgb(255, 255, 255));&quot;&gt;dls&lt;br&gt;&lt;/span&gt;&amp;nbsp; &amp;nbsp; &amp;nbsp;&amp;nbsp;&lt;span style=&quot;background-color: transparent; color: light-dark(rgb(0, 0, 0), rgb(255, 255, 255));&quot;&gt;closure_distance&lt;br&gt;&lt;/span&gt;&amp;nbsp; &amp;nbsp; &amp;nbsp;&amp;nbsp;&lt;span style=&quot;background-color: transparent; color: light-dark(rgb(0, 0, 0), rgb(255, 255, 255));&quot;&gt;closure_direction&lt;br&gt;&lt;/span&gt;&amp;nbsp; &amp;nbsp; &amp;nbsp;&amp;nbsp;&lt;span style=&quot;background-color: transparent; color: light-dark(rgb(0, 0, 0), rgb(255, 255, 255));&quot;&gt;cl&lt;br&gt;&lt;/span&gt;&lt;span style=&quot;background-color: transparent; color: light-dark(rgb(0, 0, 0), rgb(255, 255, 255));&quot;&gt;&amp;nbsp; &amp;nbsp; &amp;nbsp; dog_leg_ratio_factor&lt;br&gt;&lt;/span&gt;&lt;span style=&quot;background-color: transparent; color: light-dark(rgb(0, 0, 0), rgb(255, 255, 255));&quot;&gt;}[ ]&lt;/span&gt;&lt;/blockquote&gt;" style="shape=note;whiteSpace=wrap;html=1;backgroundOutline=1;darkOpacity=0.05;align=left;size=13;container=0;" parent="1" vertex="1">
          <mxGeometry x="4400" y="1329" width="200" height="260" as="geometry" />
        </mxCell>
        <mxCell id="9cYAuVFfD490faFvmz-Y-11" value="&lt;b&gt;&lt;font style=&quot;font-size: 14px;&quot;&gt;SURVEY_DATA&lt;/font&gt;&lt;/b&gt;" style="text;html=1;align=center;verticalAlign=middle;whiteSpace=wrap;rounded=0;container=0;" parent="1" vertex="1">
          <mxGeometry x="4400" y="1329" width="140" height="40" as="geometry" />
        </mxCell>
        <mxCell id="nQTnM7cMJMFplOiVGSpg-3" value="" style="edgeStyle=orthogonalEdgeStyle;rounded=0;orthogonalLoop=1;jettySize=auto;html=1;entryX=0.5;entryY=0;entryDx=0;entryDy=0;" parent="1" source="9cYAuVFfD490faFvmz-Y-6" target="nQTnM7cMJMFplOiVGSpg-2" edge="1">
          <mxGeometry relative="1" as="geometry">
            <Array as="points">
              <mxPoint x="4800" y="1619" />
            </Array>
            <mxPoint x="4800" y="1596" as="sourcePoint" />
            <mxPoint x="4635" y="1733" as="targetPoint" />
          </mxGeometry>
        </mxCell>
        <mxCell id="nQTnM7cMJMFplOiVGSpg-4" value="" style="edgeStyle=orthogonalEdgeStyle;rounded=0;orthogonalLoop=1;jettySize=auto;html=1;" parent="1" source="nQTnM7cMJMFplOiVGSpg-2" target="9cYAuVFfD490faFvmz-Y-38" edge="1">
          <mxGeometry relative="1" as="geometry" />
        </mxCell>
        <mxCell id="nQTnM7cMJMFplOiVGSpg-2" value="&lt;ol&gt;&lt;li&gt;range_from&lt;/li&gt;&lt;li&gt;range_to&lt;/li&gt;&lt;li&gt;intervel&lt;/li&gt;&lt;/ol&gt;" style="shape=manualInput;whiteSpace=wrap;html=1;size=13;align=left;" parent="1" vertex="1">
          <mxGeometry x="4563.62" y="1674" width="126.25" height="70" as="geometry" />
        </mxCell>
        <mxCell id="nQTnM7cMJMFplOiVGSpg-8" value="" style="edgeStyle=orthogonalEdgeStyle;rounded=0;orthogonalLoop=1;jettySize=auto;html=1;" parent="1" source="nQTnM7cMJMFplOiVGSpg-6" target="9cYAuVFfD490faFvmz-Y-17" edge="1">
          <mxGeometry relative="1" as="geometry" />
        </mxCell>
        <mxCell id="nQTnM7cMJMFplOiVGSpg-6" value="&lt;div&gt;&lt;br&gt;&lt;/div&gt;&lt;ol&gt;&lt;li&gt;range_to&lt;/li&gt;&lt;li&gt;intervel&lt;/li&gt;&lt;/ol&gt;" style="shape=manualInput;whiteSpace=wrap;html=1;size=13;align=left;" parent="1" vertex="1">
          <mxGeometry x="5014.25" y="1683" width="110.75" height="60" as="geometry" />
        </mxCell>
        <mxCell id="nQTnM7cMJMFplOiVGSpg-12" value="" style="edgeStyle=orthogonalEdgeStyle;rounded=0;orthogonalLoop=1;jettySize=auto;html=1;" parent="1" source="nQTnM7cMJMFplOiVGSpg-10" target="9cYAuVFfD490faFvmz-Y-14" edge="1">
          <mxGeometry relative="1" as="geometry" />
        </mxCell>
        <mxCell id="nQTnM7cMJMFplOiVGSpg-10" value="&lt;span style=&quot;background-color: transparent; color: light-dark(rgb(0, 0, 0), rgb(255, 255, 255));&quot;&gt;import_other_survey_file&lt;/span&gt;" style="shape=manualInput;whiteSpace=wrap;html=1;size=13;align=center;" parent="1" vertex="1">
          <mxGeometry x="4707.75" y="1658" width="140" height="48" as="geometry" />
        </mxCell>
        <mxCell id="vcyDLswZS_kX9a9reB0a-1" value="" style="group" vertex="1" connectable="0" parent="1">
          <mxGeometry x="4368" y="1164" width="540" height="70" as="geometry" />
        </mxCell>
        <mxCell id="t93HpQaLE688LRkDjsEc-2" value="&lt;div&gt;&lt;br&gt;&lt;/div&gt;" style="shape=note;whiteSpace=wrap;html=1;backgroundOutline=1;darkOpacity=0.05;size=19;align=left;" parent="vcyDLswZS_kX9a9reB0a-1" vertex="1">
          <mxGeometry width="540" height="70" as="geometry" />
        </mxCell>
        <mxCell id="t93HpQaLE688LRkDjsEc-3" value="&lt;h1 style=&quot;margin-top: 0px;&quot;&gt;QUALITY CENTER&lt;/h1&gt;" style="text;html=1;whiteSpace=wrap;overflow=hidden;rounded=0;" parent="vcyDLswZS_kX9a9reB0a-1" vertex="1">
          <mxGeometry x="26.5" y="10" width="279.5" height="40" as="geometry" />
        </mxCell>
      </root>
    </mxGraphModel>
  </diagram>
</mxfile>
